<?xml version="1.0" standalone="no"?>
<!DOCTYPE svg PUBLIC "-//W3C//DTD SVG 20010904//EN"
 "http://www.w3.org/TR/2001/REC-SVG-20010904/DTD/svg10.dtd">
<svg version="1.0" xmlns="http://www.w3.org/2000/svg"
 width="512.000000pt" height="512.000000pt" viewBox="0 0 512.000000 512.000000"
 preserveAspectRatio="xMidYMid meet">
<metadata>
Created by potrace 1.14, written by Peter Selinger 2001-2017
</metadata>
<g transform="translate(0.000000,512.000000) scale(0.100000,-0.100000)"
fill="#000000" stroke="none">
<path d="M2137 5064 c-11 -12 -99 -26 -159 -27 -48 -1 -58 -4 -69 -23 -11 -21
-87 -52 -129 -53 -8 0 -37 -5 -65 -11 -27 -6 -84 -15 -126 -20 -146 -15 -312
-134 -368 -262 -13 -29 -32 -72 -43 -96 -11 -24 -21 -48 -22 -55 -1 -7 -4 -16
-8 -22 -3 -5 -9 -26 -13 -45 -4 -19 -14 -55 -22 -80 -11 -33 -15 -81 -14 -180
3 -228 23 -321 98 -446 24 -39 43 -74 43 -77 0 -3 26 -61 59 -129 75 -158 106
-239 121 -311 11 -57 11 -57 -18 -82 -35 -29 -79 -124 -94 -202 -6 -32 -18
-78 -27 -103 -16 -41 -21 -46 -57 -51 -76 -11 -143 -49 -184 -103 -32 -44 -46
-54 -96 -70 -46 -14 -73 -32 -125 -82 -36 -35 -71 -64 -77 -64 -27 0 -101 -45
-116 -70 -9 -16 -40 -42 -70 -59 -61 -34 -176 -137 -193 -173 -34 -71 -53
-116 -53 -126 0 -7 -4 -20 -9 -30 -14 -25 -38 -84 -46 -110 -3 -12 -8 -69 -10
-125 -2 -57 -9 -123 -15 -147 -8 -31 -8 -50 -1 -69 7 -16 10 -87 8 -186 -4
-141 -7 -173 -35 -272 -17 -62 -47 -152 -66 -201 -31 -76 -35 -97 -30 -138 6
-43 14 -56 68 -109 34 -33 81 -90 105 -127 24 -38 51 -68 60 -68 12 0 13 -2 3
-8 -9 -7 -5 -18 18 -47 16 -21 37 -59 45 -84 43 -138 56 -161 109 -187 31 -15
86 -92 86 -120 0 -12 62 -14 424 -14 l425 0 17 23 16 22 -5 -22 c-5 -23 -4
-23 91 -23 96 0 97 0 109 28 21 47 63 136 80 166 8 16 16 39 16 52 0 13 8 31
18 40 18 16 19 16 19 -17 0 -19 -11 -69 -24 -111 -14 -43 -23 -78 -22 -78 2 0
24 32 51 72 38 57 50 85 60 145 7 42 21 83 31 95 19 20 19 21 -6 14 -14 -4
-42 -14 -63 -23 -35 -15 -38 -15 -58 3 -21 19 -21 19 -8 -8 19 -43 2 -55 -68
-48 -32 4 -65 3 -73 -1 -8 -4 -37 -16 -65 -25 -29 -10 -64 -33 -83 -54 -18
-19 -30 -27 -27 -18 5 12 2 18 -6 18 -7 0 0 13 16 30 16 16 34 30 40 30 7 0
20 9 30 20 18 19 17 20 -3 20 -28 0 -105 -43 -167 -94 -47 -38 -47 -31 -2 21
11 12 17 26 14 30 -3 5 19 22 50 37 56 27 69 45 18 26 -31 -12 -47 -4 -25 11
11 8 8 8 -10 3 -14 -3 -37 -15 -52 -25 -33 -24 -51 -24 -46 -1 2 9 11 16 21
16 9 -1 17 2 17 7 0 5 6 9 14 9 8 0 18 5 21 10 8 13 -33 9 -54 -4 -9 -6 -12
-5 -9 5 2 8 16 20 31 27 16 8 24 18 20 27 -6 17 -23 20 -23 5 0 -17 -24 -11
-37 8 -7 12 -24 19 -48 20 -61 2 -77 10 -65 33 6 10 18 19 26 19 8 0 12 4 9
10 -3 5 -1 10 5 10 6 0 8 -10 4 -26 -5 -19 -4 -25 5 -20 6 4 11 16 11 27 0 13
7 19 21 19 11 0 17 5 14 10 -3 6 -14 10 -25 10 -11 0 -20 10 -24 26 -10 37 0
41 29 14 17 -16 25 -19 25 -9 0 8 -9 20 -19 26 -12 8 -17 19 -14 31 2 11 0 23
-6 26 -6 4 -11 1 -11 -7 0 -8 -6 -17 -14 -20 -12 -5 -11 0 2 22 15 27 15 29
-24 70 -59 64 -71 86 -55 105 11 12 17 14 27 5 8 -6 14 -18 14 -25 0 -8 5 -14
10 -14 6 0 10 -6 10 -14 0 -8 7 -16 14 -19 10 -4 13 -1 9 9 -3 8 1 14 8 14 8
0 -1 14 -19 31 -18 17 -32 38 -30 47 2 9 -5 25 -14 34 -22 22 -23 34 -3 42 8
3 14 2 12 -2 -1 -4 2 -8 7 -9 5 -1 13 -7 17 -15 7 -10 9 -10 9 0 0 17 29 15
36 -3 6 -16 34 -21 34 -6 0 4 -41 47 -91 95 -58 56 -89 92 -85 102 3 8 0 14
-6 14 -6 0 -8 3 -5 7 4 3 1 11 -7 17 -7 6 -17 24 -21 41 -6 29 -6 29 14 11 12
-11 31 -39 43 -62 15 -31 25 -41 33 -34 13 11 35 -6 35 -27 0 -7 6 -13 14 -13
18 0 29 42 13 52 -7 4 -8 8 -3 8 5 0 1 9 -8 19 -24 27 -16 50 8 26 19 -19 79
-63 133 -96 43 -27 115 -179 84 -179 -19 0 -10 -73 12 -97 28 -31 40 -29 24 5
-23 45 -29 92 -12 98 19 8 19 59 0 114 -17 48 -99 153 -169 216 -25 23 -46 47
-46 54 0 6 -5 8 -11 5 -5 -4 -19 1 -31 12 -11 10 -22 17 -24 16 -2 -2 -13 6
-24 17 -11 11 -16 20 -11 20 5 0 13 -6 19 -13 14 -16 82 -22 82 -7 0 6 5 8 10
5 6 -3 10 0 10 7 0 9 3 9 10 -2 5 -8 10 -10 10 -5 0 19 -17 38 -24 26 -12 -19
-49 25 -43 50 3 12 2 31 -4 41 -7 14 -6 18 5 18 8 0 16 -5 18 -12 6 -17 28 0
28 23 0 10 5 19 11 19 7 0 9 -11 6 -28 -5 -25 0 -31 54 -65 64 -39 74 -43 84
-27 7 11 -93 112 -148 150 -22 15 -37 33 -37 45 0 16 2 17 10 5 5 -8 24 -15
41 -15 27 0 36 -7 52 -35 11 -19 37 -57 59 -83 36 -42 40 -52 35 -85 -6 -33
-3 -39 22 -53 22 -13 29 -26 34 -61 3 -25 4 -62 0 -82 -4 -29 -1 -42 14 -59
22 -23 27 -44 46 -174 9 -58 18 -88 34 -105 24 -26 106 -88 117 -88 9 0 166
-105 187 -126 9 -8 21 -32 27 -52 6 -20 20 -65 33 -99 19 -54 25 -62 43 -58
44 8 136 17 286 25 85 5 168 12 185 15 130 26 175 39 253 69 48 19 100 38 115
41 15 4 30 11 33 16 3 5 15 9 26 9 12 0 36 5 54 12 44 16 67 -1 145 -103 36
-47 80 -93 105 -108 24 -14 48 -37 54 -51 6 -14 22 -34 35 -44 20 -15 25 -28
25 -60 -1 -47 -21 -109 -44 -135 -9 -10 -16 -23 -16 -29 0 -16 47 -15 57 1 4
7 25 21 45 30 20 10 40 22 43 27 3 6 11 10 17 10 6 0 5 -7 -4 -17 -9 -10 -13
-24 -11 -30 3 -7 0 -13 -7 -13 -6 0 -8 5 -5 10 9 14 -1 12 -35 -5 -38 -20 -38
-24 3 -21 39 3 77 25 71 41 -6 15 25 41 58 49 32 7 59 46 33 46 -9 0 -34 -9
-56 -21 -23 -11 -43 -19 -45 -16 -2 2 2 19 10 38 7 19 20 60 27 92 7 32 16 60
21 63 4 3 8 10 8 15 0 6 -15 -1 -32 -15 -35 -26 -88 -44 -88 -29 0 5 21 19 46
31 38 19 43 24 32 36 -8 8 -26 11 -44 9 -54 -8 -162 57 -215 130 -36 50 -40
120 -9 160 11 14 20 29 20 35 0 5 11 7 25 4 25 -4 35 12 13 21 -7 3 6 6 30 6
39 1 54 12 32 26 -5 3 -7 20 -3 38 5 26 3 30 -8 20 -7 -7 -20 -13 -29 -13 -10
0 -35 -13 -57 -29 -43 -31 -76 -35 -81 -8 -4 20 18 33 28 17 5 -7 10 2 14 25
6 30 3 44 -18 75 -14 21 -28 50 -32 64 -3 14 -10 26 -15 26 -5 0 -9 5 -9 11 0
6 9 8 22 4 17 -6 20 -4 15 10 -4 9 -7 21 -7 26 0 20 -16 7 -32 -27 -20 -39
-24 -114 -7 -131 7 -7 8 -19 4 -30 -4 -10 -7 -49 -6 -87 3 -61 1 -68 -14 -62
-9 3 -19 6 -21 6 -2 0 -4 6 -4 14 0 9 -7 12 -20 9 -16 -4 -20 0 -20 20 0 14
-5 27 -11 29 -5 2 -7 11 -3 21 6 17 7 17 19 0 7 -10 11 -21 9 -25 -3 -5 0 -8
5 -8 17 0 13 67 -5 84 -8 9 -11 16 -5 16 6 0 11 5 11 10 0 6 -7 10 -15 10 -24
0 -29 29 -10 50 10 11 13 20 7 20 -6 0 -10 19 -9 50 1 32 -2 50 -9 50 -14 0
-27 28 -19 40 3 4 -1 20 -9 35 -8 16 -17 22 -21 16 -3 -6 -11 -9 -16 -6 -13 9
-11 45 3 45 7 0 5 7 -5 18 -8 9 -25 53 -38 97 -31 112 -31 112 -36 98 -3 -7
-9 -13 -14 -13 -12 0 -12 27 0 32 10 3 -12 102 -27 122 -5 6 -15 31 -22 56 -8
25 -20 56 -27 70 -7 14 -13 32 -13 40 0 9 -13 32 -29 51 -22 26 -28 42 -24 59
5 20 3 22 -13 17 -17 -6 -17 -5 2 11 16 14 18 21 10 34 -7 13 -6 21 6 35 10
12 14 29 11 52 -4 22 -8 29 -14 20 -6 -10 -10 -10 -23 0 -24 20 -19 34 9 27
26 -7 32 3 14 21 -6 6 -12 27 -14 47 -2 19 -7 41 -11 47 -5 9 -2 10 9 6 14 -5
16 -1 12 23 -3 17 -1 30 5 30 5 0 10 5 10 11 0 5 -6 7 -12 3 -10 -5 -10 -4 -1
6 14 15 6 79 -14 102 -11 12 -11 18 -3 23 16 10 28 -11 35 -55 3 -19 11 -53
17 -75 6 -22 12 -56 13 -75 4 -57 46 -242 63 -280 8 -19 14 -39 13 -43 -3 -14
28 -166 38 -184 5 -10 17 -46 27 -81 10 -35 21 -65 26 -68 4 -3 8 -17 8 -31 0
-39 22 -96 43 -111 12 -9 15 -18 9 -25 -12 -15 -3 -77 10 -77 6 0 8 -7 5 -15
-4 -8 -2 -17 3 -20 4 -3 10 1 13 7 3 10 7 10 20 -1 14 -11 18 -11 23 4 4 9 1
28 -5 42 -9 19 -9 29 1 40 23 28 17 306 -7 297 -7 -3 -15 2 -18 10 -4 10 -1
16 8 16 14 0 17 37 4 55 -4 6 -7 32 -8 59 0 57 -20 155 -34 173 -5 7 -7 20 -3
28 11 30 -24 233 -46 262 -5 6 -6 22 -3 36 4 14 1 35 -6 48 -8 16 -9 24 -1 27
20 6 -9 62 -40 78 -22 12 -27 19 -19 27 20 20 11 48 -29 89 -22 23 -40 38 -40
34 0 -4 -9 -2 -20 4 -21 11 -27 30 -11 30 18 0 100 -61 120 -88 15 -21 17 -32
9 -46 -7 -13 -7 -17 0 -12 13 8 61 -78 64 -116 1 -16 6 -32 10 -34 4 -3 8 -15
8 -26 0 -12 7 -30 16 -40 14 -14 14 -21 4 -32 -6 -9 -9 -28 -6 -43 3 -15 8
-48 11 -73 3 -25 11 -55 17 -68 9 -17 9 -25 1 -30 -8 -5 -7 -24 2 -67 7 -33
23 -105 34 -160 12 -55 26 -108 31 -117 6 -10 10 -29 10 -43 0 -14 9 -51 19
-83 11 -31 19 -64 18 -72 -3 -34 16 -112 29 -117 15 -6 19 -33 5 -33 -5 0 -3
-22 4 -49 7 -28 13 -107 14 -177 0 -70 3 -129 6 -133 8 -7 24 18 31 49 3 14
12 39 19 55 29 63 46 265 24 291 -9 11 -9 20 -1 37 6 12 13 76 15 142 1 66 7
126 11 133 5 8 2 20 -8 31 -14 16 -14 19 1 34 10 10 18 37 19 69 2 29 6 63 8
75 3 13 0 25 -6 29 -6 4 -5 10 3 15 10 6 10 9 2 9 -13 0 -9 65 6 84 4 6 11 27
14 47 4 30 2 36 -11 35 -22 -1 -27 30 -7 50 11 12 13 20 6 27 -6 6 -11 15 -11
19 0 10 37 11 43 1 2 -5 2 -2 1 5 -2 7 2 21 8 31 13 22 -4 76 -28 85 -16 6
-19 36 -3 36 5 0 8 4 5 9 -3 5 3 11 14 14 23 6 39 -12 20 -23 -12 -8 -5 -70 8
-70 24 1 32 18 22 44 -8 21 -7 26 3 20 28 -16 36 -27 30 -37 -4 -7 -6 -28 -6
-47 2 -28 1 -30 -5 -11 -7 22 -8 23 -22 6 -13 -15 -12 -19 7 -35 12 -10 20
-19 18 -22 -3 -2 0 -22 6 -44 27 -105 43 -153 49 -143 13 20 -1 183 -16 192
-19 11 -18 27 2 27 13 0 15 7 9 43 -4 23 -12 48 -18 55 -8 10 -7 16 1 21 8 5
6 14 -7 34 -20 31 -31 26 -31 -12 -1 -23 -2 -24 -11 -8 -5 9 -8 21 -5 25 2 4
1 14 -4 22 -5 9 -5 19 1 26 12 14 -34 54 -61 54 -10 0 -20 7 -24 15 -3 8 -12
12 -20 9 -10 -4 -13 0 -10 13 6 22 -19 48 -36 38 -6 -3 -8 -11 -5 -16 4 -5 3
-9 0 -9 -3 0 -13 16 -21 35 -10 24 -21 35 -35 35 -11 0 -32 9 -46 20 -14 11
-30 17 -35 14 -5 -3 -17 1 -26 10 -10 8 -26 15 -37 14 -11 0 -40 6 -65 15 -55
18 -150 31 -150 19 0 -4 5 -13 12 -20 9 -9 8 -12 -5 -12 -10 0 -17 8 -17 18 0
11 -24 36 -60 62 -33 24 -59 48 -57 54 2 5 34 20 71 32 66 21 116 50 123 70 1
5 -2 16 -7 24 -8 13 -13 13 -40 -2 -18 -10 -32 -13 -36 -7 -4 6 -10 6 -19 -1
-9 -8 -14 -7 -18 5 -4 8 -12 12 -20 9 -10 -3 -14 4 -14 26 0 17 -6 37 -14 45
-12 13 -18 13 -43 0 -32 -17 -53 -11 -36 10 9 11 6 16 -14 21 -14 3 -30 12
-37 20 -12 15 -33 9 -24 -7 4 -5 1 -9 -4 -9 -15 0 -14 11 4 30 14 15 14 18 1
23 -8 3 -20 -1 -26 -9 -17 -19 -30 -18 -30 4 0 19 -36 28 -55 13 -15 -12 -65
-20 -65 -10 0 5 4 9 9 9 5 0 7 8 4 19 -3 13 -11 17 -24 14 -18 -5 -24 4 -20
36 5 30 -7 41 -34 31 -28 -11 -30 -8 -14 23 9 18 9 20 -2 10 -16 -16 -33 -17
-24 -3 12 19 14 70 4 70 -6 0 -9 5 -7 11 2 6 8 10 12 9 11 -2 48 71 40 79 -3
3 -9 -1 -14 -9 -5 -8 -12 -11 -16 -7 -4 4 -13 2 -21 -4 -10 -9 -13 -5 -13 22
0 31 -1 32 -16 13 -13 -16 -15 -16 -10 -1 3 9 1 17 -5 17 -6 0 -9 6 -6 14 9
23 -5 27 -26 9 -20 -17 -20 -17 -14 0 4 10 7 23 7 29 0 6 7 8 15 4 12 -4 14 4
11 44 -2 28 -8 56 -13 62 -16 20 -12 50 4 43 8 -3 16 -5 17 -5 2 0 2 -12 0
-27 -2 -18 -1 -20 3 -8 3 11 9 23 14 26 5 3 3 23 -5 47 -14 39 -14 41 5 47 10
4 19 11 19 17 0 5 -6 8 -14 5 -9 -4 -15 1 -15 11 0 9 -5 49 -12 87 -8 52 -17
76 -35 92 -13 12 -24 33 -24 48 0 14 -4 25 -8 25 -4 0 -7 12 -6 28 1 15 2 37
3 50 1 16 7 22 24 23 12 0 16 3 9 6 -6 2 -9 9 -6 14 6 11 17 75 16 102 -1 9 4
17 10 17 6 0 8 10 4 25 -5 18 -2 25 8 25 7 0 14 6 13 13 -1 37 4 57 16 55 7
-2 11 6 10 18 -2 15 4 24 18 27 12 3 18 10 15 16 -4 5 -2 12 3 15 5 3 12 21
15 40 4 19 11 36 17 38 5 2 11 27 11 57 1 47 3 51 15 35 16 -21 17 -34 3 -34
-5 0 -10 -8 -10 -17 0 -15 4 -13 20 7 10 13 15 27 11 30 -13 8 -10 91 2 83 6
-4 8 0 4 10 -8 22 17 41 40 28 13 -7 23 -5 35 6 10 9 18 12 18 7 0 -5 30 -10
67 -12 74 -4 114 -20 157 -66 l29 -31 -6 53 c-5 40 -3 52 8 52 7 0 23 13 33
28 22 29 16 54 -17 79 -13 10 -14 15 -3 32 17 29 16 47 -3 31 -13 -10 -15 -9
-15 11 0 13 -7 33 -15 43 -8 11 -15 28 -15 38 0 9 -7 33 -16 51 -14 30 -21 34
-58 35 -22 1 -53 7 -67 13 -17 6 -38 7 -60 1 -25 -6 -40 -5 -57 6 -20 13 -33
14 -82 4 -32 -7 -64 -10 -71 -8 -28 9 -146 16 -152 10z m593 -304 c0 -5 -4
-10 -10 -10 -5 0 -10 5 -10 10 0 6 5 10 10 10 6 0 10 -4 10 -10z m-1150 -840
c11 -8 8 -9 -12 -4 -20 4 -29 1 -38 -15 -6 -12 -17 -21 -25 -21 -23 0 -45 -43
-52 -99 -7 -59 -20 -69 -17 -13 2 53 37 116 76 140 38 24 48 25 68 12z m90 -5
c13 8 50 -17 50 -34 0 -8 -7 -23 -17 -33 -15 -17 -15 -18 1 -18 15 0 15 -2 -1
-26 l-17 -26 -13 54 c-7 29 -17 60 -22 69 -6 9 -7 20 -3 24 4 3 8 1 10 -4 2
-6 8 -9 12 -6z m-35 -74 c-6 -4 -36 -27 -67 -50 -42 -30 -58 -37 -58 -26 0 9
5 13 10 10 6 -3 10 3 10 14 0 14 9 21 33 26 17 4 41 14 52 21 22 15 34 19 20
5z m-117 -136 c-3 -3 -9 2 -12 12 -6 14 -5 15 5 6 7 -7 10 -15 7 -18z m232
-38 c0 -5 -4 -5 -10 -2 -5 3 -10 14 -10 23 0 15 2 15 10 2 5 -8 10 -19 10 -23z
m-165 -38 c12 -18 -14 -8 -42 16 l-28 25 32 -16 c18 -8 35 -19 38 -25z m89
-155 c9 -3 14 -10 11 -14 -6 -10 -55 0 -55 11 0 10 21 12 44 3z m711 -394 c-3
-5 -13 -10 -21 -10 -8 0 -12 5 -9 10 3 6 13 10 21 10 8 0 12 -4 9 -10z m-440
-289 c-6 -5 -25 10 -25 20 0 5 6 4 14 -3 8 -7 12 -15 11 -17z m25 -31 c13 0
19 4 14 11 -4 7 -1 10 7 7 8 -3 13 -13 13 -22 -2 -24 13 -19 20 7 5 19 8 20
17 7 8 -11 12 -12 16 -2 7 18 21 15 28 -8 3 -11 14 -20 24 -20 27 0 33 12 13
26 -15 12 -15 13 -1 14 9 0 22 -6 28 -14 7 -8 21 -12 33 -8 14 3 19 1 14 -6
-4 -7 -14 -12 -22 -12 -18 0 -14 -22 6 -28 7 -3 10 0 6 6 -13 21 81 23 167 3
46 -11 93 -17 105 -14 20 5 20 4 6 -52 -24 -91 -89 -219 -131 -255 -31 -27
-33 -31 -12 -25 13 4 43 20 67 36 73 49 50 16 -47 -68 -24 -21 -50 -53 -58
-72 -13 -30 -12 -35 4 -54 15 -17 10 -16 -32 7 -112 63 -161 86 -171 82 -7 -3
-22 6 -35 20 -12 13 -28 24 -35 24 -7 0 -14 4 -16 9 -5 13 -99 86 -136 105
-39 20 -41 29 -4 20 30 -7 25 2 -10 21 -13 6 -22 19 -21 30 1 11 -3 22 -8 26
-6 3 -6 16 1 34 6 15 8 30 6 33 -3 2 1 11 9 19 8 8 15 27 15 42 0 32 22 56 45
48 8 -4 17 -2 20 3 3 4 0 10 -7 12 -6 2 -8 10 -4 16 5 9 13 9 26 2 10 -5 28
-10 40 -10z m-370 0 c0 -5 -4 -10 -10 -10 -5 0 -10 5 -10 10 0 6 5 10 10 10 6
0 10 -4 10 -10z m1120 -98 c0 -27 -22 -5 -36 33 l-13 39 24 -29 c13 -17 24
-36 25 -43z m-1046 32 c4 -10 1 -14 -6 -12 -15 5 -23 28 -10 28 5 0 13 -7 16
-16z m1071 -4 c3 -5 1 -10 -4 -10 -6 0 -11 5 -11 10 0 6 2 10 4 10 3 0 8 -4
11 -10z m-1088 -46 c-9 -9 -28 6 -21 18 4 6 10 6 17 -1 6 -6 8 -13 4 -17z
m1281 -23 c3 -8 -1 -12 -9 -9 -7 2 -15 10 -17 17 -3 8 1 12 9 9 7 -2 15 -10
17 -17z m-1160 -23 c7 -7 12 -15 12 -20 0 -12 -28 2 -34 18 -7 17 6 18 22 2z
m1047 2 c3 -5 -1 -10 -9 -10 -9 0 -16 5 -16 10 0 6 4 10 9 10 6 0 13 -4 16
-10z m120 -17 c3 -9 3 -18 1 -20 -5 -6 -55 29 -56 38 0 13 49 -4 55 -18z
m-1214 10 c0 -5 2 -18 3 -30 4 -35 -21 -27 -26 7 -3 20 0 30 9 30 7 0 13 -3
14 -7z m997 -48 c-3 -3 -9 2 -12 12 -6 14 -5 15 5 6 7 -7 10 -15 7 -18z m172
10 c0 -8 -4 -15 -10 -15 -5 0 -10 7 -10 15 0 8 5 15 10 15 6 0 10 -7 10 -15z
m96 -36 c9 -16 -12 -33 -31 -25 -14 5 -15 9 -5 21 15 18 26 19 36 4z m-1207
-8 c23 -15 -2 -19 -29 -5 -22 12 -22 14 -5 14 11 0 26 -4 34 -9z m951 -17 c0
-18 -13 -39 -41 -65 -23 -22 -45 -39 -50 -39 -5 0 11 19 36 43 26 26 45 53 45
65 0 12 2 22 5 22 3 0 5 -12 5 -26z m-1030 -4 c0 -5 -7 -10 -16 -10 -8 0 -12
5 -9 10 3 6 10 10 16 10 5 0 9 -4 9 -10z m1342 -54 c18 -34 -12 -13 -34 24
l-22 35 23 -20 c13 -11 27 -28 33 -39z m206 35 c3 -8 -1 -12 -9 -9 -7 2 -15
10 -17 17 -3 8 1 12 9 9 7 -2 15 -10 17 -17z m92 -37 c0 -17 -22 -14 -28 4 -2
7 3 12 12 12 9 0 16 -7 16 -16z m-66 -10 c3 -8 2 -12 -4 -9 -6 3 -10 10 -10
16 0 14 7 11 14 -7z m-334 -4 c0 -5 -4 -10 -10 -10 -5 0 -10 5 -10 10 0 6 5
10 10 10 6 0 10 -4 10 -10z m140 -41 c0 -6 -4 -7 -10 -4 -5 3 -10 11 -10 16 0
6 5 7 10 4 6 -3 10 -11 10 -16z m230 -18 c-1 -13 -3 -13 -15 3 -19 26 -19 42
0 26 8 -7 15 -20 15 -29z m-732 5 c-10 -7 -18 -25 -18 -39 0 -24 -23 -42 -41
-31 -5 3 -9 0 -9 -5 0 -6 -7 -11 -15 -11 -8 0 -15 4 -15 8 0 10 59 66 85 80
27 15 34 14 13 -2z m-1728 -16 c0 -5 -4 -10 -10 -10 -5 0 -10 5 -10 10 0 6 5
10 10 10 6 0 10 -4 10 -10z m2324 -80 c43 -45 76 -84 72 -87 -7 -7 -126 112
-126 127 0 5 -9 10 -19 10 -21 0 -34 13 -24 24 12 11 19 6 97 -74z m-2134 20
c0 -5 -2 -10 -4 -10 -3 0 -8 5 -11 10 -3 6 -1 10 4 10 6 0 11 -4 11 -10z
m1625 0 c3 -5 -1 -10 -9 -10 -9 0 -16 5 -16 10 0 6 4 10 9 10 6 0 13 -4 16
-10z m-1530 -40 c3 -6 -1 -7 -9 -4 -18 7 -21 14 -7 14 6 0 13 -4 16 -10z
m1339 -5 c4 -10 -1 -15 -14 -15 -20 0 -26 11 -13 23 10 11 20 8 27 -8z m-1089
-15 c3 -5 -1 -10 -9 -10 -8 0 -18 5 -21 10 -3 6 1 10 9 10 8 0 18 -4 21 -10z
m1265 0 c0 -5 -4 -10 -9 -10 -6 0 -13 5 -16 10 -3 6 1 10 9 10 9 0 16 -4 16
-10z m678 -8 c2 -7 -3 -12 -12 -12 -9 0 -16 7 -16 16 0 17 22 14 28 -4z
m-2323 -22 c3 -5 -1 -10 -9 -10 -9 0 -16 5 -16 10 0 6 4 10 9 10 6 0 13 -4 16
-10z m563 -24 c9 -17 10 -31 4 -39 -14 -18 -22 -86 -11 -93 6 -3 8 -17 4 -31
-9 -38 5 -110 26 -134 11 -13 17 -30 14 -40 -4 -10 -1 -36 6 -58 9 -31 9 -45
-2 -69 -13 -30 -29 -34 -29 -6 0 8 7 14 15 14 18 0 18 13 1 59 -11 30 -13 32
-20 15 -4 -10 -10 -37 -12 -59 -3 -22 -10 -67 -17 -100 -9 -51 -14 -121 -17
-222 0 -13 -4 -23 -9 -23 -5 0 -9 6 -8 13 1 47 -4 77 -15 75 -7 -2 -13 6 -13
17 0 11 6 19 13 17 8 -1 12 11 11 41 -1 24 1 49 5 55 4 6 15 70 26 141 18 126
16 218 -7 271 -9 21 -10 120 -1 120 5 0 6 16 3 36 -5 42 13 42 33 0z m982 24
c0 -5 -4 -10 -9 -10 -6 0 -13 5 -16 10 -3 6 1 10 9 10 9 0 16 -4 16 -10z
m-1080 -16 c0 -8 -4 -12 -10 -9 -5 3 -10 10 -10 16 0 5 5 9 10 9 6 0 10 -7 10
-16z m945 -14 c-3 -10 -1 -29 5 -40 15 -28 9 -33 -18 -15 -20 15 -20 16 -4 45
20 35 26 38 17 10z m213 -9 c3 -8 -1 -12 -9 -9 -7 2 -15 10 -17 17 -3 8 1 12
9 9 7 -2 15 -10 17 -17z m647 -9 c-3 -3 -11 0 -18 7 -9 10 -8 11 6 5 10 -3 15
-9 12 -12z m-225 -2 c0 -5 -2 -10 -4 -10 -3 0 -8 5 -11 10 -3 6 -1 10 4 10 6
0 11 -4 11 -10z m178 -8 c6 -18 -15 -14 -22 4 -4 10 -1 14 6 12 6 -2 14 -10
16 -16z m-703 -2 c-3 -5 -10 -10 -16 -10 -5 0 -9 5 -9 10 0 6 7 10 16 10 8 0
12 -4 9 -10z m-1665 -4 c0 -3 -4 -8 -10 -11 -5 -3 -10 -1 -10 4 0 6 5 11 10
11 6 0 10 -2 10 -4z m450 -28 c0 -13 -23 -5 -28 10 -2 7 2 10 12 6 9 -3 16
-11 16 -16z m360 6 c0 -8 -4 -12 -10 -9 -5 3 -10 10 -10 16 0 5 5 9 10 9 6 0
10 -7 10 -16z m-53 -9 c9 -24 -1 -27 -15 -5 -8 13 -8 20 -2 20 6 0 13 -7 17
-15z m-357 -15 c7 -13 7 -20 1 -20 -6 0 -15 9 -21 20 -7 13 -7 20 -1 20 6 0
15 -9 21 -20z m140 -22 c0 -14 -18 -9 -24 8 -11 28 -6 39 9 20 8 -11 15 -23
15 -28z m1198 19 c2 -12 -1 -15 -12 -11 -19 7 -22 38 -3 32 6 -3 13 -12 15
-21z m-613 2 c11 -17 -1 -21 -15 -4 -8 9 -8 15 -2 15 6 0 14 -5 17 -11z m515
-20 c0 -5 -4 -9 -10 -9 -5 0 -10 7 -10 16 0 8 5 12 10 9 6 -3 10 -10 10 -16z
m530 6 c0 -8 -4 -15 -10 -15 -5 0 -10 7 -10 15 0 8 5 15 10 15 6 0 10 -7 10
-15z m-1279 -21 c12 -14 11 -16 -5 -13 -11 2 -21 10 -24 17 -5 17 13 15 29 -4z
m-841 -8 c0 -3 -4 -8 -10 -11 -5 -3 -10 -1 -10 4 0 6 5 11 10 11 6 0 10 -2 10
-4z m116 -33 c-11 -11 -17 4 -9 23 7 18 8 18 11 1 2 -10 1 -21 -2 -24z m294
-20 c0 -13 81 -95 88 -89 3 4 5 29 3 56 -1 28 2 50 7 50 14 0 22 -26 12 -36
-12 -13 20 -195 37 -212 9 -9 11 -18 5 -24 -10 -10 -3 -52 17 -102 12 -31 9
-42 -9 -31 -13 8 -60 111 -60 131 0 8 -5 13 -12 11 -6 -1 -14 6 -16 16 -2 11
3 17 13 17 13 0 15 3 7 13 -6 7 -9 23 -5 35 3 13 1 22 -6 22 -6 0 -11 11 -11
25 0 14 -4 25 -9 25 -4 0 -27 27 -49 59 -46 65 -69 113 -34 69 12 -14 22 -30
22 -35z m677 42 c3 -9 3 -19 -1 -22 -7 -7 -36 16 -36 28 0 15 30 10 37 -6z
m511 -16 c21 -33 8 -32 -16 1 -12 16 -16 27 -9 25 7 -3 18 -15 25 -26z m-448
-21 c24 -40 93 -118 105 -118 6 0 23 -14 38 -31 28 -32 34 -45 17 -34 -12 8
-13 -5 -1 -23 6 -10 10 -8 14 9 9 32 29 11 32 -33 2 -18 22 -66 44 -107 23
-41 41 -77 41 -80 0 -3 23 -51 50 -106 28 -55 69 -143 92 -195 22 -52 48 -113
58 -135 30 -67 100 -281 100 -306 0 -34 15 -56 23 -35 7 17 -19 126 -34 141
-5 5 -9 18 -9 29 0 22 -21 86 -51 153 -11 24 -19 46 -19 50 0 16 -76 201 -93
226 -19 30 -23 52 -6 41 8 -5 8 -1 0 14 -6 12 -16 24 -21 27 -6 3 -10 15 -10
26 0 14 7 19 26 19 16 0 24 -5 21 -12 -2 -7 -12 -12 -21 -12 -23 2 -20 -17 4
-23 14 -4 20 -14 20 -34 0 -33 34 -74 52 -63 9 6 8 9 -2 12 -19 6 -30 23 -23
35 2 4 11 3 18 -3 8 -7 19 -9 24 -6 5 4 12 2 16 -4 3 -5 0 -10 -7 -11 -7 0 -4
-4 7 -8 20 -8 38 5 28 22 -3 4 3 15 13 22 17 13 17 14 3 15 -9 0 -19 7 -23 15
-9 24 -24 17 -28 -12 -4 -36 -22 -39 -37 -7 -10 22 -9 29 1 35 13 9 27 12 41
10 12 -2 8 11 -10 31 -12 13 -13 22 -6 29 8 8 15 4 26 -12 14 -19 19 -20 32
-9 26 22 40 -3 39 -70 -1 -41 3 -60 12 -60 17 0 27 -32 12 -42 -7 -4 -22 -8
-33 -9 -15 0 -13 -3 8 -9 39 -12 56 -27 56 -53 3 -65 0 -80 -15 -92 -11 -7
-15 -19 -11 -29 8 -21 29 -11 25 11 -2 9 3 18 10 21 7 2 12 -2 11 -9 -1 -8 1
-22 6 -32 10 -23 -3 -36 -15 -17 -8 13 -10 12 -10 -2 0 -9 9 -20 21 -23 17 -6
20 -12 15 -38 -3 -18 -2 -45 3 -62 5 -16 10 -26 10 -21 1 5 8 3 16 -4 14 -11
14 -15 0 -29 -13 -15 -13 -21 5 -53 23 -44 38 -114 21 -104 -7 5 -11 -3 -11
-23 0 -16 5 -33 10 -36 14 -8 13 -45 -1 -45 -7 0 -9 -10 -5 -24 7 -30 -12 -76
-29 -70 -7 3 -10 15 -7 30 3 17 0 24 -12 24 -12 0 -16 -9 -16 -36 0 -65 -17
-26 -24 56 -11 116 -27 111 -19 -7 3 -54 3 -95 -1 -92 -10 10 -36 109 -36 141
0 15 -7 31 -17 36 -12 7 -14 18 -10 40 7 36 -12 89 -42 116 -13 12 -19 26 -15
38 7 24 -4 58 -20 58 -7 0 -17 9 -22 21 -9 19 -11 20 -23 5 -11 -14 -11 -16 4
-16 12 0 16 -6 12 -19 -3 -12 1 -22 10 -25 11 -5 13 -14 8 -34 -4 -15 -8 -89
-10 -164 -2 -75 -6 -142 -10 -147 -3 -7 0 -8 9 -5 11 4 16 0 16 -15 0 -12 -4
-21 -10 -21 -5 0 -10 5 -10 11 0 5 -5 7 -10 4 -6 -4 -10 -14 -9 -23 1 -10 -1
-25 -6 -35 -7 -17 -8 -17 -20 0 -8 10 -11 32 -9 48 4 28 4 29 -7 8 -11 -22
-13 -20 -36 29 -22 48 -24 50 -41 34 -17 -15 -19 -14 -33 11 -8 16 -29 43 -46
61 -18 18 -33 36 -33 40 0 10 -61 47 -78 47 -7 0 -17 7 -22 15 -8 13 -10 12
-10 -3 0 -33 -32 -14 -71 42 -31 45 -36 58 -28 79 5 13 7 33 4 43 -4 13 -1 19
9 19 8 0 18 5 21 11 4 6 0 9 -11 7 -12 -2 -19 3 -19 12 0 8 -6 19 -12 23 -7 4
-13 16 -13 25 0 10 6 24 13 32 10 12 9 12 -3 3 -13 -10 -18 -8 -28 8 -7 10
-19 19 -27 19 -19 0 -20 34 -1 49 14 12 11 57 -6 78 -5 7 -7 21 -3 33 5 15 2
20 -10 20 -15 0 -16 7 -11 45 5 30 4 45 -4 45 -6 0 -8 10 -4 24 4 17 1 27 -11
33 -9 6 -16 13 -16 16 3 20 -1 25 -19 30 -14 3 -20 14 -21 34 -2 43 -3 46 -22
75 -10 15 -16 32 -12 38 3 5 0 10 -7 10 -15 1 -67 68 -93 120 -10 19 -24 39
-31 43 -8 4 -14 18 -14 29 0 24 13 16 34 -20 53 -91 139 -184 148 -159 7 18
-15 62 -31 62 -20 0 -25 21 -6 28 10 5 21 -5 35 -33 11 -22 20 -47 20 -56 0
-11 5 -14 17 -10 9 4 20 1 25 -6 12 -20 10 -28 -8 -28 -9 0 -14 -6 -12 -12 3
-7 13 -36 23 -65 10 -29 23 -49 28 -46 5 3 13 -1 18 -8 13 -20 11 -29 -6 -29
-17 0 -17 -2 -9 -23 6 -17 43 -15 119 6 22 6 42 11 45 12 31 5 61 57 40 70
-15 9 -2 25 15 18 9 -3 15 -19 15 -40 0 -35 1 -36 34 -30 33 5 34 4 41 -31 7
-43 26 -103 37 -117 4 -6 10 -31 14 -55 9 -58 26 -76 41 -44 6 13 8 24 5 24
-9 0 -32 50 -32 67 0 7 7 13 15 13 24 0 17 30 -9 39 -13 5 -27 18 -31 28 -17
42 -23 73 -14 73 5 0 11 -11 15 -25 3 -14 11 -25 16 -25 6 0 7 7 4 16 -3 9 -6
22 -6 30 0 8 -11 19 -25 24 -14 5 -30 22 -35 37 -20 53 -35 75 -58 84 -19 7
-23 15 -18 32 3 15 -5 37 -24 67 -46 70 -48 73 -62 108 -7 17 -16 32 -20 32
-5 0 -8 6 -8 13 0 8 -9 22 -20 32 -17 16 -50 70 -50 82 0 13 26 -7 40 -29z
m511 19 c-1 -12 -15 -9 -19 4 -3 6 1 10 8 8 6 -3 11 -8 11 -12z m537 -6 c3 -8
-1 -12 -9 -9 -7 2 -15 10 -17 17 -3 8 1 12 9 9 7 -2 15 -10 17 -17z m182 -12
c0 -22 -13 -25 -29 -6 -8 10 -7 17 1 25 15 15 28 6 28 -19z m-2450 11 c0 -5
-4 -10 -10 -10 -5 0 -10 5 -10 10 0 6 5 10 10 10 6 0 10 -4 10 -10z m924 -6
c4 -9 4 -19 2 -21 -8 -8 -26 8 -26 23 0 19 16 18 24 -2z m-95 -24 c11 -24 11
-24 -3 -6 -9 11 -16 24 -16 30 0 12 5 7 19 -24z m441 15 c0 -8 -4 -15 -10 -15
-5 0 -10 7 -10 15 0 8 5 15 10 15 6 0 10 -7 10 -15z m291 5 c26 -14 24 -55 -3
-74 -19 -13 -25 -14 -43 -2 -24 16 -31 51 -15 72 15 17 34 18 61 4z m-1443
-39 c6 -18 -11 -12 -43 14 l-30 25 35 -14 c19 -8 36 -19 38 -25z m192 23 c0
-8 -4 -12 -10 -9 -5 3 -10 10 -10 16 0 5 5 9 10 9 6 0 10 -7 10 -16z m686 -6
c4 -6 7 -30 5 -53 -1 -29 4 -48 19 -65 24 -27 25 -40 5 -40 -17 0 -55 70 -55
102 0 13 1 33 1 46 0 24 13 29 25 10z m714 -35 c0 -20 -16 -8 -23 17 -4 17 -3
19 9 9 8 -6 14 -18 14 -26z m103 22 c7 -16 -8 -29 -23 -20 -15 9 -12 35 4 35
8 0 16 -7 19 -15z m435 -29 c3 -12 -1 -17 -10 -14 -7 3 -15 13 -16 22 -3 12 1
17 10 14 7 -3 15 -13 16 -22z m-2021 -18 c-3 -7 -5 -2 -5 12 0 14 2 19 5 13 2
-7 2 -19 0 -25z m1127 16 c4 -10 1 -14 -6 -12 -15 5 -23 28 -10 28 5 0 13 -7
16 -16z m1061 -14 c3 -5 1 -10 -4 -10 -6 0 -11 5 -11 10 0 6 2 10 4 10 3 0 8
-4 11 -10z m-1371 -16 c4 -10 1 -14 -6 -12 -15 5 -23 28 -10 28 5 0 13 -7 16
-16z m776 6 c0 -5 -2 -10 -4 -10 -3 0 -8 5 -11 10 -3 6 -1 10 4 10 6 0 11 -4
11 -10z m-1465 -18 c0 -18 -20 -15 -23 4 -3 10 1 15 10 12 7 -3 13 -10 13 -16z
m1165 -3 c0 -6 -4 -7 -10 -4 -5 3 -10 11 -10 16 0 6 5 7 10 4 6 -3 10 -11 10
-16z m270 5 c0 -9 -5 -14 -12 -12 -18 6 -21 28 -4 28 9 0 16 -7 16 -16z m530
-20 c0 -9 -5 -14 -12 -12 -18 6 -21 28 -4 28 9 0 16 -7 16 -16z m-2037 -8 c16
-13 16 -14 1 -20 -10 -4 -21 -1 -26 6 -18 29 -5 36 25 14z m1937 -12 c0 -16
-16 -19 -25 -4 -8 13 4 32 16 25 5 -4 9 -13 9 -21z m-2075 6 c3 -5 1 -10 -4
-10 -6 0 -11 5 -11 10 0 6 2 10 4 10 3 0 8 -4 11 -10z m1455 -10 c0 -5 -2 -10
-4 -10 -3 0 -8 5 -11 10 -3 6 -1 10 4 10 6 0 11 -4 11 -10z m-470 -21 c0 -6
-4 -7 -10 -4 -5 3 -10 11 -10 16 0 6 5 7 10 4 6 -3 10 -11 10 -16z m620 -5 c0
-8 -4 -12 -10 -9 -5 3 -10 13 -10 21 0 8 5 12 10 9 6 -3 10 -13 10 -21z m-56
-20 c7 -19 -2 -37 -15 -29 -12 8 -12 45 0 45 5 0 12 -7 15 -16z m594 -8 c3
-12 -1 -17 -10 -14 -7 3 -15 13 -16 22 -3 12 1 17 10 14 7 -3 15 -13 16 -22z
m-1798 -116 c0 -10 9 -20 21 -23 13 -4 19 -12 18 -24 -4 -26 10 -75 28 -95 13
-15 13 -16 -5 -11 -12 3 -25 20 -32 44 -12 35 -43 67 -61 62 -3 -1 -5 16 -4
38 2 35 -3 44 -41 81 -24 23 -41 45 -38 49 7 13 114 -101 114 -121z m638 96
c3 -12 -1 -17 -10 -14 -7 3 -15 13 -16 22 -3 12 1 17 10 14 7 -3 15 -13 16
-22z m-1031 -12 c-9 -9 -28 6 -21 18 4 6 10 6 17 -1 6 -6 8 -13 4 -17z m125
-6 c-9 -9 -12 -7 -12 12 0 19 3 21 12 12 9 -9 9 -15 0 -24z m136 3 c3 -16 -1
-22 -10 -19 -7 3 -15 15 -16 27 -3 16 1 22 10 19 7 -3 15 -15 16 -27z m1232 4
c7 -9 10 -18 7 -21 -10 -11 -37 5 -37 21 0 19 14 19 30 0z m-369 -75 c12 -21
30 -40 39 -43 12 -3 18 -13 17 -31 -1 -14 -6 -26 -10 -26 -4 0 -3 -9 3 -19 16
-31 13 -43 -8 -32 -10 5 -23 31 -30 58 -7 27 -20 62 -28 79 -9 16 -20 40 -25
53 -8 21 -8 22 6 11 8 -7 25 -30 36 -50z m561 31 c8 -23 7 -23 -14 -9 -28 19
-36 41 -13 36 10 -1 22 -14 27 -27z m-109 -15 c3 -8 3 -17 0 -20 -7 -7 -33 13
-33 25 0 15 27 10 33 -5z m342 4 c3 -5 1 -10 -4 -10 -6 0 -11 5 -11 10 0 6 2
10 4 10 3 0 8 -4 11 -10z m245 -6 c0 -9 -5 -14 -12 -12 -18 6 -21 28 -4 28 9
0 16 -7 16 -16z m-2085 -12 c0 -18 -20 -15 -23 4 -3 10 1 15 10 12 7 -3 13
-10 13 -16z m616 6 c1 -7 3 -22 3 -33 5 -64 20 -124 32 -129 8 -3 14 -15 14
-26 0 -11 4 -20 9 -20 5 0 8 -7 7 -15 -1 -9 -5 -14 -8 -13 -3 2 -12 -3 -21
-10 -14 -12 -20 -9 -46 20 -39 42 -48 68 -29 82 8 6 13 17 10 24 -2 7 0 18 6
25 5 7 8 33 7 60 -1 26 2 47 7 47 4 0 9 -6 9 -12z m949 -4 c0 -8 -4 -12 -10
-9 -5 3 -10 10 -10 16 0 5 5 9 10 9 6 0 10 -7 10 -16z m-1700 -4 c0 -5 -2 -10
-4 -10 -3 0 -8 5 -11 10 -3 6 -1 10 4 10 6 0 11 -4 11 -10z m266 -1 c3 -6 1
-16 -5 -22 -9 -9 -14 -8 -21 3 -9 15 -4 30 10 30 5 0 12 -5 16 -11z m122 -17
c2 -15 -2 -22 -12 -22 -11 0 -16 9 -16 26 0 31 23 28 28 -4z m1372 -8 c0 -8
-4 -12 -10 -9 -5 3 -10 13 -10 21 0 8 5 12 10 9 6 -3 10 -13 10 -21z m-240 -5
c0 -5 -4 -9 -10 -9 -5 0 -10 7 -10 16 0 8 5 12 10 9 6 -3 10 -10 10 -16z
m-565 -9 c3 -5 3 -15 -1 -21 -6 -11 -23 6 -24 24 0 10 18 9 25 -3z m765 -9 c5
-11 10 -30 10 -43 -1 -21 -2 -22 -14 -5 -8 10 -20 15 -30 11 -9 -3 -16 -1 -16
6 0 6 5 8 10 5 7 -4 9 2 4 19 -5 20 -2 26 10 26 8 0 20 -9 26 -19z m67 -91 l6
-25 -20 25 c-16 21 -23 68 -13 90 2 5 15 -38 27 -90z m-1704 66 c6 -16 -2 -28
-14 -20 -12 7 -11 34 0 34 5 0 11 -6 14 -14z m134 -1 c8 -22 -6 -33 -17 -15
-13 20 -12 30 0 30 6 0 13 -7 17 -15z m133 -21 c0 -18 -14 -18 -30 1 -16 19
-3 40 16 24 8 -6 14 -18 14 -25z m1268 13 c2 -10 -3 -17 -12 -17 -18 0 -29 16
-21 31 9 14 29 6 33 -14z m-1668 -2 c0 -8 -2 -15 -4 -15 -2 0 -6 7 -10 15 -3
8 -1 15 4 15 6 0 10 -7 10 -15z m2422 -10 c0 -5 -5 -11 -11 -13 -6 -2 -11 4
-11 13 0 9 5 15 11 13 6 -2 11 -8 11 -13z m-822 -25 c0 -5 -2 -10 -4 -10 -3 0
-8 5 -11 10 -3 6 -1 10 4 10 6 0 11 -4 11 -10z m480 0 c0 -5 -2 -10 -4 -10 -3
0 -8 5 -11 10 -3 6 -1 10 4 10 6 0 11 -4 11 -10z m-1868 -62 c-13 -13 -26 8
-17 30 6 16 7 16 17 -1 7 -13 7 -22 0 -29z m138 6 c0 -8 -6 -14 -14 -14 -16 0
-29 27 -20 41 8 13 34 -9 34 -27z m-270 11 c0 -8 -2 -15 -4 -15 -2 0 -6 7 -10
15 -3 8 -1 15 4 15 6 0 10 -7 10 -15z m69 -44 c9 -6 10 -11 2 -15 -13 -8 -31
1 -31 15 0 11 11 11 29 0z m771 -21 c0 -5 -4 -10 -10 -10 -5 0 -10 5 -10 10 0
6 5 10 10 10 6 0 10 -4 10 -10z m160 -10 c0 -5 -4 -10 -10 -10 -5 0 -10 5 -10
10 0 6 5 10 10 10 6 0 10 -4 10 -10z m800 -41 c0 -5 -4 -9 -10 -9 -5 0 -10 7
-10 16 0 8 5 12 10 9 6 -3 10 -10 10 -16z m-1633 -4 c3 -9 3 -19 -1 -22 -7 -7
-36 16 -36 28 0 15 30 10 37 -6z m127 -2 c8 -19 -8 -38 -23 -29 -16 10 -13 46
3 46 8 0 17 -8 20 -17z m-44 -79 c0 -8 -4 -12 -10 -9 -5 3 -10 10 -10 16 0 5
5 9 10 9 6 0 10 -7 10 -16z m370 -15 c0 -5 -4 -9 -10 -9 -5 0 -10 7 -10 16 0
8 5 12 10 9 6 -3 10 -10 10 -16z m400 -35 c0 -16 -16 -19 -25 -4 -8 13 4 32
16 25 5 -4 9 -13 9 -21z m-905 6 c11 -17 -5 -32 -21 -19 -8 6 -14 15 -14 20 0
12 27 11 35 -1z m-45 -100 c0 -5 -4 -10 -10 -10 -5 0 -10 5 -10 10 0 6 5 10
10 10 6 0 10 -4 10 -10z m-130 -20 c0 -5 -2 -10 -4 -10 -3 0 -8 5 -11 10 -3 6
-1 10 4 10 6 0 11 -4 11 -10z m220 -50 c0 -11 -2 -20 -4 -20 -2 0 -6 9 -9 20
-3 11 -1 20 4 20 5 0 9 -9 9 -20z m-124 -28 c-9 -9 -37 8 -31 18 5 8 11 7 21
-1 8 -6 12 -14 10 -17z m994 7 c0 -6 -4 -7 -10 -4 -5 3 -10 11 -10 16 0 6 5 7
10 4 6 -3 10 -11 10 -16z m1020 -30 c0 -6 -4 -7 -10 -4 -5 3 -10 11 -10 16 0
6 5 7 10 4 6 -3 10 -11 10 -16z m-1923 -54 c-4 -8 4 -16 19 -19 27 -7 34 -29
7 -24 -26 5 -67 69 -51 79 15 10 32 -16 25 -36z m131 22 c2 -10 -3 -17 -12
-17 -10 0 -16 9 -16 21 0 24 23 21 28 -4z m1773 -20 c-17 -17 -34 12 -19 31
10 11 13 10 21 -3 6 -11 5 -21 -2 -28z m-931 8 c0 -14 -4 -25 -10 -25 -11 0
-14 33 -3 43 11 11 13 8 13 -18z m-885 -55 c3 -5 -1 -10 -10 -10 -9 0 -13 5
-10 10 3 6 8 10 10 10 2 0 7 -4 10 -10z m-51 -26 c16 -6 23 -44 8 -44 -12 0
-32 23 -32 37 0 15 2 15 24 7z m-224 -34 c0 -5 -4 -10 -9 -10 -6 0 -13 5 -16
10 -3 6 1 10 9 10 9 0 16 -4 16 -10z m1720 -26 c0 -16 -16 -19 -25 -4 -8 13 4
32 16 25 5 -4 9 -13 9 -21z m-1612 -13 c3 -8 -1 -12 -9 -9 -7 2 -15 10 -17 17
-3 8 1 12 9 9 7 -2 15 -10 17 -17z m1998 -17 c-5 -13 -10 -14 -18 -6 -6 6 -8
18 -4 28 5 13 10 14 18 6 6 -6 8 -18 4 -28z m-2221 -14 c3 -5 1 -10 -4 -10 -6
0 -11 5 -11 10 0 6 2 10 4 10 3 0 8 -4 11 -10z m339 -30 c-14 -14 -39 14 -29
31 5 8 12 6 23 -5 11 -11 13 -19 6 -26z m-234 -6 c0 -8 -4 -12 -10 -9 -5 3
-10 10 -10 16 0 5 5 9 10 9 6 0 10 -7 10 -16z m1368 -11 c-4 -22 -22 -20 -26
1 -2 10 3 16 13 16 10 0 15 -7 13 -17z m-1028 -23 c0 -11 -7 -20 -15 -20 -8 0
-15 2 -15 4 0 2 -3 11 -6 20 -4 12 0 16 15 16 14 0 21 -6 21 -20z m910 5 c0
-8 -4 -15 -10 -15 -5 0 -10 7 -10 15 0 8 5 15 10 15 6 0 10 -7 10 -15z m-1540
-5 c0 -5 -2 -10 -4 -10 -3 0 -8 5 -11 10 -3 6 -1 10 4 10 6 0 11 -4 11 -10z
m398 -8 c2 -7 -2 -10 -12 -6 -9 3 -16 11 -16 16 0 13 23 5 28 -10z m106 -28
c8 -22 8 -24 -8 -24 -18 0 -29 16 -21 30 9 15 22 12 29 -6z m2096 1 c-33 -19
-49 -19 -24 0 10 8 26 14 34 14 9 0 4 -6 -10 -14z m-877 -1 c3 -4 2 -16 -4
-26 -13 -24 -35 -9 -26 16 7 17 19 21 30 10z m-118 -34 c0 -7 -6 -15 -12 -17
-8 -3 -13 4 -13 17 0 13 5 20 13 18 6 -3 12 -11 12 -18z m-1671 -16 c3 -8 2
-12 -4 -9 -6 3 -10 10 -10 16 0 14 7 11 14 -7z m670 10 c9 -3 16 -13 16 -21 0
-20 -34 -12 -38 10 -4 19 -1 20 22 11z m876 -4 c0 -5 -2 -10 -4 -10 -3 0 -8 5
-11 10 -3 6 -1 10 4 10 6 0 11 -4 11 -10z m-1105 -20 c3 -5 1 -10 -4 -10 -6 0
-11 5 -11 10 0 6 2 10 4 10 3 0 8 -4 11 -10z m1413 -17 c-5 -25 -28 -28 -28
-4 0 12 6 21 16 21 9 0 14 -7 12 -17z m59 -17 c-7 -18 -43 -14 -39 5 5 19 25
30 36 19 5 -5 6 -15 3 -24z m-1357 -11 c0 -8 -7 -15 -15 -15 -8 0 -15 7 -15
15 0 8 7 15 15 15 8 0 15 -7 15 -15z m1180 0 c0 -8 -4 -15 -9 -15 -13 0 -22
16 -14 24 11 11 23 6 23 -9z m-240 -15 c0 -5 -2 -10 -4 -10 -3 0 -8 5 -11 10
-3 6 -1 10 4 10 6 0 11 -4 11 -10z m-845 -20 c3 -5 1 -10 -4 -10 -6 0 -11 5
-11 10 0 6 2 10 4 10 3 0 8 -4 11 -10z m1265 -10 c0 -11 -7 -20 -15 -20 -15 0
-21 21 -8 33 12 13 23 7 23 -13z m-120 -25 c0 -8 -4 -15 -10 -15 -5 0 -10 7
-10 15 0 8 5 15 10 15 6 0 10 -7 10 -15z m-123 -27 c-3 -8 -6 -5 -6 6 -1 11 2
17 5 13 3 -3 4 -12 1 -19z m349 -5 c-10 -10 -19 5 -10 18 6 11 8 11 12 0 2 -7
1 -15 -2 -18z m-56 -13 c0 -5 -4 -10 -10 -10 -5 0 -10 5 -10 10 0 6 5 10 10
10 6 0 10 -4 10 -10z m-1350 -16 c0 -9 -5 -14 -12 -12 -18 6 -21 28 -4 28 9 0
16 -7 16 -16z m100 -54 c0 -11 -4 -20 -9 -20 -14 0 -23 18 -16 30 10 17 25 11
25 -10z m-235 -10 c3 -5 1 -10 -4 -10 -6 0 -11 5 -11 10 0 6 2 10 4 10 3 0 8
-4 11 -10z m329 -19 c9 -15 -23 -36 -36 -23 -5 5 -7 15 -4 21 9 13 33 14 40 2z
m2056 -17 c0 -8 -4 -12 -10 -9 -5 3 -10 10 -10 16 0 5 5 9 10 9 6 0 10 -7 10
-16z m-2925 -4 c3 -5 2 -10 -4 -10 -5 0 -13 5 -16 10 -3 6 -2 10 4 10 5 0 13
-4 16 -10z m285 -5 c0 -8 -2 -15 -4 -15 -2 0 -6 7 -10 15 -3 8 -1 15 4 15 6 0
10 -7 10 -15z m364 0 c3 -9 0 -15 -9 -15 -8 0 -15 7 -15 15 0 8 4 15 9 15 5 0
11 -7 15 -15z m2226 -31 c0 -8 -4 -14 -10 -14 -5 0 -10 9 -10 21 0 11 5 17 10
14 6 -3 10 -13 10 -21z m-2745 -14 c3 -5 1 -10 -4 -10 -6 0 -11 5 -11 10 0 6
2 10 4 10 3 0 8 -4 11 -10z m652 -36 c-9 -9 -28 6 -21 18 4 6 10 6 17 -1 6 -6
8 -13 4 -17z m458 -22 c-20 -46 -23 -49 -31 -27 -5 11 -1 22 10 30 9 7 16 17
15 21 -3 18 1 25 11 19 6 -4 4 -20 -5 -43z m-1020 18 c3 -5 1 -10 -4 -10 -6 0
-11 5 -11 10 0 6 2 10 4 10 3 0 8 -4 11 -10z m130 -49 c-6 -5 -25 10 -25 20 0
5 6 4 14 -3 8 -7 12 -15 11 -17z m314 -30 c-16 -5 -33 15 -24 30 6 9 12 7 22
-7 9 -13 10 -20 2 -23z m-251 4 c-3 -3 -9 2 -12 12 -6 14 -5 15 5 6 7 -7 10
-15 7 -18z m714 -37 c-20 -35 -39 -65 -42 -68 -4 -3 -9 -13 -13 -23 -3 -9 -11
-17 -17 -17 -10 0 6 34 43 93 9 15 24 38 32 52 9 14 20 25 25 25 5 0 -7 -28
-28 -62z m73 -4 c2 -33 1 -53 -2 -46 -2 6 -11 12 -19 12 -8 0 -14 7 -14 15 0
8 4 15 9 15 5 0 12 7 15 16 5 14 4 15 -9 4 -13 -11 -15 -10 -10 4 3 9 7 23 10
32 9 28 16 10 20 -52z m-910 -24 c3 -5 2 -10 -4 -10 -5 0 -13 5 -16 10 -3 6
-2 10 4 10 5 0 13 -4 16 -10z m265 -15 c10 -12 10 -15 -4 -15 -9 0 -16 7 -16
15 0 8 2 15 4 15 2 0 9 -7 16 -15z m-315 -85 c3 -5 1 -10 -4 -10 -6 0 -11 5
-11 10 0 6 2 10 4 10 3 0 8 -4 11 -10z m225 -30 c0 -5 -2 -10 -4 -10 -3 0 -8
5 -11 10 -3 6 -1 10 4 10 6 0 11 -4 11 -10z"/>
<path d="M2170 1840 c6 -11 13 -20 16 -20 2 0 0 9 -6 20 -6 11 -13 20 -16 20
-2 0 0 -9 6 -20z"/>
<path d="M2409 1345 c-3 -20 3 -37 18 -54 21 -22 23 -48 3 -36 -10 6 -24 -13
-25 -37 -2 -27 25 -18 39 12 3 8 4 2 1 -13 -4 -21 -2 -28 7 -25 14 5 19 79 7
88 -5 3 -17 26 -27 50 -19 45 -20 45 -23 15z"/>
<path d="M2536 1331 c-3 -5 1 -11 9 -14 9 -4 12 -1 8 9 -6 16 -10 17 -17 5z"/>
<path d="M2656 1331 c-3 -5 1 -11 9 -14 9 -4 12 -1 8 9 -6 16 -10 17 -17 5z"/>
<path d="M2560 1293 c0 -4 5 -15 10 -23 8 -13 10 -13 10 2 0 9 -4 20 -10 23
-5 3 -10 3 -10 -2z"/>
<path d="M2297 1233 c-4 -3 -7 -11 -7 -17 0 -6 5 -5 12 2 6 6 9 14 7 17 -3 3
-9 2 -12 -2z"/>
<path d="M2010 1193 c0 -13 5 -23 10 -23 13 0 13 11 0 30 -8 12 -10 11 -10 -7z"/>
<path d="M2345 1190 c-8 -12 20 -66 38 -73 12 -5 13 0 4 26 -5 18 -11 38 -13
45 -4 14 -20 16 -29 2z"/>
<path d="M2239 1084 c-34 -39 -24 -186 11 -164 11 7 12 14 2 35 -17 37 -15 45
9 45 16 0 19 3 11 13 -6 7 -12 30 -14 51 -3 37 -4 37 -19 20z"/>
<path d="M2350 1077 c0 -3 14 -12 30 -21 26 -12 30 -12 30 0 0 8 -6 14 -14 14
-8 0 -21 3 -30 6 -9 3 -16 4 -16 1z"/>
<path d="M2300 1010 c0 -5 5 -10 11 -10 5 0 7 5 4 10 -3 6 -8 10 -11 10 -2 0
-4 -4 -4 -10z"/>
<path d="M2340 965 c1 -26 2 -28 11 -12 8 14 8 22 0 30 -8 8 -11 3 -11 -18z"/>
<path d="M2340 760 c0 -5 5 -10 10 -10 6 0 10 5 10 10 0 6 -4 10 -10 10 -5 0
-10 -4 -10 -10z"/>
<path d="M2371 1986 c-12 -15 -5 -46 11 -46 6 0 5 6 -2 15 -10 12 -9 16 4 21
9 3 16 10 16 15 0 13 -16 11 -29 -5z"/>
<path d="M2400 1954 c0 -8 5 -12 10 -9 6 3 10 10 10 16 0 5 -4 9 -10 9 -5 0
-10 -7 -10 -16z"/>
<path d="M1315 1680 c3 -5 8 -10 11 -10 2 0 4 5 4 10 0 6 -5 10 -11 10 -5 0
-7 -4 -4 -10z"/>
<path d="M1656 1491 c-3 -5 1 -11 9 -15 9 -3 15 0 15 9 0 16 -16 20 -24 6z"/>
<path d="M2510 4205 c-14 -8 -34 -14 -45 -15 -37 0 -100 -32 -123 -61 l-24
-30 44 7 c23 3 75 14 114 25 115 31 187 24 242 -25 21 -19 24 -19 39 -3 16 15
15 18 -1 36 -11 12 -47 27 -92 36 -40 9 -78 23 -85 31 -14 18 -37 17 -69 -1z"/>
<path d="M2930 4110 c0 -5 -7 -10 -15 -10 -8 0 -22 -14 -30 -31 l-16 -30 32
16 c26 14 33 14 40 4 13 -21 20 -5 13 29 -6 29 -24 46 -24 22z"/>
<path d="M2615 4000 c-11 -5 -40 -9 -65 -9 -51 -1 -76 -13 -65 -31 9 -14 106
-3 117 14 5 8 11 6 20 -5 7 -8 25 -20 41 -27 25 -11 27 -10 27 13 0 16 6 25
15 25 9 0 15 -9 15 -22 0 -27 24 -107 40 -137 6 -12 21 -21 35 -21 13 0 26 -3
28 -7 9 -17 -25 -73 -52 -88 -60 -30 -79 -91 -39 -119 31 -22 41 -20 34 8 -5
19 1 28 32 49 31 21 45 25 83 20 45 -5 46 -5 52 26 4 17 2 41 -3 54 -16 36
-50 90 -71 113 -10 11 -19 24 -19 29 0 4 -20 27 -45 51 -25 23 -45 46 -45 52
0 18 -99 27 -135 12z m45 -20 c0 -5 -4 -10 -10 -10 -5 0 -10 5 -10 10 0 6 5
10 10 10 6 0 10 -4 10 -10z"/>
<path d="M2898 3953 c-22 -5 -23 -17 -3 -37 8 -8 15 -19 15 -25 0 -5 5 -13 12
-17 8 -5 9 -2 5 9 -21 53 -21 52 -6 40 8 -7 20 -8 28 -4 10 6 9 12 -4 25 -17
17 -18 17 -47 9z"/>
<path d="M2832 3618 c-48 -13 -39 -40 17 -50 24 -4 49 -12 56 -18 17 -14 65 8
65 30 0 32 -80 54 -138 38z"/>
<path d="M2784 3543 c-5 -9 -23 -17 -39 -18 -46 -4 -63 -10 -83 -28 -11 -10
-26 -15 -36 -11 -12 5 -16 0 -17 -22 -1 -18 -3 -22 -6 -11 -5 19 -24 19 -30 0
-5 -15 48 -32 72 -22 19 7 19 8 1 8 -30 1 -9 16 25 17 26 2 28 0 17 -15 -9
-11 -6 -10 9 3 12 10 36 19 53 20 17 1 34 7 38 14 6 9 14 8 32 -5 13 -9 38
-18 54 -18 17 -1 38 -4 46 -6 9 -2 16 4 18 16 2 18 -2 21 -33 20 -37 -2 -50 8
-56 38 -2 10 -8 18 -14 19 -5 0 -17 4 -26 8 -10 6 -18 3 -25 -7z"/>
<path d="M2241 3474 c0 -11 3 -14 6 -6 3 7 2 16 -1 19 -3 4 -6 -2 -5 -13z"/>
<path d="M2351 3378 c1 -23 -6 -61 -15 -82 -24 -58 -11 -56 16 3 26 52 30 112
10 119 -8 2 -12 -10 -11 -40z"/>
<path d="M2560 3376 c0 -17 27 -29 32 -14 6 18 28 -1 28 -23 0 -11 7 -19 16
-19 11 0 15 6 11 19 -2 10 0 26 5 35 8 14 2 16 -42 16 -36 0 -50 -4 -50 -14z"/>
<path d="M2748 3383 c6 -2 18 -2 25 0 6 3 1 5 -13 5 -14 0 -19 -2 -12 -5z"/>
<path d="M2700 3310 c0 -5 5 -10 11 -10 5 0 7 5 4 10 -3 6 -8 10 -11 10 -2 0
-4 -4 -4 -10z"/>
<path d="M2365 3181 c-3 -5 -1 -12 5 -16 5 -3 10 1 10 9 0 18 -6 21 -15 7z"/>
<path d="M2866 3072 c-3 -6 1 -15 11 -20 11 -7 17 -23 17 -53 1 -23 6 -44 12
-46 7 -2 10 6 9 19 -1 13 -3 33 -4 44 -1 29 -36 71 -45 56z"/>
<path d="M3513 2236 c-1 -28 3 -35 22 -38 22 -5 23 -4 9 17 -8 12 -12 24 -9
27 3 3 0 10 -8 16 -10 9 -13 4 -14 -22z"/>
<path d="M3620 2172 c0 -5 10 -28 21 -52 33 -67 36 -145 9 -207 -12 -28 -35
-64 -51 -79 -29 -28 -29 -26 10 41 34 57 41 79 41 121 0 38 -4 53 -16 58 -22
9 -23 8 -17 -14 3 -11 1 -33 -5 -49 -7 -20 -7 -32 1 -40 8 -8 8 -11 -2 -11 -6
0 -18 -15 -26 -32 -8 -18 -34 -60 -59 -92 -47 -62 -50 -79 -23 -135 9 -19 9
-25 0 -28 -7 -2 -10 -10 -7 -17 13 -34 19 -311 8 -397 -5 -40 -8 -46 -25 -42
-10 3 -19 14 -19 24 0 20 -19 22 -32 4 -5 -6 -8 -3 -8 6 0 23 10 30 29 19 28
-14 39 2 42 62 3 49 1 58 -15 62 -23 6 -15 32 9 28 14 -3 16 1 10 15 -4 10
-11 34 -17 53 -5 19 -14 45 -20 57 -6 12 -8 31 -5 42 3 14 1 18 -9 14 -14 -5
-18 -15 -15 -45 1 -10 -2 -18 -7 -18 -16 0 -21 13 -12 31 13 24 -18 88 -42 86
-22 -2 -23 -16 -3 -53 24 -46 17 -86 -11 -63 -10 8 -10 3 -1 -26 8 -28 8 -38
-1 -44 -8 -5 -10 -19 -6 -38 5 -24 10 -30 25 -26 13 4 19 0 19 -11 0 -9 -5
-16 -11 -16 -6 0 -17 -6 -25 -14 -16 -16 -19 -40 -4 -31 9 5 6 -36 -5 -72 -3
-7 2 -33 9 -57 8 -25 11 -47 8 -50 -2 -3 0 -12 6 -19 6 -7 16 -37 22 -65 7
-29 17 -51 23 -49 7 1 12 -5 12 -13 0 -8 -6 -14 -14 -12 -9 2 -11 -3 -6 -15
18 -43 17 -61 -5 -76 -22 -15 -21 -16 26 -22 82 -10 88 -13 114 -52 14 -21 49
-64 78 -95 36 -41 52 -66 52 -85 0 -16 9 -60 20 -98 25 -87 25 -128 0 -184
-23 -49 -24 -55 -10 -46 6 4 19 24 31 46 51 100 226 105 358 9 54 -40 122
-128 144 -187 20 -55 88 -173 100 -173 15 0 6 28 -33 109 -46 95 -109 181
-177 241 -53 46 -83 64 -158 92 l-50 19 45 -6 c76 -10 147 -50 216 -120 54
-55 75 -88 129 -200 51 -106 69 -135 85 -135 28 0 25 15 -16 101 -76 153 -283
360 -363 363 -8 1 -16 6 -18 12 -12 35 173 -2 239 -48 14 -10 31 -18 37 -18
37 0 -33 74 -94 99 l-50 21 55 -5 c51 -5 54 -5 36 10 -11 8 -34 16 -50 16 -29
2 -29 2 -5 6 15 2 55 -3 89 -12 34 -9 64 -14 66 -12 6 6 -126 64 -164 72 -52
11 -27 25 44 25 83 0 145 -30 208 -102 50 -57 61 -55 22 3 -14 20 -48 51 -75
69 -28 17 -51 34 -51 36 0 6 33 -8 55 -23 42 -28 34 -11 -12 24 -44 33 -55 37
-138 44 -83 8 -164 25 -140 29 6 1 34 4 64 5 30 2 57 9 61 15 5 9 9 9 14 1 12
-19 48 -13 44 7 -5 25 -70 39 -103 22 -20 -11 -27 -11 -40 0 -8 7 -15 8 -15 3
0 -5 -22 -17 -50 -28 -45 -18 -65 -35 -40 -35 6 0 10 -5 10 -11 0 -6 -7 -8
-16 -5 -19 7 -75 -23 -71 -39 1 -6 -2 -12 -8 -13 -30 -6 30 71 81 105 14 9 30
26 34 37 8 19 9 19 9 2 1 -13 6 -16 19 -11 121 52 296 18 322 -60 6 -19 18
-35 25 -35 11 0 11 8 -2 45 -12 36 -24 50 -57 68 -36 19 -56 22 -169 22 -117
0 -151 7 -112 21 8 4 15 12 15 19 0 8 8 16 18 19 18 6 47 54 55 92 5 24 -9 54
-25 54 -7 0 -6 -6 2 -15 17 -20 5 -32 -15 -15 -13 11 -18 6 -37 -39 -12 -28
-27 -51 -34 -51 -7 0 -14 -4 -16 -10 -1 -5 -18 -11 -37 -12 -29 -3 -36 1 -42
22 -6 21 -7 22 -9 5 -1 -11 -4 -15 -7 -7 -2 6 -9 9 -15 6 -5 -4 -5 4 2 16 9
16 9 25 1 33 -19 19 -12 46 14 60 l26 13 -21 19 c-20 18 -28 55 -11 55 4 0 12
15 18 33 6 20 15 32 26 31 24 -2 33 35 13 54 -15 15 -17 15 -31 -5 -9 -12 -33
-32 -55 -44 -31 -18 -37 -25 -28 -36 14 -17 2 -31 -13 -16 -6 6 -18 9 -26 6
-26 -10 1 29 69 99 48 49 58 64 41 60 -13 -2 -23 -8 -23 -13 0 -5 -7 -9 -17
-9 -9 0 -38 -14 -66 -32 -37 -23 -51 -28 -57 -19 -6 10 -9 10 -15 1 -4 -6 -13
-9 -20 -6 -8 3 -16 0 -19 -7 -3 -7 -4 -3 -1 9 3 12 -1 27 -10 34 -8 7 -15 19
-15 27 0 12 -3 13 -13 4 -10 -8 -17 -7 -25 1 -20 20 -13 31 14 24 16 -4 23 -3
19 3 -4 7 1 8 11 4 12 -4 15 -2 12 8 -3 8 -12 13 -21 11 -11 -2 -15 2 -11 11
4 11 -4 13 -32 12 -43 -3 -84 32 -84 71 0 31 45 34 53 4 3 -11 13 -20 22 -20
14 0 16 6 12 29 -5 24 -2 30 16 36 19 6 19 8 5 12 -10 2 -18 12 -19 21 0 11
-2 12 -6 5 -7 -18 -33 -16 -33 2 0 9 6 18 14 21 16 6 29 44 15 44 -5 0 -9 9
-9 20 0 22 15 27 26 9 7 -12 56 36 67 65 8 20 -16 21 -35 2 -21 -20 -78 -48
-78 -37 0 5 9 11 20 14 21 5 28 27 9 27 -13 0 -39 -25 -39 -38 0 -5 -11 -17
-24 -26 l-25 -16 11 31 c9 27 89 99 109 99 5 0 9 5 9 11 0 14 -42 0 -56 -20
-10 -12 -15 -13 -27 -3 -8 7 -22 10 -31 6 -24 -9 -11 20 41 89 23 33 43 65 43
72 0 8 6 18 14 22 20 12 53 111 55 165 1 42 -3 51 -39 88 -39 40 -50 47 -50
32z m-80 -633 c0 -5 -4 -9 -10 -9 -5 0 -10 7 -10 16 0 8 5 12 10 9 6 -3 10
-10 10 -16z m-110 -80 c0 -24 -23 -21 -28 4 -2 10 3 17 12 17 10 0 16 -9 16
-21z m146 -146 c-11 -11 -19 6 -11 24 8 17 8 17 12 0 3 -10 2 -21 -1 -24z
m-126 -13 c0 -10 6 -20 13 -23 6 -3 -3 -5 -20 -4 -27 0 -33 4 -33 23 0 22 17
36 33 27 4 -2 7 -13 7 -23z m-53 -94 c-4 -9 -11 -16 -17 -16 -11 0 -14 33 -3
44 11 10 26 -11 20 -28z m63 -16 c6 -11 15 -18 21 -15 5 4 9 2 9 -4 0 -30 -51
-10 -56 23 -3 23 13 20 26 -4z m-16 -60 c-20 -20 -43 2 -25 24 10 12 16 13 26
3 11 -10 11 -14 -1 -27z m316 0 c0 -5 -2 -10 -4 -10 -3 0 -8 5 -11 10 -3 6 -1
10 4 10 6 0 11 -4 11 -10z m-160 -31 c0 -24 -23 -21 -28 4 -2 10 3 17 12 17
10 0 16 -9 16 -21z m74 -40 c-3 -5 -10 -7 -15 -3 -5 3 -7 10 -3 15 3 5 10 7
15 3 5 -3 7 -10 3 -15z m156 -25 c0 -16 -16 -19 -25 -4 -8 13 4 32 16 25 5 -4
9 -13 9 -21z m60 -104 c0 -11 -7 -20 -15 -20 -8 0 -15 2 -15 4 0 2 -3 11 -6
20 -4 12 0 16 15 16 14 0 21 -6 21 -20z m-100 -60 c0 -5 -4 -10 -10 -10 -5 0
-10 5 -10 10 0 6 5 10 10 10 6 0 10 -4 10 -10z m80 -36 c0 -17 -22 -14 -28 4
-2 7 3 12 12 12 9 0 16 -7 16 -16z m-90 -58 c0 -3 -4 -8 -10 -11 -5 -3 -10 -1
-10 4 0 6 5 11 10 11 6 0 10 -2 10 -4z m150 -31 c0 -8 -4 -15 -10 -15 -5 0
-10 7 -10 15 0 8 5 15 10 15 6 0 10 -7 10 -15z m150 -80 c0 -8 -7 -15 -15 -15
-8 0 -15 7 -15 15 0 8 7 15 15 15 8 0 15 -7 15 -15z m-295 -45 c3 -5 1 -10 -4
-10 -6 0 -11 5 -11 10 0 6 2 10 4 10 3 0 8 -4 11 -10z m195 -10 c0 -5 -7 -10
-16 -10 -8 0 -12 5 -9 10 3 6 10 10 16 10 5 0 9 -4 9 -10z"/>
<path d="M3525 2131 c0 -24 8 -47 19 -60 19 -21 19 -21 -2 -21 -17 0 -22 -8
-27 -37 -3 -21 -8 -46 -10 -56 -2 -9 5 -22 15 -27 16 -9 19 -4 26 33 5 23 9
47 9 52 0 6 3 15 6 20 3 6 6 37 5 70 -1 52 -4 60 -21 63 -17 2 -20 -3 -20 -37z"/>
<path d="M2695 2130 c3 -5 8 -10 11 -10 2 0 4 5 4 10 0 6 -5 10 -11 10 -5 0
-7 -4 -4 -10z"/>
<path d="M3616 2101 c-3 -5 1 -11 9 -14 9 -4 12 -1 8 9 -6 16 -10 17 -17 5z"/>
<path d="M3484 1896 c-3 -7 -4 -35 -2 -62 l3 -49 24 47 c20 39 22 49 11 62
-15 20 -29 20 -36 2z"/>
<path d="M3823 1606 c-37 -35 -43 -52 -13 -36 20 11 56 58 49 63 -2 2 -19 -11
-36 -27z"/>
<path d="M3731 1546 c-10 -12 -8 -13 8 -9 12 3 21 9 21 14 0 14 -16 11 -29 -5z"/>
<path d="M3730 1422 c0 -9 -50 -37 -62 -34 -4 1 -5 -4 -2 -12 6 -17 48 -29 52
-16 2 5 10 6 19 3 13 -5 13 -3 2 15 -12 19 -11 23 6 36 18 14 18 15 3 16 -10
0 -18 -4 -18 -8z"/>
<path d="M3091 1288 c2 -35 1 -67 -2 -73 -9 -16 -11 -128 -2 -123 4 3 16 8 27
12 14 5 16 9 7 19 -6 8 -10 47 -9 88 1 112 -1 139 -13 139 -7 0 -10 -22 -8
-62z"/>
<path d="M4030 1335 c0 -10 7 -15 18 -13 21 4 19 22 -2 26 -10 2 -16 -3 -16
-13z"/>
<path d="M1410 1306 c0 -15 27 -29 34 -18 3 5 -4 13 -15 20 -15 10 -19 10 -19
-2z"/>
<path d="M1260 1108 c0 -5 14 -23 31 -41 39 -40 93 -123 106 -161 5 -17 14
-31 20 -33 17 -6 -14 90 -32 100 -8 4 -15 17 -15 28 0 29 -29 69 -51 69 -11 0
-21 9 -24 23 -6 22 -35 34 -35 15z"/>
<path d="M1531 964 c0 -11 3 -14 6 -6 3 7 2 16 -1 19 -3 4 -6 -2 -5 -13z"/>
<path d="M1525 920 c3 -5 8 -10 11 -10 2 0 4 5 4 10 0 6 -5 10 -11 10 -5 0 -7
-4 -4 -10z"/>
<path d="M1380 858 c0 -8 9 -23 20 -33 15 -14 17 -22 9 -37 -16 -29 22 -100
61 -115 36 -14 38 -4 6 26 -16 15 -26 38 -30 70 -5 35 -14 55 -36 76 -21 20
-30 24 -30 13z"/>
<path d="M3315 731 c71 -33 134 -107 156 -183 8 -30 1 -36 -19 -16 -6 6 -15 9
-18 5 -4 -4 4 -15 17 -26 22 -18 25 -18 42 -3 9 8 14 18 10 21 -5 3 -9 13 -11
21 -16 78 -113 184 -177 194 l-40 6 40 -19z"/>
<path d="M1296 705 c4 -8 8 -15 10 -15 2 0 4 7 4 15 0 8 -4 15 -10 15 -5 0 -7
-7 -4 -15z"/>
<path d="M3310 696 c0 -2 7 -7 16 -10 8 -3 12 -2 9 4 -6 10 -25 14 -25 6z"/>
<path d="M4310 690 c0 -5 7 -10 15 -10 8 0 15 5 15 10 0 6 -7 10 -15 10 -8 0
-15 -4 -15 -10z"/>
<path d="M3380 656 c0 -2 7 -9 15 -16 13 -11 14 -10 9 4 -5 14 -24 23 -24 12z"/>
<path d="M4355 637 c29 -20 55 -28 55 -17 0 12 -34 30 -57 30 -16 0 -16 -1 2
-13z"/>
<path d="M1530 586 c0 -7 8 -21 19 -30 11 -10 21 -36 24 -62 4 -36 12 -52 39
-77 19 -18 38 -42 42 -55 4 -12 12 -22 17 -22 16 0 10 16 -28 65 -30 38 -37
55 -37 88 1 23 7 43 13 45 14 5 -26 38 -63 52 -20 7 -26 6 -26 -4z"/>
<path d="M3430 585 c0 -5 5 -17 10 -25 5 -8 10 -10 10 -5 0 6 -5 17 -10 25 -5
8 -10 11 -10 5z"/>
<path d="M4390 576 c0 -2 8 -10 18 -17 15 -13 16 -12 3 4 -13 16 -21 21 -21
13z"/>
<path d="M4285 480 c3 -5 11 -10 16 -10 6 0 7 5 4 10 -3 6 -11 10 -16 10 -6 0
-7 -4 -4 -10z"/>
<path d="M3466 452 c-7 -12 3 -42 14 -42 18 0 22 22 7 37 -9 9 -17 11 -21 5z"/>
<path d="M1415 420 c-6 -10 -2 -12 15 -7 12 3 34 1 47 -4 14 -5 42 -12 62 -15
20 -3 49 -12 64 -19 43 -22 28 5 -17 28 -46 24 -160 35 -171 17z"/>
<path d="M3224 28 c-3 -5 18 -8 45 -8 28 0 51 4 51 9 0 10 -90 9 -96 -1z"/>
</g>
</svg>
