<svg width="1860" height="819" viewBox="0 0 1860 819" fill="none" xmlns="http://www.w3.org/2000/svg">
<path d="M1717.59 758.523H1730.99" stroke="#A2BADD" stroke-width="2" stroke-linecap="round" stroke-linejoin="round"/>
<path d="M1724.29 752.485V764.564" stroke="#A2BADD" stroke-width="2" stroke-linecap="round" stroke-linejoin="round"/>
<path d="M1717.59 732.409H1730.99" stroke="#A2BADD" stroke-width="2" stroke-linecap="round" stroke-linejoin="round"/>
<path d="M1724.29 726.368V738.447" stroke="#A2BADD" stroke-width="2" stroke-linecap="round" stroke-linejoin="round"/>
<path d="M1717.59 706.292H1730.99" stroke="#A2BADD" stroke-width="2" stroke-linecap="round" stroke-linejoin="round"/>
<path d="M1724.29 700.254V712.333" stroke="#A2BADD" stroke-width="2" stroke-linecap="round" stroke-linejoin="round"/>
<path d="M1079.07 151.556V163.635" stroke="#A2BADD" stroke-width="2" stroke-linecap="round" stroke-linejoin="round"/>
<path d="M1085.77 157.595H1072.38" stroke="#A2BADD" stroke-width="2" stroke-linecap="round" stroke-linejoin="round"/>
<path d="M624.676 376.86V388.939" stroke="#EAF1FD" stroke-width="2" stroke-linecap="round" stroke-linejoin="round"/>
<path d="M631.376 382.898H617.978" stroke="#EAF1FD" stroke-width="2" stroke-linecap="round" stroke-linejoin="round"/>
<path d="M526.595 612.244V624.323" stroke="#F87F28" stroke-width="2" stroke-linecap="round" stroke-linejoin="round"/>
<path d="M533.295 618.284H519.897" stroke="#F87F28" stroke-width="2" stroke-linecap="round" stroke-linejoin="round"/>
<path d="M933.254 472.463V484.542" stroke="#F87F28" stroke-width="2" stroke-linecap="round" stroke-linejoin="round"/>
<path d="M939.954 478.501H926.556" stroke="#F87F28" stroke-width="2" stroke-linecap="round" stroke-linejoin="round"/>
<path d="M1202.89 326.958V339.038" stroke="#F87F28" stroke-width="2" stroke-linecap="round" stroke-linejoin="round"/>
<path d="M1209.59 332.997H1196.19" stroke="#F87F28" stroke-width="2" stroke-linecap="round" stroke-linejoin="round"/>
<path d="M1561.4 83.0439V95.1237" stroke="#F87F28" stroke-width="2" stroke-linecap="round" stroke-linejoin="round"/>
<path d="M1568.1 89.0824H1554.7" stroke="#F87F28" stroke-width="2" stroke-linecap="round" stroke-linejoin="round"/>
<path d="M408.928 294.922V307.002" stroke="#F87F28" stroke-width="2" stroke-linecap="round" stroke-linejoin="round"/>
<path d="M415.628 300.961H402.23" stroke="#F87F28" stroke-width="2" stroke-linecap="round" stroke-linejoin="round"/>
<path d="M617.978 113.142V125.221" stroke="#BDD7FE" stroke-width="2" stroke-linecap="round" stroke-linejoin="round"/>
<path d="M624.676 119.181H611.278" stroke="#BDD7FE" stroke-width="2" stroke-linecap="round" stroke-linejoin="round"/>
<path d="M1001.6 798.045V810.124" stroke="#FAFAFA" stroke-opacity="0.28" stroke-width="2" stroke-linecap="round" stroke-linejoin="round"/>
<path d="M1008.3 804.083H994.906" stroke="#FAFAFA" stroke-opacity="0.28" stroke-width="2" stroke-linecap="round" stroke-linejoin="round"/>
<path d="M1030.58 798.045V810.124" stroke="#FAFAFA" stroke-opacity="0.28" stroke-width="2" stroke-linecap="round" stroke-linejoin="round"/>
<path d="M1037.27 804.083H1023.87" stroke="#FAFAFA" stroke-opacity="0.28" stroke-width="2" stroke-linecap="round" stroke-linejoin="round"/>
<path d="M1059.54 798.045V810.124" stroke="#FAFAFA" stroke-opacity="0.28" stroke-width="2" stroke-linecap="round" stroke-linejoin="round"/>
<path d="M1066.24 804.083H1052.84" stroke="#FAFAFA" stroke-opacity="0.28" stroke-width="2" stroke-linecap="round" stroke-linejoin="round"/>
<path d="M220.109 255.983V268.062" stroke="#F87F28" stroke-width="2" stroke-linecap="round" stroke-linejoin="round"/>
<path d="M226.808 262.021H213.411" stroke="#F87F28" stroke-width="2" stroke-linecap="round" stroke-linejoin="round"/>
<path d="M93.804 203.367H80.4062" stroke="#EAF1FD" stroke-width="2" stroke-linecap="round" stroke-linejoin="round"/>
<path d="M87.1062 209.407V197.328" stroke="#EAF1FD" stroke-width="2" stroke-linecap="round" stroke-linejoin="round"/>
<path d="M93.804 229.484H80.4062" stroke="#EAF1FD" stroke-width="2" stroke-linecap="round" stroke-linejoin="round"/>
<path d="M87.1062 235.523V223.443" stroke="#EAF1FD" stroke-width="2" stroke-linecap="round" stroke-linejoin="round"/>
<path d="M93.804 255.599H80.4062" stroke="#EAF1FD" stroke-width="2" stroke-linecap="round" stroke-linejoin="round"/>
<path d="M87.1062 261.639V249.56" stroke="#EAF1FD" stroke-width="2" stroke-linecap="round" stroke-linejoin="round"/>
<path d="M395.918 470.921C395.918 471.327 395.786 471.722 395.536 472.059C395.286 472.396 394.931 472.659 394.516 472.814C394.101 472.969 393.644 473.009 393.203 472.93C392.762 472.851 392.357 472.656 392.039 472.369C391.723 472.083 391.506 471.718 391.418 471.32C391.331 470.923 391.376 470.511 391.548 470.137C391.721 469.763 392.011 469.442 392.385 469.218C392.759 468.993 393.198 468.873 393.648 468.873C393.946 468.873 394.241 468.926 394.516 469.029C394.793 469.132 395.043 469.283 395.254 469.473C395.465 469.663 395.632 469.889 395.746 470.137C395.86 470.386 395.918 470.653 395.918 470.921Z" fill="#A2BADD"/>
<path d="M411.341 470.921C411.341 471.327 411.207 471.722 410.958 472.059C410.708 472.396 410.354 472.659 409.938 472.814C409.523 472.969 409.066 473.009 408.625 472.93C408.185 472.851 407.78 472.656 407.462 472.369C407.144 472.083 406.928 471.718 406.841 471.32C406.753 470.923 406.798 470.511 406.971 470.137C407.142 469.763 407.434 469.442 407.808 469.218C408.182 468.993 408.621 468.873 409.07 468.873C409.368 468.873 409.664 468.926 409.939 469.029C410.215 469.132 410.465 469.283 410.676 469.473C410.887 469.663 411.054 469.889 411.168 470.137C411.283 470.386 411.341 470.653 411.341 470.921Z" fill="#A2BADD"/>
<path d="M426.769 470.921C426.769 471.327 426.636 471.722 426.387 472.059C426.137 472.396 425.782 472.659 425.367 472.814C424.952 472.969 424.495 473.009 424.054 472.931C423.613 472.851 423.209 472.656 422.891 472.37C422.574 472.083 422.357 471.719 422.269 471.32C422.181 470.923 422.227 470.512 422.398 470.137C422.571 469.763 422.861 469.443 423.235 469.218C423.609 468.994 424.048 468.873 424.498 468.873C424.796 468.873 425.091 468.925 425.367 469.028C425.643 469.131 425.894 469.283 426.104 469.473C426.315 469.663 426.483 469.889 426.597 470.137C426.71 470.386 426.769 470.653 426.769 470.921Z" fill="#A2BADD"/>
<path d="M395.918 484.825C395.918 485.231 395.786 485.626 395.536 485.963C395.287 486.3 394.932 486.563 394.516 486.718C394.101 486.874 393.645 486.914 393.204 486.835C392.763 486.756 392.358 486.561 392.04 486.275C391.723 485.987 391.506 485.623 391.418 485.225C391.331 484.828 391.376 484.416 391.548 484.042C391.72 483.668 392.011 483.348 392.385 483.123C392.759 482.897 393.198 482.778 393.648 482.778C394.25 482.778 394.827 482.994 395.254 483.378C395.679 483.761 395.918 484.282 395.918 484.825Z" fill="#A2BADD"/>
<path d="M411.341 484.825C411.341 485.231 411.208 485.626 410.958 485.963C410.709 486.3 410.354 486.563 409.939 486.718C409.523 486.874 409.067 486.914 408.626 486.835C408.186 486.756 407.781 486.561 407.463 486.275C407.145 485.987 406.928 485.623 406.841 485.225C406.753 484.828 406.798 484.416 406.971 484.042C407.142 483.668 407.434 483.348 407.808 483.123C408.182 482.897 408.621 482.778 409.07 482.778C409.673 482.778 410.25 482.994 410.676 483.378C411.102 483.761 411.341 484.282 411.341 484.825Z" fill="#A2BADD"/>
<path d="M426.769 484.825C426.769 485.231 426.637 485.626 426.387 485.963C426.138 486.3 425.782 486.563 425.368 486.718C424.953 486.874 424.496 486.914 424.055 486.835C423.614 486.756 423.209 486.561 422.891 486.275C422.574 485.988 422.357 485.623 422.269 485.226C422.181 484.829 422.227 484.417 422.398 484.042C422.571 483.668 422.861 483.348 423.235 483.123C423.608 482.898 424.048 482.778 424.498 482.778C424.796 482.778 425.091 482.83 425.367 482.933C425.643 483.036 425.893 483.187 426.104 483.377C426.315 483.567 426.482 483.793 426.596 484.041C426.71 484.29 426.769 484.556 426.769 484.825Z" fill="#A2BADD"/>
<path d="M395.918 498.73C395.918 499.135 395.786 499.531 395.536 499.868C395.287 500.205 394.932 500.467 394.516 500.623C394.101 500.778 393.645 500.818 393.204 500.74C392.763 500.66 392.358 500.466 392.04 500.179C391.723 499.893 391.506 499.527 391.418 499.13C391.331 498.733 391.376 498.32 391.548 497.947C391.72 497.572 392.011 497.253 392.385 497.027C392.759 496.802 393.198 496.682 393.648 496.682C394.25 496.682 394.827 496.898 395.254 497.282C395.679 497.666 395.918 498.187 395.918 498.73Z" fill="#A2BADD"/>
<path d="M411.341 498.73C411.341 499.135 411.208 499.531 410.958 499.868C410.709 500.205 410.354 500.467 409.939 500.623C409.523 500.778 409.067 500.818 408.626 500.74C408.186 500.66 407.781 500.466 407.463 500.179C407.145 499.893 406.928 499.527 406.841 499.13C406.753 498.733 406.798 498.32 406.971 497.947C407.142 497.572 407.434 497.253 407.808 497.027C408.182 496.802 408.621 496.682 409.07 496.682C409.673 496.682 410.25 496.898 410.676 497.282C411.102 497.666 411.341 498.187 411.341 498.73Z" fill="#A2BADD"/>
<path d="M426.769 498.73C426.769 499.135 426.637 499.531 426.387 499.868C426.138 500.205 425.782 500.467 425.368 500.623C424.953 500.778 424.496 500.818 424.055 500.74C423.614 500.66 423.209 500.466 422.891 500.179C422.574 499.893 422.357 499.528 422.269 499.131C422.181 498.733 422.227 498.321 422.398 497.947C422.571 497.573 422.861 497.253 423.235 497.028C423.608 496.803 424.048 496.682 424.498 496.682C424.796 496.682 425.091 496.736 425.367 496.838C425.643 496.941 425.893 497.092 426.104 497.281C426.315 497.472 426.482 497.698 426.596 497.946C426.71 498.195 426.769 498.461 426.769 498.73Z" fill="#A2BADD"/>
<path d="M91.6922 39.5765C91.6919 39.9781 91.5597 40.3705 91.3122 40.7043C91.0645 41.038 90.7128 41.2982 90.3013 41.4517C89.8897 41.6053 89.4369 41.6455 89.0001 41.5671C88.5633 41.4887 88.1622 41.2953 87.8472 41.0114C87.5323 40.7275 87.3178 40.3657 87.2308 39.9719C87.1439 39.5781 87.1884 39.1699 87.3588 38.7988C87.5291 38.4278 87.8176 38.1107 88.1878 37.8874C88.558 37.6642 88.9934 37.545 89.4387 37.5448C89.7346 37.5446 90.0278 37.5971 90.3013 37.6992C90.5747 37.8012 90.8232 37.9509 91.0325 38.1396C91.2417 38.3283 91.4078 38.5523 91.5209 38.7988C91.6342 39.0454 91.6923 39.3097 91.6922 39.5765Z" fill="#A2BADD"/>
<path d="M104.736 41.6082C105.981 41.6082 106.991 40.6986 106.991 39.5765C106.991 38.4544 105.981 37.5448 104.736 37.5448C103.492 37.5448 102.483 38.4544 102.483 39.5765C102.483 40.6986 103.492 41.6082 104.736 41.6082Z" fill="#A2BADD"/>
<path d="M122.286 39.5765C122.286 39.9783 122.154 40.3711 121.907 40.7052C121.659 41.0393 121.307 41.2997 120.895 41.4535C120.483 41.6073 120.03 41.6475 119.593 41.5692C119.156 41.4907 118.754 41.2973 118.439 41.0131C118.124 40.7289 117.909 40.3669 117.822 39.9728C117.735 39.5788 117.781 39.1702 117.951 38.799C118.122 38.4277 118.41 38.1104 118.78 37.8872C119.151 37.664 119.587 37.5448 120.033 37.5448C120.631 37.5448 121.203 37.7589 121.626 38.1398C122.049 38.5209 122.286 39.0377 122.286 39.5765Z" fill="#A2BADD"/>
<path d="M137.587 39.5765C137.587 39.9783 137.454 40.3711 137.207 40.7052C136.959 41.0393 136.607 41.2997 136.196 41.4535C135.784 41.6073 135.33 41.6475 134.894 41.5692C134.457 41.4907 134.055 41.2973 133.74 41.0131C133.424 40.7289 133.21 40.3669 133.123 39.9728C133.035 39.5788 133.08 39.1702 133.252 38.799C133.422 38.4277 133.711 38.1104 134.081 37.8872C134.452 37.664 134.888 37.5448 135.333 37.5448C135.629 37.5448 135.922 37.5974 136.196 37.6994C136.469 37.8016 136.717 37.9512 136.926 38.1398C137.135 38.3285 137.302 38.5525 137.415 38.799C137.529 39.0455 137.587 39.3097 137.587 39.5765Z" fill="#A2BADD"/>
<path d="M150.631 41.6082C151.876 41.6082 152.884 40.6986 152.884 39.5765C152.884 38.4544 151.876 37.5448 150.631 37.5448C149.387 37.5448 148.378 38.4544 148.378 39.5765C148.378 40.6986 149.387 41.6082 150.631 41.6082Z" fill="#A2BADD"/>
<path d="M168.182 39.5765C168.182 39.9783 168.049 40.3711 167.802 40.7052C167.554 41.0393 167.202 41.2997 166.791 41.4535C166.379 41.6073 165.926 41.6475 165.489 41.5692C165.051 41.4907 164.65 41.2973 164.335 41.0131C164.019 40.7289 163.805 40.3669 163.718 39.9728C163.631 39.5788 163.675 39.1702 163.846 38.799C164.016 38.4277 164.306 38.1104 164.676 37.8872C165.047 37.664 165.482 37.5448 165.928 37.5448C166.224 37.5446 166.517 37.5971 166.791 37.6992C167.064 37.8012 167.313 37.9509 167.522 38.1396C167.731 38.3283 167.897 38.5523 168.01 38.7988C168.124 39.0454 168.182 39.3097 168.182 39.5765Z" fill="#A2BADD"/>
<path d="M183.478 39.5765C183.478 39.9783 183.346 40.3711 183.098 40.7052C182.851 41.0393 182.499 41.2997 182.087 41.4535C181.675 41.6073 181.222 41.6475 180.785 41.5692C180.348 41.4907 179.947 41.2973 179.631 41.0131C179.316 40.7289 179.101 40.3669 179.015 39.9728C178.928 39.5788 178.973 39.1702 179.143 38.799C179.314 38.4277 179.602 38.1104 179.973 37.8872C180.343 37.664 180.779 37.5448 181.225 37.5448C181.521 37.5446 181.814 37.5971 182.087 37.6992C182.361 37.8012 182.609 37.9509 182.819 38.1396C183.028 38.3283 183.194 38.5523 183.307 38.7988C183.42 39.0454 183.478 39.3097 183.478 39.5765Z" fill="#A2BADD"/>
<path d="M91.6922 53.369C91.6919 53.7705 91.5597 54.163 91.3122 54.4968C91.0645 54.8306 90.7128 55.0907 90.3013 55.2443C89.8897 55.3979 89.4369 55.438 89.0001 55.3596C88.5633 55.2812 88.1622 55.0878 87.8472 54.8039C87.5323 54.5199 87.3178 54.1582 87.2308 53.7644C87.1439 53.3706 87.1884 52.9624 87.3588 52.5914C87.5291 52.2204 87.8176 51.9032 88.1878 51.68C88.558 51.4567 88.9934 51.3375 89.4387 51.3373C90.0364 51.3373 90.6095 51.5514 91.0322 51.9324C91.4548 52.3134 91.6922 52.8302 91.6922 53.369Z" fill="#A2BADD"/>
<path d="M106.991 53.369C106.991 53.7708 106.858 54.1636 106.611 54.4978C106.363 54.8318 106.011 55.0923 105.6 55.246C105.188 55.3998 104.734 55.4401 104.298 55.3616C103.86 55.2832 103.459 55.0898 103.144 54.8056C102.828 54.5215 102.614 54.1594 102.527 53.7654C102.439 53.3712 102.484 52.9627 102.655 52.5915C102.825 52.2203 103.115 51.903 103.485 51.6797C103.856 51.4565 104.291 51.3373 104.736 51.3373C105.334 51.3375 105.908 51.5517 106.33 51.9327C106.752 52.3136 106.99 52.8303 106.991 53.369Z" fill="#A2BADD"/>
<path d="M122.286 53.369C122.286 53.7708 122.154 54.1636 121.907 54.4978C121.659 54.8318 121.307 55.0923 120.895 55.246C120.483 55.3998 120.03 55.4401 119.593 55.3616C119.156 55.2832 118.754 55.0898 118.439 54.8056C118.124 54.5215 117.909 54.1594 117.822 53.7654C117.735 53.3712 117.781 52.9627 117.951 52.5915C118.122 52.2203 118.41 51.903 118.78 51.6797C119.151 51.4565 119.587 51.3373 120.033 51.3373C120.63 51.3375 121.203 51.5517 121.626 51.9327C122.048 52.3136 122.285 52.8303 122.286 53.369Z" fill="#A2BADD"/>
<path d="M137.587 53.369C137.587 53.7708 137.454 54.1636 137.207 54.4978C136.959 54.8318 136.607 55.0923 136.196 55.246C135.784 55.3998 135.33 55.4401 134.894 55.3616C134.457 55.2832 134.055 55.0898 133.74 54.8056C133.424 54.5215 133.21 54.1594 133.123 53.7654C133.035 53.3712 133.08 52.9627 133.252 52.5915C133.422 52.2203 133.711 51.903 134.081 51.6797C134.452 51.4565 134.888 51.3373 135.333 51.3373C135.93 51.3375 136.504 51.5517 136.926 51.9327C137.348 52.3136 137.586 52.8303 137.587 53.369Z" fill="#A2BADD"/>
<path d="M152.883 53.369C152.883 53.7709 152.752 54.1637 152.504 54.4979C152.256 54.832 151.904 55.0924 151.492 55.2461C151.08 55.3999 150.627 55.4401 150.19 55.3616C149.752 55.2831 149.351 55.0895 149.036 54.8053C148.721 54.521 148.506 54.1589 148.419 53.7648C148.333 53.3706 148.378 52.962 148.548 52.5908C148.719 52.2196 149.008 51.9024 149.378 51.6792C149.749 51.4561 150.185 51.3371 150.631 51.3373C151.229 51.3375 151.801 51.5517 152.224 51.9328C152.646 52.3137 152.883 52.8303 152.883 53.369Z" fill="#A2BADD"/>
<path d="M168.182 53.369C168.182 53.7708 168.049 54.1636 167.802 54.4978C167.554 54.8318 167.202 55.0923 166.791 55.246C166.379 55.3998 165.926 55.4401 165.489 55.3616C165.051 55.2832 164.65 55.0898 164.335 54.8056C164.019 54.5215 163.805 54.1594 163.718 53.7654C163.631 53.3712 163.675 52.9627 163.846 52.5915C164.016 52.2203 164.306 51.903 164.676 51.6797C165.047 51.4565 165.482 51.3373 165.928 51.3373C166.525 51.3373 167.099 51.5514 167.521 51.9324C167.944 52.3134 168.182 52.8302 168.182 53.369Z" fill="#A2BADD"/>
<path d="M183.478 53.369C183.478 53.7708 183.346 54.1636 183.098 54.4978C182.851 54.8318 182.499 55.0923 182.087 55.246C181.675 55.3998 181.222 55.4401 180.785 55.3616C180.348 55.2832 179.947 55.0898 179.631 54.8056C179.316 54.5215 179.101 54.1594 179.015 53.7654C178.928 53.3712 178.973 52.9627 179.143 52.5915C179.314 52.2203 179.602 51.903 179.973 51.6797C180.343 51.4565 180.779 51.3373 181.225 51.3373C181.823 51.3373 182.396 51.5514 182.819 51.9324C183.241 52.3134 183.478 52.8302 183.478 53.369Z" fill="#A2BADD"/>
<path d="M91.6922 67.1616C91.691 67.5629 91.558 67.9551 91.3099 68.2883C91.0618 68.6215 90.7097 68.881 90.2982 69.034C89.8865 69.187 89.4339 69.2265 88.9974 69.1477C88.5609 69.0688 88.1601 68.8751 87.8456 68.591C87.5311 68.3069 87.3171 67.9452 87.2305 67.5515C87.1439 67.1577 87.1887 66.7498 87.3592 66.379C87.5297 66.0082 87.8182 65.6913 88.1882 65.4682C88.5584 65.2452 88.9935 65.1261 89.4387 65.1259C89.735 65.1259 90.0284 65.1786 90.3021 65.2809C90.5758 65.3833 90.8244 65.5333 91.0337 65.7224C91.2431 65.9115 91.4089 66.1359 91.5219 66.3829C91.6349 66.6298 91.6928 66.8945 91.6922 67.1616Z" fill="#A2BADD"/>
<path d="M106.991 67.1616C106.99 67.5633 106.856 67.9557 106.608 68.2892C106.36 68.6229 106.008 68.8826 105.596 69.0358C105.184 69.1889 104.731 69.2285 104.295 69.1497C103.858 69.0709 103.457 68.877 103.142 68.5927C102.827 68.3084 102.613 67.9464 102.527 67.5525C102.439 67.1584 102.485 66.7502 102.655 66.3792C102.826 66.0082 103.115 65.691 103.486 65.468C103.856 65.2449 104.292 65.1259 104.736 65.1259C105.033 65.126 105.326 65.1788 105.6 65.2812C105.874 65.3836 106.123 65.5336 106.332 65.7226C106.541 65.9118 106.707 66.1362 106.82 66.383C106.932 66.6299 106.991 66.8945 106.991 67.1616Z" fill="#A2BADD"/>
<path d="M122.286 67.1616C122.285 67.5634 122.153 67.9559 121.904 68.2895C121.656 68.6231 121.303 68.8829 120.891 69.0359C120.48 69.1891 120.026 69.2285 119.589 69.1495C119.152 69.0706 118.751 68.8765 118.436 68.592C118.123 68.3076 117.908 67.9453 117.822 67.5512C117.735 67.157 117.781 66.7487 117.952 66.3778C118.123 66.0068 118.412 65.6898 118.782 65.467C119.153 65.2442 119.589 65.1255 120.035 65.1259C120.331 65.1263 120.624 65.1792 120.897 65.2818C121.17 65.3843 121.419 65.5343 121.628 65.7233C121.837 65.9125 122.002 66.1367 122.116 66.3835C122.228 66.6303 122.286 66.8946 122.286 67.1616Z" fill="#A2BADD"/>
<path d="M137.587 67.1616C137.586 67.5633 137.453 67.9557 137.204 68.2892C136.956 68.6229 136.604 68.8826 136.193 69.0358C135.78 69.1889 135.328 69.2285 134.891 69.1497C134.454 69.0709 134.053 68.877 133.738 68.5927C133.423 68.3084 133.209 67.9464 133.123 67.5525C133.036 67.1584 133.081 66.7502 133.252 66.3792C133.422 66.0082 133.711 65.691 134.082 65.468C134.452 65.2449 134.888 65.1259 135.333 65.1259C135.629 65.126 135.922 65.1788 136.197 65.2812C136.47 65.3836 136.719 65.5336 136.928 65.7226C137.137 65.9118 137.303 66.1362 137.416 66.383C137.529 66.6299 137.587 66.8945 137.587 67.1616Z" fill="#A2BADD"/>
<path d="M152.883 67.1616C152.882 67.5633 152.75 67.9558 152.502 68.2893C152.253 68.6229 151.901 68.8827 151.489 69.0358C151.077 69.189 150.624 69.2285 150.187 69.1496C149.75 69.0707 149.349 68.8767 149.034 68.5924C148.72 68.308 148.505 67.9459 148.419 67.5518C148.333 67.1577 148.378 66.7494 148.549 66.3785C148.72 66.0075 149.008 65.6904 149.379 65.4675C149.749 65.2446 150.185 65.1257 150.631 65.1259C150.927 65.126 151.221 65.1788 151.494 65.2812C151.767 65.3836 152.016 65.5337 152.225 65.7227C152.435 65.9118 152.6 66.1362 152.713 66.3831C152.826 66.63 152.884 66.8946 152.883 67.1616Z" fill="#A2BADD"/>
<path d="M168.182 67.1616C168.182 67.5635 168.049 67.9563 167.802 68.2904C167.554 68.6245 167.202 68.8849 166.791 69.0387C166.379 69.1925 165.926 69.2327 165.489 69.1543C165.051 69.0759 164.65 68.8824 164.335 68.5983C164.019 68.3142 163.805 67.9522 163.718 67.558C163.631 67.1639 163.675 66.7554 163.846 66.3842C164.016 66.0129 164.306 65.6956 164.676 65.4724C165.047 65.2491 165.482 65.13 165.928 65.13C166.525 65.13 167.099 65.344 167.521 65.7251C167.944 66.1061 168.182 66.6228 168.182 67.1616Z" fill="#A2BADD"/>
<path d="M183.478 67.1616C183.478 67.5635 183.346 67.9563 183.098 68.2904C182.851 68.6245 182.499 68.8849 182.087 69.0387C181.675 69.1925 181.222 69.2327 180.785 69.1543C180.348 69.0759 179.947 68.8824 179.631 68.5983C179.316 68.3142 179.101 67.9522 179.015 67.558C178.928 67.1639 178.973 66.7554 179.143 66.3842C179.314 66.0129 179.602 65.6956 179.973 65.4724C180.343 65.2491 180.779 65.13 181.225 65.13C181.823 65.13 182.396 65.344 182.819 65.7251C183.241 66.1061 183.478 66.6228 183.478 67.1616Z" fill="#A2BADD"/>
<path d="M91.6922 80.9542C91.6919 81.3557 91.5597 81.7482 91.3122 82.0816C91.0645 82.416 90.7128 82.6762 90.3013 82.8298C89.8897 82.9826 89.4369 83.0228 89.0001 82.9451C88.5633 82.8665 88.1622 82.6727 87.8472 82.3889C87.5323 82.1051 87.3178 81.7434 87.2308 81.3495C87.1439 80.9557 87.1884 80.5476 87.3588 80.1765C87.5291 79.8055 87.8176 79.4884 88.1878 79.2651C88.558 79.0419 88.9934 78.9227 89.4387 78.9225C89.7346 78.9223 90.0278 78.9748 90.3013 79.0769C90.5747 79.1789 90.8232 79.3286 91.0325 79.5173C91.2417 79.7059 91.4078 79.93 91.5209 80.1765C91.6342 80.423 91.6923 80.6873 91.6922 80.9542Z" fill="#A2BADD"/>
<path d="M106.991 80.9542C106.991 81.356 106.858 81.7488 106.611 82.0833C106.363 82.4169 106.011 82.6771 105.6 82.8316C105.188 82.9853 104.734 83.0254 104.298 82.9469C103.86 82.8683 103.459 82.6753 103.144 82.3907C102.828 82.1069 102.614 81.7446 102.527 81.3505C102.439 80.9565 102.484 80.5479 102.655 80.1767C102.825 79.8054 103.115 79.4881 103.485 79.2648C103.856 79.0417 104.291 78.9225 104.736 78.9225C105.334 78.9225 105.908 79.1365 106.33 79.5175C106.753 79.8986 106.991 80.4154 106.991 80.9542Z" fill="#A2BADD"/>
<path d="M122.286 80.9542C122.286 81.356 122.154 81.7488 121.907 82.0833C121.659 82.4169 121.307 82.6771 120.895 82.8316C120.483 82.9853 120.03 83.0254 119.593 82.9469C119.156 82.8683 118.754 82.6753 118.439 82.3907C118.124 82.1069 117.909 81.7446 117.822 81.3505C117.735 80.9565 117.781 80.5479 117.951 80.1767C118.122 79.8054 118.41 79.4881 118.78 79.2648C119.151 79.0417 119.587 78.9225 120.033 78.9225C120.631 78.9225 121.203 79.1365 121.626 79.5175C122.049 79.8986 122.286 80.4154 122.286 80.9542Z" fill="#A2BADD"/>
<path d="M137.587 80.9542C137.587 81.356 137.454 81.7488 137.207 82.0833C136.959 82.4169 136.607 82.6771 136.196 82.8316C135.784 82.9853 135.33 83.0254 134.894 82.9469C134.457 82.8683 134.055 82.6753 133.74 82.3907C133.424 82.1069 133.21 81.7446 133.123 81.3505C133.035 80.9565 133.08 80.5479 133.252 80.1767C133.422 79.8054 133.711 79.4881 134.081 79.2648C134.452 79.0417 134.888 78.9225 135.333 78.9225C135.629 78.9225 135.922 78.975 136.196 79.0771C136.469 79.1793 136.717 79.3289 136.926 79.5175C137.135 79.7062 137.302 79.9302 137.415 80.1767C137.529 80.4231 137.587 80.6874 137.587 80.9542Z" fill="#A2BADD"/>
<path d="M152.883 80.9542C152.883 81.356 152.752 81.7489 152.504 82.0833C152.256 82.4169 151.904 82.6779 151.492 82.8316C151.08 82.9853 150.627 83.0254 150.19 82.9469C149.752 82.8683 149.351 82.6744 149.036 82.3907C148.721 82.106 148.506 81.7441 148.419 81.3499C148.333 80.9558 148.378 80.5472 148.548 80.176C148.719 79.8047 149.008 79.4875 149.378 79.2644C149.749 79.0412 150.185 78.9223 150.631 78.9225C150.926 78.9225 151.22 78.975 151.493 79.0771C151.766 79.1793 152.015 79.3289 152.224 79.5176C152.433 79.7063 152.599 79.9303 152.712 80.1767C152.825 80.4232 152.883 80.6874 152.883 80.9542Z" fill="#A2BADD"/>
<path d="M168.182 80.9542C168.182 81.356 168.049 81.7488 167.802 82.0833C167.554 82.4169 167.202 82.6771 166.791 82.8316C166.379 82.9853 165.926 83.0254 165.489 82.9469C165.051 82.8683 164.65 82.6753 164.335 82.3907C164.019 82.1069 163.805 81.7446 163.718 81.3505C163.631 80.9565 163.675 80.5479 163.846 80.1767C164.016 79.8054 164.306 79.4881 164.676 79.2648C165.047 79.0417 165.482 78.9225 165.928 78.9225C166.224 78.9223 166.517 78.9748 166.791 79.0769C167.064 79.1789 167.313 79.3286 167.522 79.5173C167.731 79.7059 167.897 79.93 168.01 80.1765C168.124 80.4231 168.182 80.6874 168.182 80.9542Z" fill="#A2BADD"/>
<path d="M183.478 80.9542C183.478 81.356 183.346 81.7488 183.098 82.0833C182.851 82.4169 182.499 82.6771 182.087 82.8316C181.675 82.9853 181.222 83.0254 180.785 82.9469C180.348 82.8683 179.947 82.6753 179.631 82.3907C179.316 82.1069 179.101 81.7446 179.015 81.3505C178.928 80.9565 178.973 80.5479 179.143 80.1767C179.314 79.8054 179.602 79.4881 179.973 79.2648C180.343 79.0417 180.779 78.9225 181.225 78.9225C181.521 78.9223 181.814 78.9748 182.087 79.0769C182.361 79.1789 182.609 79.3286 182.819 79.5173C183.028 79.7059 183.194 79.93 183.307 80.1765C183.42 80.4231 183.478 80.6874 183.478 80.9542Z" fill="#A2BADD"/>
<path d="M91.6922 94.7455C91.6922 95.1472 91.56 95.5401 91.3126 95.8736C91.0652 96.208 90.7135 96.4682 90.302 96.6219C89.8905 96.7756 89.4377 96.8157 89.0008 96.7371C88.564 96.6594 88.1626 96.4656 87.8476 96.1818C87.5326 95.898 87.318 95.5366 87.2309 95.1428C87.1439 94.749 87.1884 94.3404 87.3586 93.9693C87.5289 93.5982 87.8175 93.2813 88.1876 93.0577C88.5579 92.8342 88.9932 92.7155 89.4387 92.7155C89.7345 92.7146 90.0276 92.767 90.301 92.8691C90.5743 92.9713 90.8228 93.1206 91.0321 93.3092C91.2413 93.4978 91.4074 93.7222 91.5206 93.9684C91.6339 94.2146 91.6922 94.4792 91.6922 94.7455Z" fill="#A2BADD"/>
<path d="M104.736 96.7782C105.981 96.7782 106.991 95.8692 106.991 94.7464C106.991 93.6244 105.981 92.7155 104.736 92.7155C103.492 92.7155 102.483 93.6244 102.483 94.7464C102.483 95.8692 103.492 96.7782 104.736 96.7782Z" fill="#A2BADD"/>
<path d="M122.286 94.7455C122.286 95.148 122.154 95.5409 121.906 95.8745C121.659 96.2089 121.308 96.4699 120.896 96.6236C120.484 96.7773 120.031 96.8175 119.594 96.7397C119.156 96.6612 118.755 96.4682 118.439 96.1836C118.124 95.8998 117.909 95.5374 117.822 95.1437C117.735 94.749 117.78 94.3404 117.95 93.9693C118.121 93.5982 118.41 93.2804 118.78 93.0577C119.151 92.8342 119.587 92.7155 120.033 92.7155C120.63 92.7155 121.203 92.9294 121.626 93.3101C122.048 93.6907 122.285 94.2068 122.286 94.7455Z" fill="#A2BADD"/>
<path d="M137.587 94.7455C137.587 95.148 137.455 95.5409 137.207 95.8745C136.96 96.2089 136.608 96.4699 136.197 96.6236C135.785 96.7773 135.331 96.8175 134.894 96.7397C134.457 96.6612 134.056 96.4682 133.74 96.1836C133.425 95.8998 133.21 95.5374 133.123 95.1437C133.036 94.749 133.08 94.3404 133.251 93.9693C133.421 93.5982 133.711 93.2804 134.081 93.0577C134.452 92.8342 134.887 92.7155 135.333 92.7155C135.93 92.7155 136.504 92.9294 136.926 93.3101C137.348 93.6907 137.586 94.2068 137.587 94.7455Z" fill="#A2BADD"/>
<path d="M150.631 96.7782C151.876 96.7782 152.884 95.8692 152.884 94.7464C152.884 93.6244 151.876 92.7155 150.631 92.7155C149.387 92.7155 148.378 93.6244 148.378 94.7464C148.378 95.8692 149.387 96.7782 150.631 96.7782Z" fill="#A2BADD"/>
<path d="M168.182 94.7455C168.182 95.148 168.05 95.5409 167.802 95.8745C167.555 96.2089 167.203 96.47 166.792 96.6236C166.38 96.7773 165.927 96.8175 165.49 96.7398C165.052 96.6612 164.651 96.4682 164.335 96.1836C164.02 95.8998 163.805 95.5374 163.718 95.1437C163.631 94.749 163.675 94.3404 163.846 93.9693C164.016 93.5982 164.306 93.2804 164.676 93.0577C165.047 92.8342 165.482 92.7155 165.928 92.7155C166.224 92.7146 166.517 92.767 166.791 92.8691C167.064 92.9713 167.312 93.1206 167.521 93.3092C167.73 93.4978 167.897 93.7222 168.01 93.9684C168.124 94.2146 168.182 94.4792 168.182 94.7455Z" fill="#A2BADD"/>
<path d="M183.478 94.7455C183.478 95.148 183.346 95.5409 183.099 95.8745C182.851 96.2089 182.5 96.47 182.088 96.6236C181.676 96.7773 181.223 96.8175 180.786 96.7398C180.349 96.6612 179.947 96.4682 179.632 96.1836C179.316 95.8998 179.102 95.5374 179.015 95.1437C178.928 94.749 178.973 94.3404 179.143 93.9693C179.314 93.5982 179.602 93.2804 179.973 93.0577C180.343 92.8342 180.779 92.7155 181.225 92.7155C181.52 92.7146 181.814 92.767 182.087 92.8691C182.36 92.9713 182.609 93.1206 182.819 93.3092C183.028 93.4978 183.193 93.7222 183.307 93.9684C183.42 94.2146 183.478 94.4792 183.478 94.7455Z" fill="#A2BADD"/>
<path d="M1307 270.743C1307 271.103 1306.88 271.455 1306.66 271.753C1306.44 272.052 1306.13 272.285 1305.76 272.423C1305.39 272.56 1304.98 272.597 1304.6 272.526C1304.2 272.456 1303.84 272.283 1303.56 272.028C1303.28 271.774 1303.08 271.451 1303.01 271.098C1302.93 270.745 1302.97 270.38 1303.12 270.047C1303.28 269.716 1303.53 269.432 1303.87 269.232C1304.2 269.032 1304.59 268.925 1304.98 268.925C1305.52 268.925 1306.03 269.117 1306.41 269.458C1306.79 269.799 1307 270.261 1307 270.743Z" fill="#A2BADD"/>
<path d="M1318.67 272.561C1319.79 272.561 1320.69 271.747 1320.69 270.743C1320.69 269.739 1319.79 268.925 1318.67 268.925C1317.56 268.925 1316.66 269.739 1316.66 270.743C1316.66 271.747 1317.56 272.561 1318.67 272.561Z" fill="#A2BADD"/>
<path d="M1334.38 270.743C1334.38 271.103 1334.26 271.455 1334.04 271.754C1333.81 272.053 1333.5 272.285 1333.14 272.423C1332.77 272.561 1332.36 272.597 1331.97 272.526C1331.58 272.456 1331.22 272.283 1330.94 272.029C1330.66 271.774 1330.46 271.451 1330.38 271.098C1330.31 270.745 1330.35 270.379 1330.5 270.047C1330.66 269.715 1330.91 269.431 1331.25 269.231C1331.58 269.032 1331.96 268.925 1332.36 268.925C1332.63 268.925 1332.89 268.973 1333.14 269.064C1333.38 269.155 1333.6 269.289 1333.78 269.458C1333.98 269.627 1334.12 269.827 1334.23 270.047C1334.33 270.268 1334.38 270.505 1334.38 270.743Z" fill="#A2BADD"/>
<path d="M1348.06 270.743C1348.06 271.103 1347.95 271.455 1347.72 271.753C1347.5 272.052 1347.19 272.285 1346.82 272.423C1346.46 272.56 1346.05 272.597 1345.66 272.526C1345.26 272.456 1344.91 272.283 1344.63 272.028C1344.34 271.774 1344.15 271.451 1344.07 271.098C1344 270.745 1344.03 270.38 1344.19 270.047C1344.34 269.716 1344.6 269.432 1344.93 269.232C1345.26 269.032 1345.65 268.925 1346.05 268.925C1346.32 268.925 1346.58 268.973 1346.82 269.063C1347.07 269.155 1347.29 269.289 1347.48 269.458C1347.67 269.627 1347.81 269.827 1347.92 270.047C1348.02 270.268 1348.06 270.505 1348.06 270.743Z" fill="#A2BADD"/>
<path d="M1359.74 272.561C1360.85 272.561 1361.76 271.747 1361.76 270.743C1361.76 269.739 1360.85 268.925 1359.74 268.925C1358.62 268.925 1357.72 269.739 1357.72 270.743C1357.72 271.747 1358.62 272.561 1359.74 272.561Z" fill="#A2BADD"/>
<path d="M1375.45 270.743C1375.45 271.103 1375.32 271.455 1375.11 271.753C1374.89 272.052 1374.57 272.285 1374.2 272.423C1373.83 272.56 1373.43 272.597 1373.04 272.526C1372.64 272.456 1372.28 272.283 1372 272.028C1371.72 271.774 1371.53 271.451 1371.45 271.098C1371.37 270.745 1371.41 270.38 1371.57 270.047C1371.72 269.716 1371.98 269.432 1372.31 269.232C1372.64 269.032 1373.03 268.925 1373.43 268.925C1373.97 268.925 1374.48 269.117 1374.86 269.458C1375.24 269.799 1375.45 270.261 1375.45 270.743Z" fill="#A2BADD"/>
<path d="M1389.14 270.743C1389.14 271.103 1389.01 271.455 1388.8 271.753C1388.58 272.052 1388.26 272.285 1387.89 272.423C1387.52 272.56 1387.11 272.597 1386.73 272.526C1386.34 272.456 1385.97 272.283 1385.69 272.028C1385.41 271.774 1385.22 271.451 1385.14 271.098C1385.06 270.745 1385.1 270.38 1385.25 270.047C1385.41 269.716 1385.67 269.432 1386 269.232C1386.33 269.032 1386.72 268.925 1387.12 268.925C1387.66 268.925 1388.17 269.117 1388.55 269.458C1388.93 269.799 1389.14 270.261 1389.14 270.743Z" fill="#A2BADD"/>
<path d="M1320.69 283.086C1320.69 283.445 1320.57 283.797 1320.35 284.095C1320.13 284.395 1319.82 284.628 1319.45 284.765C1319.08 284.903 1318.67 284.939 1318.28 284.869C1317.89 284.799 1317.53 284.625 1317.25 284.371C1316.97 284.117 1316.77 283.793 1316.7 283.44C1316.62 283.088 1316.66 282.722 1316.81 282.39C1316.97 282.057 1317.22 281.773 1317.56 281.574C1317.89 281.374 1318.27 281.267 1318.67 281.267C1319.2 281.268 1319.72 281.459 1320.1 281.801C1320.47 282.141 1320.69 282.604 1320.69 283.086Z" fill="#A2BADD"/>
<path d="M1334.38 283.086C1334.38 283.446 1334.26 283.797 1334.04 284.096C1333.81 284.395 1333.5 284.628 1333.14 284.765C1332.77 284.903 1332.36 284.939 1331.97 284.869C1331.58 284.798 1331.22 284.625 1330.94 284.371C1330.66 284.116 1330.46 283.792 1330.38 283.439C1330.31 283.087 1330.35 282.722 1330.5 282.389C1330.66 282.057 1330.91 281.773 1331.25 281.574C1331.58 281.374 1331.96 281.267 1332.36 281.267C1332.9 281.268 1333.41 281.459 1333.78 281.801C1334.16 282.141 1334.38 282.604 1334.38 283.086Z" fill="#A2BADD"/>
<path d="M1348.06 283.086C1348.06 283.445 1347.95 283.797 1347.72 284.095C1347.5 284.395 1347.19 284.628 1346.82 284.765C1346.46 284.903 1346.05 284.939 1345.66 284.869C1345.26 284.799 1344.91 284.625 1344.63 284.371C1344.34 284.117 1344.15 283.793 1344.07 283.44C1344 283.088 1344.03 282.722 1344.19 282.39C1344.34 282.057 1344.6 281.773 1344.93 281.574C1345.26 281.374 1345.65 281.267 1346.05 281.267C1346.58 281.267 1347.1 281.459 1347.47 281.8C1347.86 282.141 1348.06 282.603 1348.06 283.086Z" fill="#A2BADD"/>
<path d="M1361.76 283.086C1361.76 283.445 1361.64 283.797 1361.41 284.095C1361.2 284.395 1360.88 284.628 1360.51 284.765C1360.14 284.903 1359.74 284.939 1359.35 284.869C1358.95 284.799 1358.59 284.625 1358.31 284.371C1358.03 284.117 1357.84 283.793 1357.76 283.44C1357.68 283.088 1357.72 282.722 1357.88 282.39C1358.03 282.057 1358.29 281.773 1358.62 281.574C1358.95 281.374 1359.34 281.267 1359.74 281.267C1360.28 281.267 1360.79 281.459 1361.17 281.8C1361.55 282.141 1361.76 282.603 1361.76 283.086Z" fill="#A2BADD"/>
<path d="M1375.45 283.086C1375.45 283.445 1375.32 283.797 1375.11 284.095C1374.89 284.395 1374.57 284.628 1374.2 284.765C1373.83 284.903 1373.43 284.939 1373.04 284.869C1372.64 284.799 1372.28 284.625 1372 284.371C1371.72 284.117 1371.53 283.793 1371.45 283.44C1371.37 283.088 1371.41 282.722 1371.57 282.39C1371.72 282.057 1371.98 281.773 1372.31 281.574C1372.64 281.374 1373.03 281.267 1373.43 281.267C1373.97 281.268 1374.48 281.459 1374.86 281.801C1375.24 282.141 1375.45 282.604 1375.45 283.086Z" fill="#A2BADD"/>
<path d="M1389.14 283.086C1389.14 283.445 1389.01 283.797 1388.8 284.095C1388.58 284.395 1388.26 284.628 1387.89 284.765C1387.52 284.903 1387.11 284.939 1386.73 284.869C1386.34 284.799 1385.97 284.625 1385.69 284.371C1385.41 284.117 1385.22 283.793 1385.14 283.44C1385.06 283.088 1385.1 282.722 1385.25 282.39C1385.41 282.057 1385.67 281.773 1386 281.574C1386.33 281.374 1386.72 281.267 1387.12 281.267C1387.66 281.268 1388.17 281.459 1388.55 281.801C1388.93 282.141 1389.14 282.604 1389.14 283.086Z" fill="#A2BADD"/>
<path d="M1402.83 283.086C1402.83 283.446 1402.7 283.797 1402.49 284.096C1402.27 284.395 1401.95 284.628 1401.58 284.765C1401.21 284.903 1400.8 284.939 1400.42 284.869C1400.03 284.798 1399.66 284.625 1399.38 284.371C1399.1 284.116 1398.9 283.792 1398.83 283.439C1398.75 283.087 1398.8 282.722 1398.94 282.389C1399.1 282.057 1399.36 281.773 1399.69 281.574C1400.02 281.374 1400.41 281.267 1400.81 281.267C1401.35 281.268 1401.86 281.459 1402.24 281.801C1402.61 282.141 1402.83 282.604 1402.83 283.086Z" fill="#A2BADD"/>
<path d="M1406.28 762.093C1406.28 763.098 1405.95 764.08 1405.33 764.915C1404.71 765.751 1403.83 766.402 1402.79 766.787C1401.76 767.171 1400.63 767.271 1399.53 767.075C1398.44 766.878 1397.44 766.395 1396.65 765.684C1395.86 764.972 1395.33 764.067 1395.11 763.081C1394.89 762.095 1395 761.074 1395.43 760.145C1395.85 759.216 1396.58 758.422 1397.51 757.864C1398.43 757.305 1399.52 757.008 1400.64 757.008C1401.37 757.008 1402.11 757.139 1402.8 757.394C1403.48 757.65 1404.1 758.025 1404.62 758.497C1405.15 758.969 1405.56 759.53 1405.85 760.146C1406.13 760.764 1406.28 761.425 1406.28 762.093Z" stroke="#DFEAFC" stroke-miterlimit="10"/>
<path d="M1444.56 762.093C1444.56 763.098 1444.23 764.081 1443.61 764.917C1442.99 765.754 1442.11 766.405 1441.07 766.79C1440.05 767.175 1438.91 767.276 1437.82 767.079C1436.72 766.883 1435.72 766.399 1434.93 765.687C1434.14 764.977 1433.6 764.07 1433.39 763.085C1433.17 762.098 1433.28 761.075 1433.71 760.146C1434.14 759.217 1434.85 758.423 1435.78 757.864C1436.71 757.306 1437.8 757.008 1438.92 757.008C1440.41 757.008 1441.85 757.544 1442.9 758.497C1443.96 759.451 1444.56 760.744 1444.56 762.093Z" stroke="#DFEAFC" stroke-miterlimit="10"/>
<path d="M1482.84 762.093C1482.84 763.098 1482.51 764.081 1481.89 764.917C1481.27 765.754 1480.39 766.405 1479.36 766.79C1478.33 767.175 1477.19 767.276 1476.1 767.079C1475.01 766.883 1474 766.399 1473.21 765.687C1472.42 764.977 1471.89 764.07 1471.67 763.085C1471.45 762.098 1471.56 761.075 1471.99 760.146C1472.41 759.217 1473.14 758.423 1474.07 757.864C1474.99 757.306 1476.08 757.008 1477.2 757.008C1477.94 757.008 1478.67 757.139 1479.36 757.394C1480.05 757.649 1480.67 758.024 1481.19 758.496C1481.71 758.969 1482.13 759.529 1482.41 760.146C1482.69 760.763 1482.84 761.425 1482.84 762.093Z" stroke="#DFEAFC" stroke-miterlimit="10"/>
<path d="M1406.28 796.606C1406.28 797.612 1405.95 798.594 1405.33 799.43C1404.71 800.265 1403.83 800.917 1402.79 801.301C1401.76 801.685 1400.63 801.785 1399.53 801.589C1398.44 801.392 1397.44 800.909 1396.65 800.197C1395.86 799.486 1395.33 798.581 1395.11 797.595C1394.89 796.609 1395 795.587 1395.43 794.659C1395.85 793.73 1396.58 792.936 1397.51 792.378C1398.43 791.819 1399.52 791.522 1400.64 791.522C1401.37 791.522 1402.11 791.653 1402.8 791.908C1403.48 792.164 1404.1 792.539 1404.62 793.011C1405.15 793.483 1405.56 794.043 1405.85 794.661C1406.13 795.277 1406.28 795.939 1406.28 796.606Z" stroke="#DFEAFC" stroke-miterlimit="10"/>
<path d="M1444.56 796.606C1444.56 797.612 1444.23 798.595 1443.61 799.431C1442.99 800.267 1442.11 800.919 1441.07 801.304C1440.05 801.688 1438.91 801.79 1437.82 801.593C1436.72 801.397 1435.72 800.913 1434.93 800.201C1434.14 799.491 1433.6 798.584 1433.39 797.598C1433.17 796.612 1433.28 795.59 1433.71 794.661C1434.14 793.732 1434.85 792.937 1435.78 792.378C1436.71 791.819 1437.8 791.522 1438.92 791.522C1440.41 791.522 1441.85 792.057 1442.9 793.01C1443.96 793.965 1444.56 795.258 1444.56 796.606Z" stroke="#DFEAFC" stroke-miterlimit="10"/>
<path d="M1482.84 796.606C1482.84 797.612 1482.51 798.595 1481.89 799.431C1481.27 800.267 1480.39 800.919 1479.36 801.304C1478.33 801.688 1477.19 801.79 1476.1 801.593C1475.01 801.397 1474 800.913 1473.21 800.201C1472.42 799.491 1471.89 798.584 1471.67 797.598C1471.45 796.612 1471.56 795.59 1471.99 794.661C1472.41 793.732 1473.14 792.937 1474.07 792.378C1474.99 791.819 1476.08 791.522 1477.2 791.522C1477.94 791.522 1478.67 791.653 1479.36 791.908C1480.05 792.163 1480.67 792.538 1481.19 793.01C1481.71 793.483 1482.13 794.043 1482.41 794.66C1482.69 795.277 1482.84 795.938 1482.84 796.606Z" stroke="#DFEAFC" stroke-miterlimit="10"/>
<path d="M8.61365 669.591C9.3841 669.591 10.0087 669.027 10.0087 668.333C10.0087 667.638 9.3841 667.075 8.61365 667.075C7.8432 667.075 7.21863 667.638 7.21863 668.333C7.21863 669.027 7.8432 669.591 8.61365 669.591Z" fill="#F87F28"/>
<path d="M26.8098 669.591C27.5802 669.591 28.2048 669.027 28.2048 668.333C28.2048 667.638 27.5802 667.075 26.8098 667.075C26.0393 667.075 25.4147 667.638 25.4147 668.333C25.4147 669.027 26.0393 669.591 26.8098 669.591Z" fill="#F87F28"/>
<path d="M8.61365 685.857C9.3841 685.857 10.0087 685.293 10.0087 684.598C10.0087 683.903 9.3841 683.34 8.61365 683.34C7.8432 683.34 7.21863 683.903 7.21863 684.598C7.21863 685.293 7.8432 685.857 8.61365 685.857Z" fill="#F87F28"/>
<path d="M26.8098 685.857C27.5802 685.857 28.2048 685.293 28.2048 684.598C28.2048 683.903 27.5802 683.34 26.8098 683.34C26.0393 683.34 25.4147 683.903 25.4147 684.598C25.4147 685.293 26.0393 685.857 26.8098 685.857Z" fill="#F87F28"/>
<path d="M10.0087 700.864C10.0087 701.113 9.92683 701.356 9.77357 701.563C9.62029 701.769 9.40242 701.931 9.14751 702.026C8.8926 702.121 8.6121 702.146 8.34149 702.098C8.07089 702.049 7.82233 701.929 7.62722 701.754C7.43213 701.577 7.29926 701.353 7.24544 701.109C7.1916 700.865 7.21923 700.613 7.32482 700.382C7.4304 700.152 7.6092 699.956 7.83861 699.818C8.06802 699.679 8.33774 699.606 8.61365 699.606C8.98364 699.606 9.33847 699.739 9.60008 699.974C9.86173 700.21 10.0087 700.53 10.0087 700.864Z" fill="#F87F28"/>
<path d="M28.2041 700.864C28.2041 701.113 28.1222 701.356 27.969 701.563C27.8157 701.769 27.5978 701.931 27.3429 702.026C27.088 702.121 26.8075 702.146 26.5369 702.098C26.2663 702.049 26.0177 701.929 25.8226 701.754C25.6275 701.577 25.4947 701.353 25.4408 701.109C25.3871 700.865 25.4147 700.613 25.5203 700.382C25.6259 700.152 25.8046 699.956 26.034 699.818C26.2635 699.679 26.5332 699.606 26.8091 699.606C26.9923 699.606 27.1736 699.638 27.3429 699.702C27.5122 699.765 27.6659 699.857 27.7955 699.974C27.925 700.091 28.0278 700.23 28.0979 700.382C28.168 700.535 28.2041 700.699 28.2041 700.864Z" fill="#F87F28"/>
<path d="M10.0087 717.13C10.0085 717.379 9.92663 717.622 9.77328 717.829C9.61988 718.036 9.40196 718.197 9.14704 718.293C8.89212 718.388 8.61165 718.412 8.34109 718.363C8.07052 718.315 7.82202 718.195 7.62699 718.019C7.43196 717.843 7.29915 717.619 7.24539 717.375C7.19161 717.131 7.21928 716.878 7.32488 716.649C7.43048 716.419 7.60929 716.222 7.83869 716.084C8.06808 715.946 8.33777 715.872 8.61365 715.872C8.98369 715.872 9.33852 716.005 9.60012 716.241C9.86173 716.477 10.0087 716.797 10.0087 717.13Z" fill="#F87F28"/>
<path d="M28.2041 717.13C28.204 717.379 28.122 717.622 27.9687 717.829C27.8153 718.036 27.5974 718.197 27.3425 718.293C27.0875 718.388 26.8071 718.412 26.5365 718.363C26.2659 718.315 26.0174 718.195 25.8224 718.019C25.6274 717.843 25.4946 717.619 25.4408 717.375C25.3871 717.131 25.4147 716.878 25.5203 716.649C25.6259 716.419 25.8047 716.222 26.0341 716.084C26.2635 715.946 26.5332 715.872 26.8091 715.872C26.9923 715.872 27.1737 715.905 27.3431 715.967C27.5124 716.031 27.6661 716.124 27.7958 716.241C27.9253 716.358 28.0281 716.497 28.0981 716.649C28.1681 716.801 28.2042 716.965 28.2041 717.13Z" fill="#F87F28"/>
<path d="M42.8291 669.591C43.5995 669.591 44.2241 669.027 44.2241 668.333C44.2241 667.638 43.5995 667.075 42.8291 667.075C42.0586 667.075 41.434 667.638 41.434 668.333C41.434 669.027 42.0586 669.591 42.8291 669.591Z" fill="#F87F28"/>
<path d="M61.0252 669.591C61.7957 669.591 62.4202 669.027 62.4202 668.333C62.4202 667.638 61.7957 667.075 61.0252 667.075C60.2548 667.075 59.6301 667.638 59.6301 668.333C59.6301 669.027 60.2548 669.591 61.0252 669.591Z" fill="#F87F28"/>
<path d="M79.2213 669.591C79.9917 669.591 80.6162 669.027 80.6162 668.333C80.6162 667.638 79.9917 667.075 79.2213 667.075C78.4508 667.075 77.8262 667.638 77.8262 668.333C77.8262 669.027 78.4508 669.591 79.2213 669.591Z" fill="#F87F28"/>
<path d="M97.4174 669.591C98.1876 669.591 98.8124 669.027 98.8124 668.333C98.8124 667.638 98.1876 667.075 97.4174 667.075C96.647 667.075 96.0223 667.638 96.0223 668.333C96.0223 669.027 96.647 669.591 97.4174 669.591Z" fill="#F87F28"/>
<path d="M42.8291 685.857C43.5995 685.857 44.2241 685.293 44.2241 684.598C44.2241 683.903 43.5995 683.34 42.8291 683.34C42.0586 683.34 41.434 683.903 41.434 684.598C41.434 685.293 42.0586 685.857 42.8291 685.857Z" fill="#F87F28"/>
<path d="M61.0252 685.857C61.7957 685.857 62.4202 685.293 62.4202 684.598C62.4202 683.903 61.7957 683.34 61.0252 683.34C60.2548 683.34 59.6301 683.903 59.6301 684.598C59.6301 685.293 60.2548 685.857 61.0252 685.857Z" fill="#F87F28"/>
<path d="M79.2213 685.857C79.9917 685.857 80.6162 685.293 80.6162 684.598C80.6162 683.903 79.9917 683.34 79.2213 683.34C78.4508 683.34 77.8262 683.903 77.8262 684.598C77.8262 685.293 78.4508 685.857 79.2213 685.857Z" fill="#F87F28"/>
<path d="M97.4174 685.857C98.1876 685.857 98.8124 685.293 98.8124 684.598C98.8124 683.903 98.1876 683.34 97.4174 683.34C96.647 683.34 96.0223 683.903 96.0223 684.598C96.0223 685.293 96.647 685.857 97.4174 685.857Z" fill="#F87F28"/>
<path d="M44.2241 700.864C44.2241 701.113 44.1423 701.356 43.989 701.563C43.8357 701.769 43.6179 701.931 43.3629 702.026C43.108 702.121 42.8276 702.146 42.5569 702.098C42.2863 702.049 42.0377 701.929 41.8426 701.754C41.6475 701.577 41.5147 701.353 41.4608 701.109C41.4071 700.865 41.4347 700.613 41.5403 700.382C41.6459 700.152 41.8246 699.956 42.054 699.818C42.2834 699.679 42.5532 699.606 42.8291 699.606C43.1991 699.606 43.5539 699.739 43.8155 699.974C44.0772 700.21 44.2241 700.53 44.2241 700.864Z" fill="#F87F28"/>
<path d="M62.4202 700.864C62.4202 701.113 62.3383 701.356 62.185 701.563C62.0318 701.769 61.8139 701.931 61.5589 702.026C61.3041 702.121 61.0236 702.146 60.7529 702.098C60.4824 702.049 60.2338 701.929 60.0387 701.754C59.8436 701.577 59.7108 701.353 59.6569 701.109C59.6031 700.865 59.6307 700.613 59.7363 700.382C59.8419 700.152 60.0207 699.956 60.2501 699.818C60.4795 699.679 60.7493 699.606 61.0252 699.606C61.3951 699.606 61.75 699.739 62.0115 699.974C62.2732 700.21 62.4202 700.53 62.4202 700.864Z" fill="#F87F28"/>
<path d="M80.6163 700.864C80.6163 701.113 80.5345 701.356 80.3812 701.563C80.2279 701.769 80.0101 701.931 79.7552 702.026C79.5002 702.121 79.2198 702.146 78.9491 702.098C78.6785 702.049 78.4299 701.929 78.2348 701.754C78.0397 701.577 77.9069 701.353 77.8531 701.109C77.7993 700.865 77.8269 700.613 77.9325 700.382C78.0381 700.152 78.2168 699.956 78.4462 699.818C78.6757 699.679 78.9454 699.606 79.2213 699.606C79.5913 699.606 79.9461 699.739 80.2077 699.974C80.4694 700.21 80.6163 700.53 80.6163 700.864Z" fill="#F87F28"/>
<path d="M98.8114 700.864C98.8114 701.113 98.7301 701.356 98.577 701.563C98.423 701.769 98.206 701.931 97.9502 702.026C97.6954 702.121 97.4155 702.146 97.1442 702.098C96.8739 702.049 96.6254 701.929 96.4302 701.754C96.2352 701.577 96.1023 701.353 96.0486 701.109C95.9947 700.865 96.0223 700.613 96.1279 700.382C96.2335 700.152 96.4122 699.956 96.6417 699.818C96.8711 699.679 97.1403 699.606 97.4164 699.606C97.5995 699.606 97.7816 699.638 97.9502 699.702C98.1197 699.765 98.2738 699.857 98.4036 699.974C98.5324 700.091 98.6351 700.23 98.7058 700.382C98.7756 700.535 98.8114 700.699 98.8114 700.864Z" fill="#F87F28"/>
<path d="M44.2241 717.13C44.224 717.379 44.1421 717.622 43.9887 717.829C43.8354 718.036 43.6174 718.197 43.3625 718.293C43.1075 718.388 42.8271 718.412 42.5565 718.363C42.2859 718.315 42.0374 718.195 41.8424 718.019C41.6474 717.843 41.5146 717.619 41.4608 717.375C41.4071 717.131 41.4347 716.878 41.5403 716.649C41.6459 716.419 41.8247 716.222 42.0541 716.084C42.2835 715.946 42.5532 715.872 42.8291 715.872C43.0123 715.872 43.1938 715.905 43.3631 715.967C43.5324 716.031 43.6862 716.124 43.8158 716.241C43.9453 716.358 44.048 716.497 44.1181 716.649C44.1882 716.801 44.2242 716.965 44.2241 717.13Z" fill="#F87F28"/>
<path d="M62.4202 717.13C62.4201 717.379 62.3381 717.622 62.1847 717.829C62.0314 718.036 61.8134 718.197 61.5585 718.293C61.3036 718.388 61.0231 718.412 60.7525 718.363C60.482 718.315 60.2335 718.195 60.0385 718.019C59.8435 717.843 59.7107 717.619 59.6569 717.375C59.6031 717.131 59.6307 716.878 59.7363 716.649C59.8419 716.419 60.0208 716.222 60.2502 716.084C60.4796 715.946 60.7493 715.872 61.0252 715.872C61.2083 715.872 61.3898 715.905 61.5591 715.967C61.7285 716.031 61.8822 716.124 62.0118 716.241C62.1413 716.358 62.244 716.497 62.3142 716.649C62.3842 716.801 62.4203 716.965 62.4202 717.13Z" fill="#F87F28"/>
<path d="M80.6163 717.13C80.6162 717.379 80.5343 717.622 80.3809 717.829C80.2276 718.036 80.0096 718.197 79.7547 718.293C79.4997 718.388 79.2193 718.412 78.9487 718.363C78.6781 718.315 78.4297 718.195 78.2346 718.019C78.0396 717.843 77.9068 717.619 77.8531 717.375C77.7993 717.131 77.8269 716.878 77.9325 716.649C78.0381 716.419 78.2169 716.222 78.4463 716.084C78.6757 715.946 78.9454 715.872 79.2213 715.872C79.5914 715.872 79.9461 716.005 80.2078 716.241C80.4694 716.477 80.6163 716.797 80.6163 717.13Z" fill="#F87F28"/>
<path d="M98.8115 717.13C98.8115 717.379 98.7301 717.622 98.5761 717.829C98.423 718.036 98.205 718.197 97.9503 718.293C97.6955 718.388 97.4145 718.412 97.1443 718.363C96.8736 718.315 96.6251 718.195 96.4301 718.019C96.2351 717.843 96.1023 717.619 96.0485 717.375C95.9947 717.131 96.0223 716.878 96.1279 716.649C96.2336 716.419 96.4124 716.222 96.6418 716.084C96.8712 715.946 97.1413 715.872 97.4165 715.872C97.5996 715.872 97.7817 715.905 97.9512 715.967C98.1198 716.031 98.2738 716.124 98.4036 716.241C98.5334 716.358 98.6361 716.497 98.7059 716.649C98.7756 716.801 98.8115 716.965 98.8115 717.13Z" fill="#F87F28"/>
<path d="M42.8291 733.43C43.5995 733.43 44.2241 732.867 44.2241 732.172C44.2241 731.477 43.5995 730.914 42.8291 730.914C42.0586 730.914 41.434 731.477 41.434 732.172C41.434 732.867 42.0586 733.43 42.8291 733.43Z" fill="#F87F28"/>
<path d="M61.0252 733.43C61.7957 733.43 62.4202 732.867 62.4202 732.172C62.4202 731.477 61.7957 730.914 61.0252 730.914C60.2548 730.914 59.6301 731.477 59.6301 732.172C59.6301 732.867 60.2548 733.43 61.0252 733.43Z" fill="#F87F28"/>
<path d="M79.2213 733.43C79.9917 733.43 80.6162 732.867 80.6162 732.172C80.6162 731.477 79.9917 730.914 79.2213 730.914C78.4508 730.914 77.8262 731.477 77.8262 732.172C77.8262 732.867 78.4508 733.43 79.2213 733.43Z" fill="#F87F28"/>
<path d="M97.4174 733.43C98.1876 733.43 98.8124 732.867 98.8124 732.172C98.8124 731.477 98.1876 730.914 97.4174 730.914C96.647 730.914 96.0223 731.477 96.0223 732.172C96.0223 732.867 96.647 733.43 97.4174 733.43Z" fill="#F87F28"/>
<path d="M42.8291 749.696C43.5995 749.696 44.2241 749.133 44.2241 748.438C44.2241 747.743 43.5995 747.18 42.8291 747.18C42.0586 747.18 41.434 747.743 41.434 748.438C41.434 749.133 42.0586 749.696 42.8291 749.696Z" fill="#F87F28"/>
<path d="M61.0252 749.696C61.7957 749.696 62.4202 749.133 62.4202 748.438C62.4202 747.743 61.7957 747.18 61.0252 747.18C60.2548 747.18 59.6301 747.743 59.6301 748.438C59.6301 749.133 60.2548 749.696 61.0252 749.696Z" fill="#F87F28"/>
<path d="M79.2213 749.696C79.9917 749.696 80.6162 749.133 80.6162 748.438C80.6162 747.743 79.9917 747.18 79.2213 747.18C78.4508 747.18 77.8262 747.743 77.8262 748.438C77.8262 749.133 78.4508 749.696 79.2213 749.696Z" fill="#F87F28"/>
<path d="M97.4174 749.696C98.1876 749.696 98.8124 749.133 98.8124 748.438C98.8124 747.743 98.1876 747.18 97.4174 747.18C96.647 747.18 96.0223 747.743 96.0223 748.438C96.0223 749.133 96.647 749.696 97.4174 749.696Z" fill="#F87F28"/>
<path d="M44.224 764.703C44.224 764.952 44.1422 765.196 43.9889 765.403C43.8357 765.61 43.6178 765.77 43.3628 765.865C43.1079 765.961 42.8275 765.986 42.5568 765.937C42.2862 765.889 42.0377 765.768 41.8426 765.593C41.6475 765.417 41.5146 765.193 41.4608 764.949C41.4069 764.705 41.4346 764.452 41.5401 764.222C41.6457 763.993 41.8245 763.796 42.0539 763.657C42.2833 763.519 42.5531 763.445 42.829 763.445C43.199 763.445 43.5539 763.578 43.8154 763.814C44.0771 764.05 44.224 764.37 44.224 764.703Z" fill="#F87F28"/>
<path d="M62.4202 764.703C62.4202 764.952 62.3383 765.196 62.1851 765.403C62.0318 765.61 61.8139 765.77 61.559 765.865C61.3041 765.961 61.0236 765.986 60.753 765.937C60.4824 765.889 60.2338 765.768 60.0387 765.593C59.8436 765.417 59.7108 765.193 59.6569 764.949C59.6031 764.705 59.6308 764.452 59.7364 764.222C59.8419 763.993 60.0207 763.796 60.2501 763.657C60.4795 763.519 60.7492 763.445 61.0252 763.445C61.3952 763.445 61.7499 763.578 62.0116 763.814C62.2732 764.05 62.4202 764.37 62.4202 764.703Z" fill="#F87F28"/>
<path d="M80.6163 764.703C80.6163 764.952 80.5345 765.196 80.3812 765.403C80.228 765.61 80.0101 765.77 79.7551 765.865C79.5002 765.961 79.2198 765.986 78.9491 765.937C78.6785 765.889 78.43 765.768 78.2348 765.593C78.0397 765.417 77.9069 765.193 77.8531 764.949C77.7993 764.705 77.8269 764.452 77.9324 764.222C78.038 763.993 78.2168 763.796 78.4462 763.657C78.6756 763.519 78.9454 763.445 79.2213 763.445C79.5913 763.445 79.9462 763.578 80.2077 763.814C80.4694 764.05 80.6163 764.37 80.6163 764.703Z" fill="#F87F28"/>
<path d="M98.8115 764.703C98.8115 764.952 98.7301 765.196 98.577 765.403C98.423 765.61 98.205 765.77 97.9503 765.865C97.6955 765.961 97.4155 765.986 97.1443 765.937C96.874 765.889 96.6254 765.768 96.4303 765.593C96.2352 765.417 96.1024 765.193 96.0485 764.949C95.9947 764.705 96.0223 764.452 96.1279 764.222C96.2335 763.993 96.4123 763.796 96.6418 763.657C96.8712 763.519 97.1404 763.445 97.4165 763.445C97.5996 763.445 97.7817 763.478 97.9503 763.541C98.1198 763.604 98.2738 763.697 98.4036 763.814C98.5325 763.931 98.6352 764.069 98.7059 764.222C98.7756 764.375 98.8115 764.538 98.8115 764.703Z" fill="#F87F28"/>
<path d="M44.224 780.97C44.2238 781.219 44.142 781.462 43.9886 781.669C43.8352 781.876 43.6173 782.037 43.3624 782.132C43.1074 782.227 42.827 782.252 42.5564 782.204C42.2858 782.155 42.0374 782.035 41.8424 781.859C41.6473 781.683 41.5145 781.459 41.4608 781.215C41.4069 780.971 41.4346 780.718 41.5402 780.488C41.6458 780.258 41.8246 780.062 42.054 779.924C42.2834 779.786 42.5531 779.712 42.829 779.712C43.0122 779.712 43.1937 779.744 43.363 779.808C43.5322 779.871 43.6861 779.963 43.8156 780.08C43.9452 780.197 44.0479 780.336 44.118 780.489C44.1881 780.642 44.2241 780.805 44.224 780.97Z" fill="#F87F28"/>
<path d="M62.4202 780.97C62.42 781.219 62.3381 781.462 62.1848 781.669C62.0313 781.876 61.8135 782.037 61.5586 782.132C61.3036 782.227 61.0232 782.252 60.7526 782.204C60.482 782.155 60.2335 782.035 60.0385 781.859C59.8434 781.683 59.7107 781.459 59.6569 781.215C59.6031 780.971 59.6308 780.718 59.7364 780.488C59.842 780.258 60.0208 780.062 60.2502 779.924C60.4796 779.786 60.7493 779.712 61.0252 779.712C61.2084 779.712 61.3898 779.744 61.5592 779.808C61.7284 779.871 61.8822 779.963 62.0119 780.08C62.1414 780.197 62.2441 780.336 62.3142 780.489C62.3842 780.642 62.4203 780.805 62.4202 780.97Z" fill="#F87F28"/>
<path d="M80.6164 780.97C80.6162 781.219 80.5343 781.462 80.381 781.669C80.2276 781.876 80.0096 782.037 79.7548 782.132C79.4998 782.227 79.2193 782.252 78.9488 782.204C78.6782 782.155 78.4297 782.035 78.2347 781.859C78.0397 781.683 77.9069 781.459 77.8531 781.215C77.7992 780.971 77.8269 780.718 77.9325 780.488C78.0381 780.258 78.217 780.062 78.4464 779.924C78.6758 779.786 78.9455 779.712 79.2214 779.712C79.5914 779.712 79.9462 779.844 80.2077 780.08C80.4694 780.317 80.6164 780.636 80.6164 780.97Z" fill="#F87F28"/>
<path d="M98.8115 780.97C98.8115 781.219 98.7301 781.462 98.5761 781.669C98.423 781.876 98.205 782.037 97.9503 782.132C97.6955 782.227 97.4145 782.252 97.1443 782.204C96.8736 782.155 96.6251 782.035 96.4301 781.859C96.2351 781.683 96.1023 781.459 96.0485 781.215C95.9947 780.971 96.0223 780.718 96.1279 780.488C96.2336 780.258 96.4124 780.062 96.6418 779.924C96.8712 779.786 97.1413 779.712 97.4165 779.712C97.5996 779.712 97.7817 779.744 97.9512 779.808C98.1198 779.871 98.2738 779.963 98.4036 780.08C98.5334 780.197 98.6361 780.336 98.7059 780.489C98.7756 780.642 98.8115 780.805 98.8115 780.97Z" fill="#F87F28"/>
<path d="M8.61365 733.43C9.3841 733.43 10.0087 732.867 10.0087 732.172C10.0087 731.477 9.3841 730.914 8.61365 730.914C7.8432 730.914 7.21863 731.477 7.21863 732.172C7.21863 732.867 7.8432 733.43 8.61365 733.43Z" fill="#F87F28"/>
<path d="M26.8098 733.43C27.5802 733.43 28.2048 732.867 28.2048 732.172C28.2048 731.477 27.5802 730.914 26.8098 730.914C26.0393 730.914 25.4147 731.477 25.4147 732.172C25.4147 732.867 26.0393 733.43 26.8098 733.43Z" fill="#F87F28"/>
<path d="M8.61365 749.696C9.3841 749.696 10.0087 749.133 10.0087 748.438C10.0087 747.743 9.3841 747.18 8.61365 747.18C7.8432 747.18 7.21863 747.743 7.21863 748.438C7.21863 749.133 7.8432 749.696 8.61365 749.696Z" fill="#F87F28"/>
<path d="M26.8098 749.696C27.5802 749.696 28.2048 749.133 28.2048 748.438C28.2048 747.743 27.5802 747.18 26.8098 747.18C26.0393 747.18 25.4147 747.743 25.4147 748.438C25.4147 749.133 26.0393 749.696 26.8098 749.696Z" fill="#F87F28"/>
<path d="M10.0087 764.703C10.0087 764.952 9.92683 765.196 9.77357 765.403C9.62029 765.61 9.40242 765.77 9.14751 765.865C8.8926 765.961 8.6121 765.986 8.34149 765.937C8.07089 765.889 7.82233 765.768 7.62722 765.593C7.43213 765.417 7.29926 765.193 7.24544 764.949C7.1916 764.705 7.21923 764.452 7.32482 764.222C7.4304 763.993 7.6092 763.796 7.83861 763.657C8.06802 763.519 8.33774 763.445 8.61365 763.445C8.98364 763.445 9.33847 763.578 9.60008 763.814C9.86173 764.05 10.0087 764.37 10.0087 764.703Z" fill="#F87F28"/>
<path d="M28.2041 764.703C28.2041 764.952 28.1222 765.196 27.969 765.403C27.8157 765.61 27.5978 765.77 27.3429 765.865C27.088 765.961 26.8075 765.986 26.5369 765.937C26.2663 765.889 26.0177 765.768 25.8226 765.593C25.6275 765.417 25.4947 765.193 25.4408 764.949C25.3871 764.705 25.4147 764.452 25.5203 764.222C25.6259 763.993 25.8046 763.796 26.034 763.657C26.2635 763.519 26.5332 763.445 26.8091 763.445C26.9923 763.445 27.1736 763.478 27.3429 763.541C27.5122 763.604 27.6659 763.697 27.7955 763.814C27.925 763.931 28.0278 764.069 28.0979 764.222C28.168 764.375 28.2041 764.538 28.2041 764.703Z" fill="#F87F28"/>
<path d="M10.0087 780.97C10.0085 781.219 9.92663 781.462 9.77328 781.669C9.61988 781.876 9.40196 782.037 9.14704 782.132C8.89212 782.227 8.61165 782.252 8.34109 782.204C8.07052 782.155 7.82202 782.035 7.62699 781.859C7.43196 781.683 7.29915 781.459 7.24539 781.215C7.19161 780.971 7.21928 780.718 7.32488 780.488C7.43048 780.258 7.60929 780.062 7.83869 779.924C8.06808 779.786 8.33777 779.712 8.61365 779.712C8.98369 779.712 9.33852 779.844 9.60012 780.08C9.86173 780.317 10.0087 780.636 10.0087 780.97Z" fill="#F87F28"/>
<path d="M28.2041 780.97C28.204 781.219 28.122 781.462 27.9687 781.669C27.8153 781.876 27.5974 782.037 27.3425 782.132C27.0875 782.227 26.8071 782.252 26.5365 782.204C26.2659 782.155 26.0174 782.035 25.8224 781.859C25.6274 781.683 25.4946 781.459 25.4408 781.215C25.3871 780.971 25.4147 780.718 25.5203 780.488C25.6259 780.258 25.8047 780.062 26.0341 779.924C26.2635 779.786 26.5332 779.712 26.8091 779.712C26.9923 779.712 27.1737 779.744 27.3431 779.808C27.5124 779.871 27.6661 779.963 27.7958 780.08C27.9253 780.197 28.0281 780.336 28.0981 780.489C28.1681 780.642 28.2042 780.805 28.2041 780.97Z" fill="#F87F28"/>
<path d="M8.61365 797.269C9.3841 797.269 10.0087 796.706 10.0087 796.012C10.0087 795.317 9.3841 794.754 8.61365 794.754C7.8432 794.754 7.21863 795.317 7.21863 796.012C7.21863 796.706 7.8432 797.269 8.61365 797.269Z" fill="#F87F28"/>
<path d="M26.8098 797.269C27.5802 797.269 28.2048 796.706 28.2048 796.012C28.2048 795.317 27.5802 794.754 26.8098 794.754C26.0393 794.754 25.4147 795.317 25.4147 796.012C25.4147 796.706 26.0393 797.269 26.8098 797.269Z" fill="#F87F28"/>
<path d="M8.61365 813.535C9.3841 813.535 10.0087 812.972 10.0087 812.278C10.0087 811.583 9.3841 811.02 8.61365 811.02C7.8432 811.02 7.21863 811.583 7.21863 812.278C7.21863 812.972 7.8432 813.535 8.61365 813.535Z" fill="#F87F28"/>
<path d="M26.8098 813.535C27.5802 813.535 28.2048 812.972 28.2048 812.278C28.2048 811.583 27.5802 811.02 26.8098 811.02C26.0393 811.02 25.4147 811.583 25.4147 812.278C25.4147 812.972 26.0393 813.535 26.8098 813.535Z" fill="#F87F28"/>
<path d="M42.8291 797.269C43.5995 797.269 44.2241 796.706 44.2241 796.012C44.2241 795.317 43.5995 794.754 42.8291 794.754C42.0586 794.754 41.434 795.317 41.434 796.012C41.434 796.706 42.0586 797.269 42.8291 797.269Z" fill="#F87F28"/>
<path d="M61.0252 797.269C61.7957 797.269 62.4202 796.706 62.4202 796.012C62.4202 795.317 61.7957 794.754 61.0252 794.754C60.2548 794.754 59.6301 795.317 59.6301 796.012C59.6301 796.706 60.2548 797.269 61.0252 797.269Z" fill="#F87F28"/>
<path d="M79.2213 797.269C79.9917 797.269 80.6162 796.706 80.6162 796.012C80.6162 795.317 79.9917 794.754 79.2213 794.754C78.4508 794.754 77.8262 795.317 77.8262 796.012C77.8262 796.706 78.4508 797.269 79.2213 797.269Z" fill="#F87F28"/>
<path d="M97.4174 797.269C98.1876 797.269 98.8124 796.706 98.8124 796.012C98.8124 795.317 98.1876 794.754 97.4174 794.754C96.647 794.754 96.0223 795.317 96.0223 796.012C96.0223 796.706 96.647 797.269 97.4174 797.269Z" fill="#F87F28"/>
<path d="M42.8291 813.535C43.5995 813.535 44.2241 812.972 44.2241 812.278C44.2241 811.583 43.5995 811.02 42.8291 811.02C42.0586 811.02 41.434 811.583 41.434 812.278C41.434 812.972 42.0586 813.535 42.8291 813.535Z" fill="#F87F28"/>
<path d="M61.0252 813.535C61.7957 813.535 62.4202 812.972 62.4202 812.278C62.4202 811.583 61.7957 811.02 61.0252 811.02C60.2548 811.02 59.6301 811.583 59.6301 812.278C59.6301 812.972 60.2548 813.535 61.0252 813.535Z" fill="#F87F28"/>
<path d="M79.2213 813.535C79.9917 813.535 80.6162 812.972 80.6162 812.278C80.6162 811.583 79.9917 811.02 79.2213 811.02C78.4508 811.02 77.8262 811.583 77.8262 812.278C77.8262 812.972 78.4508 813.535 79.2213 813.535Z" fill="#F87F28"/>
<path d="M97.4174 813.535C98.1876 813.535 98.8124 812.972 98.8124 812.278C98.8124 811.583 98.1876 811.02 97.4174 811.02C96.647 811.02 96.0223 811.583 96.0223 812.278C96.0223 812.972 96.647 813.535 97.4174 813.535Z" fill="#F87F28"/>
<path d="M1789.14 272.608C1790.27 272.608 1791.18 271.784 1791.18 270.767C1791.18 269.75 1790.27 268.925 1789.14 268.925C1788.01 268.925 1787.1 269.75 1787.1 270.767C1787.1 271.784 1788.01 272.608 1789.14 272.608Z" fill="#4181E0" fill-opacity="0.34"/>
<path d="M1815.79 272.608C1816.92 272.608 1817.83 271.784 1817.83 270.767C1817.83 269.75 1816.92 268.925 1815.79 268.925C1814.66 268.925 1813.74 269.75 1813.74 270.767C1813.74 271.784 1814.66 272.608 1815.79 272.608Z" fill="#4181E0" fill-opacity="0.34"/>
<path d="M1842.44 272.608C1843.57 272.608 1844.48 271.784 1844.48 270.767C1844.48 269.75 1843.57 268.925 1842.44 268.925C1841.31 268.925 1840.39 269.75 1840.39 270.767C1840.39 271.784 1841.31 272.608 1842.44 272.608Z" fill="#4181E0" fill-opacity="0.34"/>
<path d="M1789.14 296.418C1790.27 296.418 1791.18 295.593 1791.18 294.576C1791.18 293.559 1790.27 292.735 1789.14 292.735C1788.01 292.735 1787.1 293.559 1787.1 294.576C1787.1 295.593 1788.01 296.418 1789.14 296.418Z" fill="#4181E0" fill-opacity="0.34"/>
<path d="M1815.79 296.418C1816.92 296.418 1817.83 295.593 1817.83 294.576C1817.83 293.559 1816.92 292.735 1815.79 292.735C1814.66 292.735 1813.74 293.559 1813.74 294.576C1813.74 295.593 1814.66 296.418 1815.79 296.418Z" fill="#4181E0" fill-opacity="0.34"/>
<path d="M1842.44 296.418C1843.57 296.418 1844.48 295.593 1844.48 294.576C1844.48 293.559 1843.57 292.735 1842.44 292.735C1841.31 292.735 1840.39 293.559 1840.39 294.576C1840.39 295.593 1841.31 296.418 1842.44 296.418Z" fill="#4181E0" fill-opacity="0.34"/>
<path d="M1791.18 318.386C1791.18 318.75 1791.06 319.106 1790.84 319.409C1790.62 319.712 1790.3 319.948 1789.92 320.087C1789.55 320.226 1789.14 320.263 1788.74 320.192C1788.34 320.121 1787.98 319.945 1787.69 319.688C1787.41 319.43 1787.22 319.103 1787.14 318.745C1787.05 318.388 1787.1 318.017 1787.26 317.681C1787.41 317.345 1787.67 317.057 1788 316.854C1788.34 316.653 1788.74 316.544 1789.14 316.544C1789.68 316.544 1790.2 316.738 1790.59 317.084C1790.97 317.429 1791.18 317.898 1791.18 318.386Z" fill="#4181E0" fill-opacity="0.34"/>
<path d="M1817.83 318.386C1817.83 318.75 1817.71 319.106 1817.49 319.409C1817.26 319.712 1816.95 319.948 1816.57 320.087C1816.19 320.226 1815.79 320.263 1815.39 320.192C1814.99 320.121 1814.63 319.945 1814.34 319.688C1814.06 319.43 1813.87 319.103 1813.78 318.745C1813.7 318.388 1813.74 318.017 1813.9 317.681C1814.05 317.345 1814.31 317.057 1814.65 316.854C1814.99 316.653 1815.39 316.544 1815.79 316.544C1816.33 316.544 1816.85 316.738 1817.23 317.084C1817.62 317.429 1817.83 317.898 1817.83 318.386Z" fill="#4181E0" fill-opacity="0.34"/>
<path d="M1844.48 318.386C1844.48 318.75 1844.36 319.106 1844.14 319.409C1843.91 319.712 1843.59 319.948 1843.22 320.087C1842.84 320.226 1842.44 320.263 1842.04 320.192C1841.64 320.121 1841.28 319.945 1840.99 319.688C1840.71 319.43 1840.51 319.103 1840.43 318.745C1840.35 318.388 1840.39 318.017 1840.55 317.681C1840.7 317.345 1840.96 317.057 1841.3 316.854C1841.64 316.653 1842.03 316.544 1842.44 316.544C1842.98 316.544 1843.5 316.738 1843.88 317.084C1844.27 317.429 1844.48 317.898 1844.48 318.386Z" fill="#4181E0" fill-opacity="0.34"/>
<path d="M1791.18 342.197C1791.18 342.561 1791.06 342.917 1790.84 343.22C1790.62 343.523 1790.3 343.758 1789.92 343.898C1789.55 344.037 1789.14 344.073 1788.74 344.002C1788.34 343.931 1787.98 343.756 1787.69 343.498C1787.41 343.241 1787.22 342.912 1787.14 342.555C1787.05 342.198 1787.1 341.828 1787.26 341.492C1787.41 341.155 1787.67 340.867 1788 340.665C1788.34 340.463 1788.74 340.355 1789.14 340.355C1789.41 340.355 1789.68 340.403 1789.92 340.495C1790.17 340.588 1790.4 340.723 1790.59 340.894C1790.77 341.066 1790.93 341.269 1791.03 341.493C1791.13 341.716 1791.18 341.955 1791.18 342.197Z" fill="#4181E0" fill-opacity="0.34"/>
<path d="M1817.83 342.197C1817.83 342.561 1817.71 342.917 1817.49 343.22C1817.26 343.523 1816.94 343.758 1816.57 343.898C1816.19 344.037 1815.79 344.073 1815.39 344.002C1814.99 343.931 1814.63 343.756 1814.34 343.498C1814.06 343.241 1813.87 342.912 1813.78 342.555C1813.7 342.198 1813.74 341.828 1813.9 341.492C1814.05 341.155 1814.31 340.867 1814.65 340.665C1814.99 340.463 1815.39 340.355 1815.79 340.355C1816.06 340.355 1816.32 340.403 1816.57 340.495C1816.82 340.588 1817.05 340.723 1817.23 340.894C1817.42 341.066 1817.58 341.269 1817.68 341.493C1817.78 341.716 1817.83 341.955 1817.83 342.197Z" fill="#4181E0" fill-opacity="0.34"/>
<path d="M1844.48 342.197C1844.48 342.561 1844.36 342.917 1844.14 343.22C1843.91 343.523 1843.59 343.758 1843.22 343.898C1842.84 344.037 1842.44 344.073 1842.04 344.002C1841.64 343.931 1841.28 343.756 1840.99 343.498C1840.71 343.241 1840.51 342.912 1840.43 342.555C1840.35 342.198 1840.39 341.828 1840.55 341.492C1840.7 341.155 1840.96 340.867 1841.3 340.665C1841.64 340.463 1842.03 340.355 1842.44 340.355C1842.98 340.355 1843.5 340.55 1843.88 340.894C1844.27 341.24 1844.48 341.709 1844.48 342.197Z" fill="#4181E0" fill-opacity="0.34"/>
<path d="M1685.73 272.608C1686.86 272.608 1687.78 271.784 1687.78 270.767C1687.78 269.75 1686.86 268.925 1685.73 268.925C1684.6 268.925 1683.69 269.75 1683.69 270.767C1683.69 271.784 1684.6 272.608 1685.73 272.608Z" fill="#4181E0" fill-opacity="0.34"/>
<path d="M1712.38 272.608C1713.51 272.608 1714.43 271.784 1714.43 270.767C1714.43 269.75 1713.51 268.925 1712.38 268.925C1711.25 268.925 1710.34 269.75 1710.34 270.767C1710.34 271.784 1711.25 272.608 1712.38 272.608Z" fill="#4181E0" fill-opacity="0.34"/>
<path d="M1739.03 272.608C1740.16 272.608 1741.08 271.784 1741.08 270.767C1741.08 269.75 1740.16 268.925 1739.03 268.925C1737.9 268.925 1736.99 269.75 1736.99 270.767C1736.99 271.784 1737.9 272.608 1739.03 272.608Z" fill="#4181E0" fill-opacity="0.34"/>
<path d="M1765.68 272.608C1766.81 272.608 1767.73 271.784 1767.73 270.767C1767.73 269.75 1766.81 268.925 1765.68 268.925C1764.55 268.925 1763.64 269.75 1763.64 270.767C1763.64 271.784 1764.55 272.608 1765.68 272.608Z" fill="#4181E0" fill-opacity="0.34"/>
<path d="M1685.73 296.418C1686.86 296.418 1687.78 295.593 1687.78 294.576C1687.78 293.559 1686.86 292.735 1685.73 292.735C1684.6 292.735 1683.69 293.559 1683.69 294.576C1683.69 295.593 1684.6 296.418 1685.73 296.418Z" fill="#4181E0" fill-opacity="0.34"/>
<path d="M1712.38 296.418C1713.51 296.418 1714.43 295.593 1714.43 294.576C1714.43 293.559 1713.51 292.735 1712.38 292.735C1711.25 292.735 1710.34 293.559 1710.34 294.576C1710.34 295.593 1711.25 296.418 1712.38 296.418Z" fill="#4181E0" fill-opacity="0.34"/>
<path d="M1739.03 296.418C1740.16 296.418 1741.08 295.593 1741.08 294.576C1741.08 293.559 1740.16 292.735 1739.03 292.735C1737.9 292.735 1736.99 293.559 1736.99 294.576C1736.99 295.593 1737.9 296.418 1739.03 296.418Z" fill="#4181E0" fill-opacity="0.34"/>
<path d="M1765.68 296.418C1766.81 296.418 1767.73 295.593 1767.73 294.576C1767.73 293.559 1766.81 292.735 1765.68 292.735C1764.55 292.735 1763.64 293.559 1763.64 294.576C1763.64 295.593 1764.55 296.418 1765.68 296.418Z" fill="#4181E0" fill-opacity="0.34"/>
<path d="M1687.78 318.386C1687.78 318.75 1687.65 319.106 1687.43 319.409C1687.2 319.712 1686.88 319.948 1686.52 320.087C1686.14 320.226 1685.73 320.263 1685.33 320.192C1684.94 320.121 1684.57 319.945 1684.29 319.688C1684 319.43 1683.8 319.103 1683.73 318.745C1683.65 318.388 1683.69 318.017 1683.84 317.681C1684 317.345 1684.26 317.057 1684.6 316.854C1684.93 316.653 1685.32 316.544 1685.73 316.544C1686.27 316.544 1686.79 316.738 1687.17 317.084C1687.56 317.429 1687.78 317.898 1687.78 318.386Z" fill="#4181E0" fill-opacity="0.34"/>
<path d="M1714.43 318.386C1714.43 318.75 1714.3 319.106 1714.08 319.409C1713.85 319.712 1713.53 319.948 1713.17 320.087C1712.79 320.226 1712.38 320.263 1711.98 320.192C1711.59 320.121 1711.22 319.945 1710.94 319.688C1710.65 319.43 1710.45 319.103 1710.38 318.745C1710.3 318.388 1710.34 318.017 1710.49 317.681C1710.65 317.345 1710.91 317.057 1711.25 316.854C1711.58 316.653 1711.97 316.544 1712.38 316.544C1712.92 316.544 1713.44 316.738 1713.83 317.084C1714.2 317.429 1714.43 317.898 1714.43 318.386Z" fill="#4181E0" fill-opacity="0.34"/>
<path d="M1741.08 318.386C1741.08 318.75 1740.95 319.106 1740.73 319.409C1740.5 319.712 1740.19 319.948 1739.81 320.087C1739.44 320.226 1739.02 320.263 1738.64 320.192C1738.24 320.121 1737.87 319.945 1737.59 319.688C1737.3 319.43 1737.1 319.103 1737.03 318.745C1736.95 318.388 1736.99 318.017 1737.14 317.681C1737.3 317.345 1737.56 317.057 1737.9 316.854C1738.23 316.653 1738.63 316.544 1739.03 316.544C1739.57 316.544 1740.09 316.738 1740.48 317.084C1740.85 317.429 1741.08 317.898 1741.08 318.386Z" fill="#4181E0" fill-opacity="0.34"/>
<path d="M1767.72 318.386C1767.72 318.75 1767.6 319.106 1767.38 319.409C1767.16 319.712 1766.84 319.948 1766.46 320.087C1766.09 320.226 1765.67 320.263 1765.28 320.192C1764.88 320.121 1764.52 319.945 1764.23 319.688C1763.95 319.43 1763.75 319.103 1763.68 318.745C1763.6 318.388 1763.64 318.017 1763.79 317.681C1763.95 317.345 1764.21 317.057 1764.54 316.854C1764.88 316.653 1765.28 316.544 1765.67 316.544C1765.94 316.544 1766.22 316.592 1766.46 316.685C1766.71 316.778 1766.93 316.913 1767.13 317.084C1767.31 317.255 1767.47 317.458 1767.56 317.681C1767.67 317.905 1767.72 318.144 1767.72 318.386Z" fill="#4181E0" fill-opacity="0.34"/>
<path d="M1687.78 342.197C1687.78 342.561 1687.65 342.917 1687.43 343.22C1687.2 343.523 1686.88 343.758 1686.52 343.898C1686.14 344.037 1685.73 344.073 1685.33 344.002C1684.94 343.931 1684.57 343.756 1684.29 343.498C1684 343.241 1683.8 342.912 1683.73 342.555C1683.65 342.198 1683.69 341.828 1683.84 341.492C1684 341.155 1684.26 340.867 1684.6 340.665C1684.93 340.463 1685.32 340.355 1685.73 340.355C1686 340.355 1686.26 340.403 1686.52 340.495C1686.76 340.588 1686.98 340.723 1687.17 340.894C1687.37 341.066 1687.51 341.269 1687.62 341.493C1687.72 341.716 1687.78 341.955 1687.78 342.197Z" fill="#4181E0" fill-opacity="0.34"/>
<path d="M1714.43 342.197C1714.43 342.561 1714.3 342.917 1714.08 343.22C1713.85 343.523 1713.53 343.758 1713.16 343.898C1712.79 344.037 1712.37 344.073 1711.98 344.002C1711.59 343.931 1711.22 343.756 1710.94 343.498C1710.65 343.241 1710.45 342.912 1710.38 342.555C1710.3 342.198 1710.34 341.828 1710.49 341.492C1710.65 341.155 1710.91 340.867 1711.25 340.665C1711.58 340.463 1711.97 340.355 1712.38 340.355C1712.65 340.355 1712.91 340.403 1713.17 340.495C1713.41 340.588 1713.63 340.723 1713.83 340.894C1714.02 341.066 1714.16 341.269 1714.27 341.493C1714.37 341.716 1714.43 341.955 1714.43 342.197Z" fill="#4181E0" fill-opacity="0.34"/>
<path d="M1741.08 342.197C1741.08 342.561 1740.95 342.917 1740.73 343.22C1740.5 343.523 1740.19 343.758 1739.81 343.898C1739.44 344.037 1739.02 344.073 1738.63 344.002C1738.24 343.931 1737.87 343.756 1737.59 343.498C1737.3 343.241 1737.1 342.912 1737.03 342.555C1736.95 342.198 1736.99 341.828 1737.14 341.492C1737.3 341.155 1737.56 340.867 1737.9 340.665C1738.23 340.463 1738.63 340.355 1739.03 340.355C1739.57 340.355 1740.09 340.55 1740.48 340.894C1740.85 341.24 1741.08 341.709 1741.08 342.197Z" fill="#4181E0" fill-opacity="0.34"/>
<path d="M1767.72 342.197C1767.72 342.561 1767.6 342.917 1767.38 343.22C1767.16 343.523 1766.84 343.758 1766.46 343.898C1766.09 344.037 1765.67 344.073 1765.28 344.002C1764.88 343.931 1764.52 343.756 1764.23 343.498C1763.95 343.241 1763.75 342.912 1763.68 342.555C1763.6 342.198 1763.64 341.828 1763.79 341.492C1763.95 341.155 1764.21 340.867 1764.54 340.665C1764.88 340.463 1765.28 340.355 1765.68 340.355C1765.94 340.355 1766.22 340.403 1766.46 340.495C1766.71 340.588 1766.93 340.723 1767.13 340.894C1767.31 341.066 1767.47 341.269 1767.56 341.493C1767.67 341.716 1767.72 341.955 1767.72 342.197Z" fill="#4181E0" fill-opacity="0.34"/>
<path d="M1685.73 366.056C1686.86 366.056 1687.78 365.232 1687.78 364.215C1687.78 363.198 1686.86 362.374 1685.73 362.374C1684.6 362.374 1683.69 363.198 1683.69 364.215C1683.69 365.232 1684.6 366.056 1685.73 366.056Z" fill="#4181E0" fill-opacity="0.34"/>
<path d="M1712.38 366.056C1713.51 366.056 1714.43 365.232 1714.43 364.215C1714.43 363.198 1713.51 362.374 1712.38 362.374C1711.25 362.374 1710.34 363.198 1710.34 364.215C1710.34 365.232 1711.25 366.056 1712.38 366.056Z" fill="#4181E0" fill-opacity="0.34"/>
<path d="M1739.03 366.056C1740.16 366.056 1741.08 365.232 1741.08 364.215C1741.08 363.198 1740.16 362.374 1739.03 362.374C1737.9 362.374 1736.99 363.198 1736.99 364.215C1736.99 365.232 1737.9 366.056 1739.03 366.056Z" fill="#4181E0" fill-opacity="0.34"/>
<path d="M1765.68 366.056C1766.81 366.056 1767.73 365.232 1767.73 364.215C1767.73 363.198 1766.81 362.374 1765.68 362.374C1764.55 362.374 1763.64 363.198 1763.64 364.215C1763.64 365.232 1764.55 366.056 1765.68 366.056Z" fill="#4181E0" fill-opacity="0.34"/>
<path d="M1685.73 389.866C1686.86 389.866 1687.78 389.042 1687.78 388.024C1687.78 387.007 1686.86 386.183 1685.73 386.183C1684.6 386.183 1683.69 387.007 1683.69 388.024C1683.69 389.042 1684.6 389.866 1685.73 389.866Z" fill="#4181E0" fill-opacity="0.34"/>
<path d="M1712.38 389.866C1713.51 389.866 1714.43 389.042 1714.43 388.024C1714.43 387.007 1713.51 386.183 1712.38 386.183C1711.25 386.183 1710.34 387.007 1710.34 388.024C1710.34 389.042 1711.25 389.866 1712.38 389.866Z" fill="#4181E0" fill-opacity="0.34"/>
<path d="M1739.03 389.866C1740.16 389.866 1741.08 389.042 1741.08 388.024C1741.08 387.007 1740.16 386.183 1739.03 386.183C1737.9 386.183 1736.99 387.007 1736.99 388.024C1736.99 389.042 1737.9 389.866 1739.03 389.866Z" fill="#4181E0" fill-opacity="0.34"/>
<path d="M1765.68 389.866C1766.81 389.866 1767.73 389.042 1767.73 388.024C1767.73 387.007 1766.81 386.183 1765.68 386.183C1764.55 386.183 1763.64 387.007 1763.64 388.024C1763.64 389.042 1764.55 389.866 1765.68 389.866Z" fill="#4181E0" fill-opacity="0.34"/>
<path d="M1687.78 411.834C1687.78 412.198 1687.65 412.554 1687.43 412.857C1687.2 413.16 1686.88 413.396 1686.52 413.535C1686.14 413.675 1685.73 413.711 1685.33 413.64C1684.94 413.569 1684.57 413.393 1684.29 413.136C1684 412.878 1683.8 412.551 1683.73 412.193C1683.65 411.836 1683.69 411.465 1683.84 411.129C1684 410.793 1684.26 410.505 1684.6 410.302C1684.93 410.101 1685.32 409.992 1685.73 409.992C1686.27 409.992 1686.79 410.186 1687.17 410.532C1687.56 410.877 1687.78 411.346 1687.78 411.834Z" fill="#4181E0" fill-opacity="0.34"/>
<path d="M1714.43 411.834C1714.43 412.198 1714.3 412.554 1714.08 412.857C1713.85 413.16 1713.53 413.396 1713.17 413.535C1712.79 413.675 1712.38 413.711 1711.98 413.64C1711.59 413.569 1711.22 413.393 1710.94 413.136C1710.65 412.878 1710.45 412.551 1710.38 412.193C1710.3 411.836 1710.34 411.465 1710.49 411.129C1710.65 410.793 1710.91 410.505 1711.25 410.302C1711.58 410.101 1711.97 409.992 1712.38 409.992C1712.92 409.992 1713.44 410.186 1713.83 410.532C1714.2 410.877 1714.43 411.346 1714.43 411.834Z" fill="#4181E0" fill-opacity="0.34"/>
<path d="M1741.08 411.834C1741.08 412.198 1740.95 412.554 1740.73 412.857C1740.5 413.16 1740.19 413.396 1739.81 413.535C1739.44 413.675 1739.02 413.711 1738.64 413.64C1738.24 413.569 1737.87 413.393 1737.59 413.136C1737.3 412.878 1737.1 412.551 1737.03 412.193C1736.95 411.836 1736.99 411.465 1737.14 411.129C1737.3 410.793 1737.56 410.505 1737.9 410.302C1738.23 410.101 1738.63 409.992 1739.03 409.992C1739.57 409.992 1740.09 410.186 1740.48 410.532C1740.85 410.877 1741.08 411.346 1741.08 411.834Z" fill="#4181E0" fill-opacity="0.34"/>
<path d="M1767.72 411.834C1767.72 412.198 1767.6 412.554 1767.38 412.857C1767.16 413.16 1766.84 413.396 1766.46 413.535C1766.09 413.675 1765.67 413.711 1765.28 413.64C1764.88 413.569 1764.52 413.393 1764.23 413.136C1763.95 412.878 1763.75 412.551 1763.68 412.193C1763.6 411.836 1763.64 411.465 1763.79 411.129C1763.95 410.793 1764.21 410.505 1764.54 410.302C1764.88 410.101 1765.28 409.992 1765.67 409.992C1765.94 409.992 1766.22 410.04 1766.46 410.133C1766.71 410.226 1766.93 410.361 1767.13 410.532C1767.31 410.703 1767.47 410.906 1767.56 411.129C1767.67 411.353 1767.72 411.592 1767.72 411.834Z" fill="#4181E0" fill-opacity="0.34"/>
<path d="M1687.78 435.645C1687.78 436.009 1687.65 436.365 1687.43 436.668C1687.2 436.971 1686.88 437.206 1686.52 437.346C1686.14 437.485 1685.73 437.521 1685.33 437.45C1684.94 437.379 1684.57 437.204 1684.29 436.946C1684 436.689 1683.8 436.36 1683.73 436.003C1683.65 435.646 1683.69 435.276 1683.84 434.94C1684 434.603 1684.26 434.315 1684.6 434.113C1684.93 433.911 1685.32 433.803 1685.73 433.803C1686 433.803 1686.26 433.851 1686.52 433.943C1686.76 434.036 1686.98 434.171 1687.17 434.342C1687.37 434.514 1687.51 434.717 1687.62 434.941C1687.72 435.164 1687.78 435.403 1687.78 435.645Z" fill="#4181E0" fill-opacity="0.34"/>
<path d="M1714.43 435.645C1714.43 436.009 1714.3 436.365 1714.08 436.668C1713.85 436.971 1713.53 437.206 1713.16 437.346C1712.79 437.485 1712.37 437.521 1711.98 437.45C1711.59 437.379 1711.22 437.204 1710.94 436.946C1710.65 436.689 1710.45 436.36 1710.38 436.003C1710.3 435.646 1710.34 435.276 1710.49 434.94C1710.65 434.603 1710.91 434.315 1711.25 434.113C1711.58 433.911 1711.97 433.803 1712.38 433.803C1712.65 433.803 1712.91 433.851 1713.17 433.943C1713.41 434.036 1713.63 434.171 1713.83 434.342C1714.02 434.514 1714.16 434.717 1714.27 434.941C1714.37 435.164 1714.43 435.403 1714.43 435.645Z" fill="#4181E0" fill-opacity="0.34"/>
<path d="M1741.08 435.645C1741.08 436.009 1740.95 436.365 1740.73 436.668C1740.5 436.971 1740.19 437.206 1739.81 437.346C1739.44 437.485 1739.02 437.521 1738.63 437.45C1738.24 437.379 1737.87 437.204 1737.59 436.946C1737.3 436.689 1737.1 436.36 1737.03 436.003C1736.95 435.646 1736.99 435.276 1737.14 434.94C1737.3 434.603 1737.56 434.315 1737.9 434.113C1738.23 433.911 1738.63 433.803 1739.03 433.803C1739.57 433.803 1740.09 433.998 1740.48 434.342C1740.85 434.688 1741.08 435.157 1741.08 435.645Z" fill="#4181E0" fill-opacity="0.34"/>
<path d="M1767.72 435.645C1767.72 436.009 1767.6 436.365 1767.38 436.668C1767.16 436.971 1766.84 437.206 1766.46 437.346C1766.09 437.485 1765.67 437.521 1765.28 437.45C1764.88 437.379 1764.52 437.204 1764.23 436.946C1763.95 436.689 1763.75 436.36 1763.68 436.003C1763.6 435.646 1763.64 435.276 1763.79 434.94C1763.95 434.603 1764.21 434.315 1764.54 434.113C1764.88 433.911 1765.28 433.803 1765.68 433.803C1765.94 433.803 1766.22 433.851 1766.46 433.943C1766.71 434.036 1766.93 434.171 1767.13 434.342C1767.31 434.514 1767.47 434.717 1767.56 434.941C1767.67 435.164 1767.72 435.403 1767.72 435.645Z" fill="#4181E0" fill-opacity="0.34"/>
<path d="M1789.14 366.056C1790.27 366.056 1791.18 365.232 1791.18 364.215C1791.18 363.198 1790.27 362.374 1789.14 362.374C1788.01 362.374 1787.1 363.198 1787.1 364.215C1787.1 365.232 1788.01 366.056 1789.14 366.056Z" fill="#4181E0" fill-opacity="0.34"/>
<path d="M1815.79 366.056C1816.92 366.056 1817.83 365.232 1817.83 364.215C1817.83 363.198 1816.92 362.374 1815.79 362.374C1814.66 362.374 1813.74 363.198 1813.74 364.215C1813.74 365.232 1814.66 366.056 1815.79 366.056Z" fill="#4181E0" fill-opacity="0.34"/>
<path d="M1842.44 366.056C1843.57 366.056 1844.48 365.232 1844.48 364.215C1844.48 363.198 1843.57 362.374 1842.44 362.374C1841.31 362.374 1840.39 363.198 1840.39 364.215C1840.39 365.232 1841.31 366.056 1842.44 366.056Z" fill="#4181E0" fill-opacity="0.34"/>
<path d="M1789.14 389.866C1790.27 389.866 1791.18 389.042 1791.18 388.024C1791.18 387.007 1790.27 386.183 1789.14 386.183C1788.01 386.183 1787.1 387.007 1787.1 388.024C1787.1 389.042 1788.01 389.866 1789.14 389.866Z" fill="#4181E0" fill-opacity="0.34"/>
<path d="M1815.79 389.866C1816.92 389.866 1817.83 389.042 1817.83 388.024C1817.83 387.007 1816.92 386.183 1815.79 386.183C1814.66 386.183 1813.74 387.007 1813.74 388.024C1813.74 389.042 1814.66 389.866 1815.79 389.866Z" fill="#4181E0" fill-opacity="0.34"/>
<path d="M1842.44 389.866C1843.57 389.866 1844.48 389.042 1844.48 388.024C1844.48 387.007 1843.57 386.183 1842.44 386.183C1841.31 386.183 1840.39 387.007 1840.39 388.024C1840.39 389.042 1841.31 389.866 1842.44 389.866Z" fill="#4181E0" fill-opacity="0.34"/>
<path d="M1791.18 411.834C1791.18 412.198 1791.06 412.554 1790.84 412.857C1790.62 413.16 1790.3 413.396 1789.92 413.535C1789.55 413.675 1789.14 413.711 1788.74 413.64C1788.34 413.569 1787.98 413.393 1787.69 413.136C1787.41 412.878 1787.22 412.551 1787.14 412.193C1787.05 411.836 1787.1 411.465 1787.26 411.129C1787.41 410.793 1787.67 410.505 1788 410.302C1788.34 410.101 1788.74 409.992 1789.14 409.992C1789.68 409.992 1790.2 410.186 1790.59 410.532C1790.97 410.877 1791.18 411.346 1791.18 411.834Z" fill="#4181E0" fill-opacity="0.34"/>
<path d="M1817.83 411.834C1817.83 412.198 1817.71 412.554 1817.49 412.857C1817.26 413.16 1816.95 413.396 1816.57 413.535C1816.19 413.675 1815.79 413.711 1815.39 413.64C1814.99 413.569 1814.63 413.393 1814.34 413.136C1814.06 412.878 1813.87 412.551 1813.78 412.193C1813.7 411.836 1813.74 411.465 1813.9 411.129C1814.05 410.793 1814.31 410.505 1814.65 410.302C1814.99 410.101 1815.39 409.992 1815.79 409.992C1816.33 409.992 1816.85 410.186 1817.23 410.532C1817.62 410.877 1817.83 411.346 1817.83 411.834Z" fill="#4181E0" fill-opacity="0.34"/>
<path d="M1844.48 411.834C1844.48 412.198 1844.36 412.554 1844.14 412.857C1843.91 413.16 1843.59 413.396 1843.22 413.535C1842.84 413.675 1842.44 413.711 1842.04 413.64C1841.64 413.569 1841.28 413.393 1840.99 413.136C1840.71 412.878 1840.51 412.551 1840.43 412.193C1840.35 411.836 1840.39 411.465 1840.55 411.129C1840.7 410.793 1840.96 410.505 1841.3 410.302C1841.64 410.101 1842.03 409.992 1842.44 409.992C1842.98 409.992 1843.5 410.186 1843.88 410.532C1844.27 410.877 1844.48 411.346 1844.48 411.834Z" fill="#4181E0" fill-opacity="0.34"/>
<path d="M1791.18 435.645C1791.18 436.009 1791.06 436.365 1790.84 436.668C1790.62 436.971 1790.3 437.206 1789.92 437.346C1789.55 437.485 1789.14 437.521 1788.74 437.45C1788.34 437.379 1787.98 437.204 1787.69 436.946C1787.41 436.689 1787.22 436.36 1787.14 436.003C1787.05 435.646 1787.1 435.276 1787.26 434.94C1787.41 434.603 1787.67 434.315 1788 434.113C1788.34 433.911 1788.74 433.803 1789.14 433.803C1789.41 433.803 1789.68 433.851 1789.92 433.943C1790.17 434.036 1790.4 434.171 1790.59 434.342C1790.77 434.514 1790.93 434.717 1791.03 434.941C1791.13 435.164 1791.18 435.403 1791.18 435.645Z" fill="#4181E0" fill-opacity="0.34"/>
<path d="M1817.83 435.645C1817.83 436.009 1817.71 436.365 1817.49 436.668C1817.26 436.971 1816.94 437.206 1816.57 437.346C1816.19 437.485 1815.79 437.521 1815.39 437.45C1814.99 437.379 1814.63 437.204 1814.34 436.946C1814.06 436.689 1813.87 436.36 1813.78 436.003C1813.7 435.646 1813.74 435.276 1813.9 434.94C1814.05 434.603 1814.31 434.315 1814.65 434.113C1814.99 433.911 1815.39 433.803 1815.79 433.803C1816.06 433.803 1816.32 433.851 1816.57 433.943C1816.82 434.036 1817.05 434.171 1817.23 434.342C1817.42 434.514 1817.58 434.717 1817.68 434.941C1817.78 435.164 1817.83 435.403 1817.83 435.645Z" fill="#4181E0" fill-opacity="0.34"/>
<path d="M1844.48 435.645C1844.48 436.009 1844.36 436.365 1844.14 436.668C1843.91 436.971 1843.59 437.206 1843.22 437.346C1842.84 437.485 1842.44 437.521 1842.04 437.45C1841.64 437.379 1841.28 437.204 1840.99 436.946C1840.71 436.689 1840.51 436.36 1840.43 436.003C1840.35 435.646 1840.39 435.276 1840.55 434.94C1840.7 434.603 1840.96 434.315 1841.3 434.113C1841.64 433.911 1842.03 433.803 1842.44 433.803C1842.98 433.803 1843.5 433.998 1843.88 434.342C1844.27 434.688 1844.48 435.157 1844.48 435.645Z" fill="#4181E0" fill-opacity="0.34"/>
<path d="M1685.73 459.504C1686.86 459.504 1687.78 458.68 1687.78 457.663C1687.78 456.646 1686.86 455.822 1685.73 455.822C1684.6 455.822 1683.69 456.646 1683.69 457.663C1683.69 458.68 1684.6 459.504 1685.73 459.504Z" fill="#4181E0" fill-opacity="0.34"/>
<path d="M1712.38 459.504C1713.51 459.504 1714.43 458.68 1714.43 457.663C1714.43 456.646 1713.51 455.822 1712.38 455.822C1711.25 455.822 1710.34 456.646 1710.34 457.663C1710.34 458.68 1711.25 459.504 1712.38 459.504Z" fill="#4181E0" fill-opacity="0.34"/>
<path d="M1739.03 459.504C1740.16 459.504 1741.08 458.68 1741.08 457.663C1741.08 456.646 1740.16 455.822 1739.03 455.822C1737.9 455.822 1736.99 456.646 1736.99 457.663C1736.99 458.68 1737.9 459.504 1739.03 459.504Z" fill="#4181E0" fill-opacity="0.34"/>
<path d="M1765.68 459.504C1766.81 459.504 1767.73 458.68 1767.73 457.663C1767.73 456.646 1766.81 455.822 1765.68 455.822C1764.55 455.822 1763.64 456.646 1763.64 457.663C1763.64 458.68 1764.55 459.504 1765.68 459.504Z" fill="#4181E0" fill-opacity="0.34"/>
<path d="M1685.73 483.314C1686.86 483.314 1687.78 482.49 1687.78 481.472C1687.78 480.455 1686.86 479.631 1685.73 479.631C1684.6 479.631 1683.69 480.455 1683.69 481.472C1683.69 482.49 1684.6 483.314 1685.73 483.314Z" fill="#4181E0" fill-opacity="0.34"/>
<path d="M1712.38 483.314C1713.51 483.314 1714.43 482.49 1714.43 481.472C1714.43 480.455 1713.51 479.631 1712.38 479.631C1711.25 479.631 1710.34 480.455 1710.34 481.472C1710.34 482.49 1711.25 483.314 1712.38 483.314Z" fill="#4181E0" fill-opacity="0.34"/>
<path d="M1739.03 483.314C1740.16 483.314 1741.08 482.49 1741.08 481.472C1741.08 480.455 1740.16 479.631 1739.03 479.631C1737.9 479.631 1736.99 480.455 1736.99 481.472C1736.99 482.49 1737.9 483.314 1739.03 483.314Z" fill="#4181E0" fill-opacity="0.34"/>
<path d="M1765.68 483.314C1766.81 483.314 1767.73 482.49 1767.73 481.472C1767.73 480.455 1766.81 479.631 1765.68 479.631C1764.55 479.631 1763.64 480.455 1763.64 481.472C1763.64 482.49 1764.55 483.314 1765.68 483.314Z" fill="#4181E0" fill-opacity="0.34"/>
<path d="M1687.78 505.282C1687.78 505.646 1687.65 506.002 1687.43 506.305C1687.2 506.608 1686.88 506.844 1686.52 506.983C1686.14 507.122 1685.73 507.159 1685.33 507.088C1684.94 507.017 1684.57 506.841 1684.29 506.584C1684 506.326 1683.8 505.999 1683.73 505.641C1683.65 505.284 1683.69 504.914 1683.84 504.577C1684 504.241 1684.26 503.953 1684.6 503.75C1684.93 503.549 1685.32 503.441 1685.73 503.441C1686.27 503.441 1686.79 503.634 1687.17 503.98C1687.56 504.325 1687.78 504.794 1687.78 505.282Z" fill="#4181E0" fill-opacity="0.34"/>
<path d="M1714.43 505.282C1714.43 505.646 1714.3 506.002 1714.08 506.305C1713.85 506.608 1713.53 506.844 1713.17 506.983C1712.79 507.122 1712.38 507.159 1711.98 507.088C1711.59 507.017 1711.22 506.841 1710.94 506.584C1710.65 506.326 1710.45 505.999 1710.38 505.641C1710.3 505.284 1710.34 504.914 1710.49 504.577C1710.65 504.241 1710.91 503.953 1711.25 503.75C1711.58 503.549 1711.97 503.441 1712.38 503.441C1712.92 503.441 1713.44 503.634 1713.83 503.98C1714.2 504.325 1714.43 504.794 1714.43 505.282Z" fill="#4181E0" fill-opacity="0.34"/>
<path d="M1741.08 505.282C1741.08 505.646 1740.95 506.002 1740.73 506.305C1740.5 506.608 1740.19 506.844 1739.81 506.983C1739.44 507.122 1739.02 507.159 1738.64 507.088C1738.24 507.017 1737.87 506.841 1737.59 506.584C1737.3 506.326 1737.1 505.999 1737.03 505.641C1736.95 505.284 1736.99 504.914 1737.14 504.577C1737.3 504.241 1737.56 503.953 1737.9 503.75C1738.23 503.549 1738.63 503.441 1739.03 503.441C1739.57 503.441 1740.09 503.634 1740.48 503.98C1740.85 504.325 1741.08 504.794 1741.08 505.282Z" fill="#4181E0" fill-opacity="0.34"/>
<path d="M1767.72 505.282C1767.72 505.646 1767.6 506.002 1767.38 506.305C1767.16 506.608 1766.84 506.844 1766.46 506.983C1766.09 507.122 1765.67 507.159 1765.28 507.088C1764.88 507.017 1764.52 506.841 1764.23 506.584C1763.95 506.326 1763.75 505.999 1763.68 505.641C1763.6 505.284 1763.64 504.914 1763.79 504.577C1763.95 504.241 1764.21 503.953 1764.54 503.75C1764.88 503.549 1765.28 503.441 1765.67 503.441C1765.94 503.441 1766.22 503.489 1766.46 503.581C1766.71 503.674 1766.93 503.809 1767.13 503.98C1767.31 504.151 1767.47 504.354 1767.56 504.577C1767.67 504.801 1767.72 505.04 1767.72 505.282Z" fill="#4181E0" fill-opacity="0.34"/>
<path d="M1687.78 529.093C1687.78 529.457 1687.65 529.814 1687.43 530.116C1687.2 530.419 1686.88 530.654 1686.52 530.794C1686.14 530.933 1685.73 530.97 1685.33 530.898C1684.94 530.827 1684.57 530.652 1684.29 530.394C1684 530.137 1683.8 529.808 1683.73 529.451C1683.65 529.094 1683.69 528.724 1683.84 528.388C1684 528.051 1684.26 527.764 1684.6 527.561C1684.93 527.359 1685.32 527.251 1685.73 527.251C1686 527.251 1686.26 527.299 1686.52 527.392C1686.76 527.484 1686.98 527.619 1687.17 527.791C1687.37 527.962 1687.51 528.165 1687.62 528.389C1687.72 528.612 1687.78 528.851 1687.78 529.093Z" fill="#4181E0" fill-opacity="0.34"/>
<path d="M1714.43 529.093C1714.43 529.457 1714.3 529.814 1714.08 530.116C1713.85 530.419 1713.53 530.654 1713.16 530.794C1712.79 530.933 1712.37 530.97 1711.98 530.898C1711.59 530.827 1711.22 530.652 1710.94 530.394C1710.65 530.137 1710.45 529.808 1710.38 529.451C1710.3 529.094 1710.34 528.724 1710.49 528.388C1710.65 528.051 1710.91 527.764 1711.25 527.561C1711.58 527.359 1711.97 527.251 1712.38 527.251C1712.65 527.251 1712.91 527.299 1713.17 527.392C1713.41 527.484 1713.63 527.619 1713.83 527.791C1714.02 527.962 1714.16 528.165 1714.27 528.389C1714.37 528.612 1714.43 528.851 1714.43 529.093Z" fill="#4181E0" fill-opacity="0.34"/>
<path d="M1741.08 529.093C1741.08 529.457 1740.95 529.814 1740.73 530.116C1740.5 530.419 1740.19 530.654 1739.81 530.794C1739.44 530.933 1739.02 530.97 1738.63 530.898C1738.24 530.827 1737.87 530.652 1737.59 530.394C1737.3 530.137 1737.1 529.808 1737.03 529.451C1736.95 529.094 1736.99 528.724 1737.14 528.388C1737.3 528.051 1737.56 527.764 1737.9 527.561C1738.23 527.359 1738.63 527.251 1739.03 527.251C1739.57 527.251 1740.09 527.446 1740.48 527.791C1740.85 528.136 1741.08 528.605 1741.08 529.093Z" fill="#4181E0" fill-opacity="0.34"/>
<path d="M1767.72 529.093C1767.72 529.457 1767.6 529.814 1767.38 530.116C1767.16 530.419 1766.84 530.654 1766.46 530.794C1766.09 530.933 1765.67 530.97 1765.28 530.898C1764.88 530.827 1764.52 530.652 1764.23 530.394C1763.95 530.137 1763.75 529.808 1763.68 529.451C1763.6 529.094 1763.64 528.724 1763.79 528.388C1763.95 528.051 1764.21 527.764 1764.54 527.561C1764.88 527.359 1765.28 527.251 1765.68 527.251C1765.94 527.251 1766.22 527.299 1766.46 527.392C1766.71 527.484 1766.93 527.619 1767.13 527.791C1767.31 527.962 1767.47 528.165 1767.56 528.389C1767.67 528.612 1767.72 528.851 1767.72 529.093Z" fill="#4181E0" fill-opacity="0.34"/>
<path d="M1789.14 459.504C1790.27 459.504 1791.18 458.68 1791.18 457.663C1791.18 456.646 1790.27 455.822 1789.14 455.822C1788.01 455.822 1787.1 456.646 1787.1 457.663C1787.1 458.68 1788.01 459.504 1789.14 459.504Z" fill="#4181E0" fill-opacity="0.34"/>
<path d="M1815.79 459.504C1816.92 459.504 1817.83 458.68 1817.83 457.663C1817.83 456.646 1816.92 455.822 1815.79 455.822C1814.66 455.822 1813.74 456.646 1813.74 457.663C1813.74 458.68 1814.66 459.504 1815.79 459.504Z" fill="#4181E0" fill-opacity="0.34"/>
<path d="M1842.44 459.504C1843.57 459.504 1844.48 458.68 1844.48 457.663C1844.48 456.646 1843.57 455.822 1842.44 455.822C1841.31 455.822 1840.39 456.646 1840.39 457.663C1840.39 458.68 1841.31 459.504 1842.44 459.504Z" fill="#4181E0" fill-opacity="0.34"/>
<path d="M1789.14 483.314C1790.27 483.314 1791.18 482.49 1791.18 481.472C1791.18 480.455 1790.27 479.631 1789.14 479.631C1788.01 479.631 1787.1 480.455 1787.1 481.472C1787.1 482.49 1788.01 483.314 1789.14 483.314Z" fill="#4181E0" fill-opacity="0.34"/>
<path d="M1815.79 483.314C1816.92 483.314 1817.83 482.49 1817.83 481.472C1817.83 480.455 1816.92 479.631 1815.79 479.631C1814.66 479.631 1813.74 480.455 1813.74 481.472C1813.74 482.49 1814.66 483.314 1815.79 483.314Z" fill="#4181E0" fill-opacity="0.34"/>
<path d="M1842.44 483.314C1843.57 483.314 1844.48 482.49 1844.48 481.472C1844.48 480.455 1843.57 479.631 1842.44 479.631C1841.31 479.631 1840.39 480.455 1840.39 481.472C1840.39 482.49 1841.31 483.314 1842.44 483.314Z" fill="#4181E0" fill-opacity="0.34"/>
<path d="M1791.18 505.282C1791.18 505.646 1791.06 506.002 1790.84 506.305C1790.62 506.608 1790.3 506.844 1789.92 506.983C1789.55 507.122 1789.14 507.159 1788.74 507.088C1788.34 507.017 1787.98 506.841 1787.69 506.584C1787.41 506.326 1787.22 505.999 1787.14 505.641C1787.05 505.284 1787.1 504.914 1787.26 504.577C1787.41 504.241 1787.67 503.953 1788 503.75C1788.34 503.549 1788.74 503.441 1789.14 503.441C1789.68 503.441 1790.2 503.634 1790.59 503.98C1790.97 504.325 1791.18 504.794 1791.18 505.282Z" fill="#4181E0" fill-opacity="0.34"/>
<path d="M1817.83 505.282C1817.83 505.646 1817.71 506.002 1817.49 506.305C1817.26 506.608 1816.95 506.844 1816.57 506.983C1816.19 507.122 1815.79 507.159 1815.39 507.088C1814.99 507.017 1814.63 506.841 1814.34 506.584C1814.06 506.326 1813.87 505.999 1813.78 505.641C1813.7 505.284 1813.74 504.914 1813.9 504.577C1814.05 504.241 1814.31 503.953 1814.65 503.75C1814.99 503.549 1815.39 503.441 1815.79 503.441C1816.33 503.441 1816.85 503.634 1817.23 503.98C1817.62 504.325 1817.83 504.794 1817.83 505.282Z" fill="#4181E0" fill-opacity="0.34"/>
<path d="M1844.48 505.282C1844.48 505.646 1844.36 506.002 1844.14 506.305C1843.91 506.608 1843.59 506.844 1843.22 506.983C1842.84 507.122 1842.44 507.159 1842.04 507.088C1841.64 507.017 1841.28 506.841 1840.99 506.584C1840.71 506.326 1840.51 505.999 1840.43 505.641C1840.35 505.284 1840.39 504.914 1840.55 504.577C1840.7 504.241 1840.96 503.953 1841.3 503.75C1841.64 503.549 1842.03 503.441 1842.44 503.441C1842.98 503.441 1843.5 503.634 1843.88 503.98C1844.27 504.325 1844.48 504.794 1844.48 505.282Z" fill="#4181E0" fill-opacity="0.34"/>
<path d="M1791.18 529.093C1791.18 529.457 1791.06 529.814 1790.84 530.116C1790.62 530.419 1790.3 530.654 1789.92 530.794C1789.55 530.933 1789.14 530.97 1788.74 530.898C1788.34 530.827 1787.98 530.652 1787.69 530.394C1787.41 530.137 1787.22 529.808 1787.14 529.451C1787.05 529.094 1787.1 528.724 1787.26 528.388C1787.41 528.051 1787.67 527.764 1788 527.561C1788.34 527.359 1788.74 527.251 1789.14 527.251C1789.41 527.251 1789.68 527.299 1789.92 527.392C1790.17 527.484 1790.4 527.619 1790.59 527.791C1790.77 527.962 1790.93 528.165 1791.03 528.389C1791.13 528.612 1791.18 528.851 1791.18 529.093Z" fill="#4181E0" fill-opacity="0.34"/>
<path d="M1817.83 529.093C1817.83 529.457 1817.71 529.814 1817.49 530.116C1817.26 530.419 1816.94 530.654 1816.57 530.794C1816.19 530.933 1815.79 530.97 1815.39 530.898C1814.99 530.827 1814.63 530.652 1814.34 530.394C1814.06 530.137 1813.87 529.808 1813.78 529.451C1813.7 529.094 1813.74 528.724 1813.9 528.388C1814.05 528.051 1814.31 527.764 1814.65 527.561C1814.99 527.359 1815.39 527.251 1815.79 527.251C1816.06 527.251 1816.32 527.299 1816.57 527.392C1816.82 527.484 1817.05 527.619 1817.23 527.791C1817.42 527.962 1817.58 528.165 1817.68 528.389C1817.78 528.612 1817.83 528.851 1817.83 529.093Z" fill="#4181E0" fill-opacity="0.34"/>
<path d="M1844.48 529.093C1844.48 529.457 1844.36 529.814 1844.14 530.116C1843.91 530.419 1843.59 530.654 1843.22 530.794C1842.84 530.933 1842.44 530.97 1842.04 530.898C1841.64 530.827 1841.28 530.652 1840.99 530.394C1840.71 530.137 1840.51 529.808 1840.43 529.451C1840.35 529.094 1840.39 528.724 1840.55 528.388C1840.7 528.051 1840.96 527.764 1841.3 527.561C1841.64 527.359 1842.03 527.251 1842.44 527.251C1842.98 527.251 1843.5 527.446 1843.88 527.791C1844.27 528.136 1844.48 528.605 1844.48 529.093Z" fill="#4181E0" fill-opacity="0.34"/>
</svg>
