<svg width="1860" height="687" viewBox="0 0 1860 687" fill="none" xmlns="http://www.w3.org/2000/svg">
<path d="M1432.42 636.271H1442.25" stroke="#A2BADD" stroke-width="2" stroke-linecap="round" stroke-linejoin="round"/>
<path d="M1437.33 631.206V641.338" stroke="#A2BADD" stroke-width="2" stroke-linecap="round" stroke-linejoin="round"/>
<path d="M1432.42 614.365H1442.25" stroke="#A2BADD" stroke-width="2" stroke-linecap="round" stroke-linejoin="round"/>
<path d="M1437.33 609.298V619.43" stroke="#A2BADD" stroke-width="2" stroke-linecap="round" stroke-linejoin="round"/>
<path d="M1432.42 592.458H1442.25" stroke="#A2BADD" stroke-width="2" stroke-linecap="round" stroke-linejoin="round"/>
<path d="M1437.33 587.393V597.525" stroke="#A2BADD" stroke-width="2" stroke-linecap="round" stroke-linejoin="round"/>
<path d="M947.45 127.129V137.262" stroke="#A2BADD" stroke-width="2" stroke-linecap="round" stroke-linejoin="round"/>
<path d="M952.373 132.195H942.534" stroke="#A2BADD" stroke-width="2" stroke-linecap="round" stroke-linejoin="round"/>
<path d="M629.768 316.12V326.253" stroke="#EAF1FD" stroke-width="2" stroke-linecap="round" stroke-linejoin="round"/>
<path d="M634.688 321.186H624.849" stroke="#EAF1FD" stroke-width="2" stroke-linecap="round" stroke-linejoin="round"/>
<path d="M557.736 513.567V523.7" stroke="#F87F28" stroke-width="2" stroke-linecap="round" stroke-linejoin="round"/>
<path d="M562.656 518.634H552.817" stroke="#F87F28" stroke-width="2" stroke-linecap="round" stroke-linejoin="round"/>
<path d="M856.39 396.315V406.448" stroke="#F87F28" stroke-width="2" stroke-linecap="round" stroke-linejoin="round"/>
<path d="M861.31 401.38H851.471" stroke="#F87F28" stroke-width="2" stroke-linecap="round" stroke-linejoin="round"/>
<path d="M1054.41 274.262V284.395" stroke="#F87F28" stroke-width="2" stroke-linecap="round" stroke-linejoin="round"/>
<path d="M1059.33 279.327H1049.49" stroke="#F87F28" stroke-width="2" stroke-linecap="round" stroke-linejoin="round"/>
<path d="M1317.71 69.6597V79.7925" stroke="#F87F28" stroke-width="2" stroke-linecap="round" stroke-linejoin="round"/>
<path d="M1322.62 74.7251H1312.78" stroke="#F87F28" stroke-width="2" stroke-linecap="round" stroke-linejoin="round"/>
<path d="M471.32 247.389V257.522" stroke="#F87F28" stroke-width="2" stroke-linecap="round" stroke-linejoin="round"/>
<path d="M476.241 252.454H466.401" stroke="#F87F28" stroke-width="2" stroke-linecap="round" stroke-linejoin="round"/>
<path d="M624.849 94.9072V105.039" stroke="#BDD7FE" stroke-width="2" stroke-linecap="round" stroke-linejoin="round"/>
<path d="M629.768 99.9727H619.928" stroke="#BDD7FE" stroke-width="2" stroke-linecap="round" stroke-linejoin="round"/>
<path d="M906.584 669.422V679.555" stroke="#FAFAFA" stroke-opacity="0.28" stroke-width="2" stroke-linecap="round" stroke-linejoin="round"/>
<path d="M911.507 674.488H901.668" stroke="#FAFAFA" stroke-opacity="0.28" stroke-width="2" stroke-linecap="round" stroke-linejoin="round"/>
<path d="M927.864 669.422V679.555" stroke="#FAFAFA" stroke-opacity="0.28" stroke-width="2" stroke-linecap="round" stroke-linejoin="round"/>
<path d="M932.78 674.488H922.94" stroke="#FAFAFA" stroke-opacity="0.28" stroke-width="2" stroke-linecap="round" stroke-linejoin="round"/>
<path d="M949.136 669.422V679.555" stroke="#FAFAFA" stroke-opacity="0.28" stroke-width="2" stroke-linecap="round" stroke-linejoin="round"/>
<path d="M954.052 674.488H944.213" stroke="#FAFAFA" stroke-opacity="0.28" stroke-width="2" stroke-linecap="round" stroke-linejoin="round"/>
<path d="M332.65 214.726V224.858" stroke="#F87F28" stroke-width="2" stroke-linecap="round" stroke-linejoin="round"/>
<path d="M337.57 219.791H327.731" stroke="#F87F28" stroke-width="2" stroke-linecap="round" stroke-linejoin="round"/>
<path d="M239.89 170.59H230.051" stroke="#EAF1FD" stroke-width="2" stroke-linecap="round" stroke-linejoin="round"/>
<path d="M234.972 175.657V165.524" stroke="#EAF1FD" stroke-width="2" stroke-linecap="round" stroke-linejoin="round"/>
<path d="M239.89 192.498H230.051" stroke="#EAF1FD" stroke-width="2" stroke-linecap="round" stroke-linejoin="round"/>
<path d="M234.972 197.563V187.43" stroke="#EAF1FD" stroke-width="2" stroke-linecap="round" stroke-linejoin="round"/>
<path d="M239.89 214.403H230.051" stroke="#EAF1FD" stroke-width="2" stroke-linecap="round" stroke-linejoin="round"/>
<path d="M234.972 219.47V209.338" stroke="#EAF1FD" stroke-width="2" stroke-linecap="round" stroke-linejoin="round"/>
<path d="M461.766 395.022C461.766 395.362 461.668 395.694 461.485 395.976C461.301 396.259 461.041 396.479 460.736 396.609C460.431 396.739 460.095 396.773 459.772 396.706C459.448 396.641 459.15 396.477 458.917 396.236C458.684 395.996 458.525 395.69 458.461 395.357C458.397 395.023 458.43 394.678 458.556 394.364C458.683 394.05 458.896 393.781 459.171 393.593C459.446 393.404 459.768 393.304 460.098 393.304C460.317 393.304 460.534 393.348 460.736 393.435C460.939 393.521 461.123 393.647 461.278 393.807C461.433 393.967 461.555 394.156 461.639 394.364C461.723 394.573 461.766 394.796 461.766 395.022Z" fill="#A2BADD"/>
<path d="M473.092 395.022C473.092 395.362 472.994 395.694 472.811 395.976C472.628 396.259 472.367 396.479 472.062 396.609C471.758 396.739 471.422 396.773 471.098 396.706C470.774 396.641 470.477 396.477 470.244 396.236C470.01 395.996 469.852 395.69 469.788 395.357C469.723 395.023 469.756 394.678 469.883 394.364C470.009 394.05 470.223 393.781 470.498 393.593C470.772 393.404 471.095 393.304 471.425 393.304C471.644 393.304 471.861 393.348 472.063 393.435C472.266 393.521 472.449 393.647 472.604 393.807C472.759 393.967 472.882 394.156 472.966 394.364C473.05 394.573 473.092 394.796 473.092 395.022Z" fill="#A2BADD"/>
<path d="M484.423 395.022C484.423 395.362 484.325 395.694 484.142 395.976C483.959 396.259 483.698 396.479 483.393 396.609C483.088 396.739 482.753 396.773 482.429 396.707C482.105 396.641 481.809 396.477 481.575 396.237C481.342 395.996 481.182 395.691 481.118 395.357C481.054 395.023 481.087 394.678 481.213 394.364C481.34 394.05 481.553 393.782 481.828 393.593C482.102 393.405 482.425 393.304 482.755 393.304C482.974 393.304 483.191 393.348 483.393 393.434C483.596 393.52 483.78 393.647 483.934 393.807C484.089 393.967 484.213 394.156 484.297 394.364C484.38 394.573 484.423 394.796 484.423 395.022Z" fill="#A2BADD"/>
<path d="M461.766 406.685C461.766 407.025 461.668 407.357 461.485 407.64C461.302 407.922 461.042 408.143 460.736 408.273C460.431 408.403 460.096 408.437 459.772 408.371C459.449 408.305 459.151 408.141 458.918 407.901C458.684 407.66 458.525 407.354 458.461 407.021C458.397 406.687 458.43 406.342 458.556 406.028C458.682 405.714 458.896 405.446 459.171 405.257C459.446 405.068 459.768 404.968 460.098 404.968C460.541 404.968 460.965 405.149 461.278 405.471C461.59 405.792 461.766 406.23 461.766 406.685Z" fill="#A2BADD"/>
<path d="M473.092 406.685C473.092 407.025 472.995 407.357 472.811 407.64C472.628 407.922 472.367 408.143 472.063 408.273C471.758 408.403 471.423 408.437 471.099 408.371C470.775 408.305 470.478 408.141 470.244 407.901C470.011 407.66 469.852 407.354 469.788 407.021C469.723 406.687 469.756 406.342 469.883 406.028C470.009 405.714 470.223 405.446 470.498 405.257C470.772 405.068 471.095 404.968 471.425 404.968C471.867 404.968 472.291 405.149 472.604 405.471C472.917 405.792 473.092 406.23 473.092 406.685Z" fill="#A2BADD"/>
<path d="M484.423 406.685C484.423 407.025 484.326 407.357 484.142 407.64C483.959 407.922 483.698 408.143 483.394 408.273C483.089 408.403 482.753 408.437 482.43 408.371C482.106 408.305 481.809 408.141 481.575 407.901C481.342 407.661 481.182 407.355 481.118 407.021C481.054 406.688 481.087 406.343 481.213 406.028C481.34 405.715 481.553 405.446 481.828 405.257C482.102 405.069 482.425 404.968 482.755 404.968C482.974 404.968 483.191 405.012 483.393 405.098C483.596 405.185 483.779 405.311 483.934 405.47C484.089 405.63 484.212 405.82 484.296 406.028C484.38 406.236 484.423 406.46 484.423 406.685Z" fill="#A2BADD"/>
<path d="M461.766 418.348C461.766 418.688 461.668 419.021 461.485 419.303C461.302 419.585 461.042 419.806 460.736 419.936C460.431 420.067 460.096 420.1 459.772 420.034C459.449 419.968 459.151 419.804 458.918 419.564C458.684 419.324 458.525 419.017 458.461 418.684C458.397 418.351 458.43 418.005 458.556 417.691C458.682 417.377 458.896 417.109 459.171 416.92C459.446 416.731 459.768 416.631 460.098 416.631C460.541 416.631 460.965 416.812 461.278 417.134C461.59 417.456 461.766 417.893 461.766 418.348Z" fill="#A2BADD"/>
<path d="M473.092 418.348C473.092 418.688 472.995 419.021 472.811 419.303C472.628 419.585 472.367 419.806 472.063 419.936C471.758 420.067 471.423 420.1 471.099 420.034C470.775 419.968 470.478 419.804 470.244 419.564C470.011 419.324 469.852 419.017 469.788 418.684C469.723 418.351 469.756 418.005 469.883 417.691C470.009 417.377 470.223 417.109 470.498 416.92C470.772 416.731 471.095 416.631 471.425 416.631C471.867 416.631 472.291 416.812 472.604 417.134C472.917 417.456 473.092 417.893 473.092 418.348Z" fill="#A2BADD"/>
<path d="M484.423 418.348C484.423 418.688 484.326 419.02 484.142 419.303C483.959 419.585 483.698 419.806 483.394 419.936C483.089 420.067 482.753 420.1 482.43 420.034C482.106 419.968 481.809 419.804 481.575 419.564C481.342 419.324 481.182 419.018 481.118 418.685C481.054 418.351 481.087 418.006 481.213 417.691C481.34 417.378 481.553 417.109 481.828 416.921C482.102 416.732 482.425 416.631 482.755 416.631C482.974 416.631 483.191 416.676 483.393 416.761C483.596 416.848 483.779 416.974 483.934 417.133C484.089 417.293 484.212 417.483 484.296 417.691C484.38 417.899 484.423 418.123 484.423 418.348Z" fill="#A2BADD"/>
<path d="M238.34 33.1979C238.339 33.5347 238.242 33.8639 238.06 34.1439C237.879 34.4239 237.62 34.6421 237.318 34.7709C237.016 34.8997 236.683 34.9334 236.362 34.8676C236.042 34.8019 235.747 34.6397 235.516 34.4015C235.284 34.1634 235.127 33.8599 235.063 33.5295C234.999 33.1992 235.032 32.8568 235.157 32.5455C235.282 32.2343 235.494 31.9683 235.766 31.781C236.038 31.5938 236.357 31.4938 236.685 31.4937C236.902 31.4935 237.117 31.5375 237.318 31.6231C237.519 31.7088 237.701 31.8343 237.855 31.9926C238.009 32.1508 238.131 32.3388 238.214 32.5455C238.297 32.7524 238.34 32.9741 238.34 33.1979Z" fill="#A2BADD"/>
<path d="M247.919 34.9021C248.834 34.9021 249.575 34.1391 249.575 33.1979C249.575 32.2567 248.834 31.4937 247.919 31.4937C247.006 31.4937 246.265 32.2567 246.265 33.1979C246.265 34.1391 247.006 34.9021 247.919 34.9021Z" fill="#A2BADD"/>
<path d="M260.808 33.1979C260.808 33.535 260.711 33.8645 260.529 34.1447C260.347 34.425 260.089 34.6434 259.787 34.7724C259.484 34.9014 259.151 34.9351 258.83 34.8694C258.509 34.8036 258.214 34.6413 257.983 34.4029C257.751 34.1646 257.594 33.8609 257.53 33.5303C257.466 33.1998 257.499 32.8571 257.624 32.5457C257.75 32.2343 257.962 31.9681 258.233 31.7809C258.506 31.5936 258.826 31.4937 259.153 31.4937C259.592 31.4937 260.013 31.6732 260.323 31.9928C260.634 32.3124 260.808 32.7459 260.808 33.1979Z" fill="#A2BADD"/>
<path d="M272.045 33.1979C272.045 33.535 271.947 33.8645 271.766 34.1447C271.584 34.425 271.326 34.6434 271.023 34.7724C270.721 34.9014 270.388 34.9351 270.067 34.8694C269.746 34.8036 269.451 34.6413 269.22 34.4029C268.988 34.1646 268.831 33.8609 268.767 33.5303C268.702 33.1998 268.735 32.8571 268.861 32.5457C268.986 32.2343 269.198 31.9681 269.47 31.7809C269.743 31.5936 270.063 31.4937 270.39 31.4937C270.607 31.4937 270.823 31.5377 271.023 31.6234C271.224 31.7091 271.406 31.8346 271.56 31.9928C271.713 32.1511 271.836 32.3389 271.919 32.5457C272.002 32.7524 272.045 32.9741 272.045 33.1979Z" fill="#A2BADD"/>
<path d="M281.625 34.9021C282.539 34.9021 283.279 34.1391 283.279 33.1979C283.279 32.2567 282.539 31.4937 281.625 31.4937C280.711 31.4937 279.97 32.2567 279.97 33.1979C279.97 34.1391 280.711 34.9021 281.625 34.9021Z" fill="#A2BADD"/>
<path d="M294.514 33.1979C294.514 33.535 294.417 33.8645 294.235 34.1447C294.053 34.425 293.795 34.6434 293.493 34.7724C293.19 34.9014 292.857 34.9351 292.536 34.8694C292.215 34.8036 291.92 34.6413 291.689 34.4029C291.457 34.1646 291.3 33.8609 291.236 33.5303C291.172 33.1998 291.204 32.8571 291.33 32.5457C291.455 32.2343 291.668 31.9681 291.939 31.7809C292.212 31.5936 292.531 31.4937 292.859 31.4937C293.076 31.4935 293.292 31.5375 293.493 31.6231C293.693 31.7088 293.876 31.8343 294.03 31.9926C294.183 32.1508 294.305 32.3388 294.388 32.5455C294.471 32.7524 294.514 32.9741 294.514 33.1979Z" fill="#A2BADD"/>
<path d="M305.748 33.1979C305.748 33.535 305.651 33.8645 305.469 34.1447C305.288 34.425 305.029 34.6434 304.726 34.7724C304.424 34.9014 304.091 34.9351 303.77 34.8694C303.449 34.8036 303.155 34.6413 302.923 34.4029C302.692 34.1646 302.534 33.8609 302.47 33.5303C302.406 33.1998 302.439 32.8571 302.564 32.5457C302.69 32.2343 302.902 31.9681 303.174 31.7809C303.446 31.5936 303.766 31.4937 304.093 31.4937C304.311 31.4935 304.526 31.5375 304.726 31.6231C304.928 31.7088 305.11 31.8343 305.264 31.9926C305.417 32.1508 305.54 32.3388 305.622 32.5455C305.705 32.7524 305.748 32.9741 305.748 33.1979Z" fill="#A2BADD"/>
<path d="M238.34 44.7677C238.339 45.1046 238.242 45.4338 238.06 45.7138C237.879 45.9938 237.62 46.212 237.318 46.3408C237.016 46.4696 236.683 46.5032 236.362 46.4375C236.042 46.3718 235.747 46.2095 235.516 45.9714C235.284 45.7332 235.127 45.4297 235.063 45.0994C234.999 44.769 235.032 44.4266 235.157 44.1154C235.282 43.8042 235.494 43.5381 235.766 43.3509C236.038 43.1637 236.357 43.0637 236.685 43.0635C237.124 43.0635 237.544 43.2431 237.855 43.5627C238.165 43.8822 238.34 44.3158 238.34 44.7677Z" fill="#A2BADD"/>
<path d="M249.575 44.7677C249.575 45.1048 249.478 45.4343 249.296 45.7146C249.114 45.9948 248.856 46.2133 248.553 46.3423C248.251 46.4712 247.918 46.505 247.597 46.4392C247.276 46.3735 246.981 46.2112 246.75 45.9728C246.518 45.7345 246.361 45.4308 246.297 45.1002C246.233 44.7696 246.265 44.4269 246.39 44.1156C246.516 43.8042 246.728 43.538 247 43.3507C247.273 43.1635 247.592 43.0635 247.919 43.0635C248.358 43.0637 248.78 43.2434 249.09 43.5629C249.4 43.8825 249.574 44.3158 249.575 44.7677Z" fill="#A2BADD"/>
<path d="M260.808 44.7677C260.808 45.1048 260.711 45.4343 260.529 45.7146C260.347 45.9948 260.089 46.2133 259.787 46.3423C259.484 46.4712 259.151 46.505 258.83 46.4392C258.509 46.3735 258.214 46.2112 257.983 45.9728C257.751 45.7345 257.594 45.4308 257.53 45.1002C257.466 44.7696 257.499 44.4269 257.624 44.1156C257.75 43.8042 257.962 43.538 258.233 43.3507C258.506 43.1635 258.826 43.0635 259.153 43.0635C259.592 43.0637 260.013 43.2434 260.323 43.5629C260.633 43.8825 260.807 44.3158 260.808 44.7677Z" fill="#A2BADD"/>
<path d="M272.045 44.7677C272.045 45.1048 271.947 45.4343 271.766 45.7146C271.584 45.9948 271.326 46.2133 271.023 46.3423C270.721 46.4712 270.388 46.505 270.067 46.4392C269.746 46.3735 269.451 46.2112 269.22 45.9728C268.988 45.7345 268.831 45.4308 268.767 45.1002C268.702 44.7696 268.735 44.4269 268.861 44.1156C268.986 43.8042 269.198 43.538 269.47 43.3507C269.743 43.1635 270.063 43.0635 270.39 43.0635C270.828 43.0637 271.25 43.2434 271.56 43.5629C271.87 43.8825 272.044 44.3158 272.045 44.7677Z" fill="#A2BADD"/>
<path d="M283.279 44.7677C283.279 45.1049 283.182 45.4344 283 45.7147C282.818 45.995 282.56 46.2134 282.257 46.3423C281.955 46.4713 281.622 46.505 281.301 46.4392C280.979 46.3733 280.685 46.2109 280.454 45.9725C280.222 45.7341 280.064 45.4303 280 45.0997C279.937 44.769 279.97 44.4263 280.095 44.115C280.22 43.8036 280.433 43.5375 280.705 43.3503C280.977 43.1632 281.297 43.0633 281.625 43.0635C282.064 43.0637 282.484 43.2434 282.794 43.563C283.105 43.8825 283.279 44.3159 283.279 44.7677Z" fill="#A2BADD"/>
<path d="M294.514 44.7677C294.514 45.1048 294.417 45.4343 294.235 45.7146C294.053 45.9948 293.795 46.2133 293.493 46.3423C293.19 46.4712 292.857 46.505 292.536 46.4392C292.215 46.3735 291.92 46.2112 291.689 45.9728C291.457 45.7345 291.3 45.4308 291.236 45.1002C291.172 44.7696 291.204 44.4269 291.33 44.1156C291.455 43.8042 291.668 43.538 291.939 43.3507C292.212 43.1635 292.531 43.0635 292.859 43.0635C293.298 43.0635 293.719 43.2431 294.029 43.5627C294.34 43.8822 294.514 44.3158 294.514 44.7677Z" fill="#A2BADD"/>
<path d="M305.748 44.7677C305.748 45.1048 305.651 45.4343 305.469 45.7146C305.288 45.9948 305.029 46.2133 304.726 46.3423C304.424 46.4712 304.091 46.505 303.77 46.4392C303.449 46.3735 303.155 46.2112 302.923 45.9728C302.692 45.7345 302.534 45.4308 302.47 45.1002C302.406 44.7696 302.439 44.4269 302.564 44.1156C302.69 43.8042 302.902 43.538 303.174 43.3507C303.446 43.1635 303.766 43.0635 304.093 43.0635C304.532 43.0635 304.953 43.2431 305.264 43.5627C305.574 43.8822 305.748 44.3158 305.748 44.7677Z" fill="#A2BADD"/>
<path d="M238.34 56.337C238.339 56.6737 238.241 57.0026 238.059 57.2821C237.877 57.5617 237.618 57.7793 237.316 57.9077C237.013 58.036 236.681 58.0692 236.36 58.003C236.04 57.9369 235.746 57.7744 235.515 57.536C235.284 57.2978 235.126 56.9943 235.063 56.6641C234.999 56.3338 235.032 55.9916 235.157 55.6806C235.283 55.3695 235.494 55.1037 235.766 54.9166C236.038 54.7295 236.358 54.6296 236.685 54.6294C236.902 54.6294 237.118 54.6736 237.319 54.7595C237.52 54.8453 237.702 54.9711 237.856 55.1298C238.01 55.2884 238.132 55.4766 238.214 55.6838C238.297 55.891 238.34 56.113 238.34 56.337Z" fill="#A2BADD"/>
<path d="M249.575 56.337C249.574 56.674 249.476 57.0031 249.294 57.2829C249.112 57.5628 248.853 57.7807 248.55 57.9091C248.248 58.0376 247.916 58.0708 247.595 58.0047C247.274 57.9386 246.979 57.776 246.748 57.5375C246.517 57.299 246.36 56.9954 246.296 56.6649C246.232 56.3344 246.266 55.9919 246.391 55.6807C246.516 55.3695 246.728 55.1035 247.001 54.9164C247.273 54.7293 247.593 54.6294 247.919 54.6294C248.137 54.6295 248.353 54.6738 248.554 54.7597C248.754 54.8456 248.937 54.9714 249.091 55.13C249.245 55.2886 249.366 55.4769 249.45 55.6839C249.532 55.891 249.575 56.113 249.575 56.337Z" fill="#A2BADD"/>
<path d="M260.808 56.337C260.807 56.6741 260.71 57.0033 260.527 57.2831C260.345 57.563 260.086 57.7809 259.784 57.9093C259.481 58.0377 259.148 58.0708 258.827 58.0046C258.507 57.9384 258.212 57.7755 257.981 57.5369C257.75 57.2983 257.593 56.9944 257.53 56.6638C257.466 56.3332 257.499 55.9907 257.625 55.6795C257.75 55.3683 257.963 55.1025 258.235 54.9155C258.507 54.7286 258.827 54.6291 259.155 54.6294C259.372 54.6298 259.587 54.6741 259.788 54.7602C259.989 54.8462 260.171 54.972 260.325 55.1306C260.478 55.2892 260.6 55.4773 260.683 55.6844C260.765 55.8913 260.808 56.1131 260.808 56.337Z" fill="#A2BADD"/>
<path d="M272.045 56.337C272.044 56.674 271.947 57.0031 271.764 57.2829C271.582 57.5628 271.324 57.7807 271.021 57.9091C270.718 58.0376 270.386 58.0708 270.065 58.0047C269.744 57.9386 269.45 57.776 269.218 57.5375C268.987 57.299 268.83 56.9954 268.767 56.6649C268.703 56.3344 268.736 55.9919 268.861 55.6807C268.986 55.3695 269.198 55.1035 269.471 54.9164C269.743 54.7293 270.063 54.6294 270.39 54.6294C270.607 54.6295 270.823 54.6738 271.024 54.7597C271.225 54.8456 271.408 54.9714 271.561 55.13C271.715 55.2886 271.837 55.4769 271.92 55.6839C272.002 55.891 272.045 56.113 272.045 56.337Z" fill="#A2BADD"/>
<path d="M283.279 56.337C283.278 56.674 283.181 57.0032 282.998 57.283C282.816 57.5628 282.557 57.7807 282.255 57.9092C281.952 58.0377 281.62 58.0708 281.299 58.0046C280.978 57.9384 280.683 57.7758 280.452 57.5372C280.221 57.2987 280.064 56.9949 280 56.6643C279.937 56.3338 279.97 55.9913 280.096 55.6801C280.221 55.3689 280.433 55.103 280.705 54.916C280.977 54.729 281.297 54.6292 281.625 54.6294C281.842 54.6295 282.058 54.6738 282.259 54.7597C282.459 54.8456 282.642 54.9715 282.796 55.1301C282.949 55.2886 283.071 55.4769 283.154 55.684C283.237 55.8911 283.28 56.113 283.279 56.337Z" fill="#A2BADD"/>
<path d="M294.514 56.337C294.514 56.6741 294.417 57.0036 294.235 57.2838C294.053 57.5641 293.795 57.7825 293.493 57.9115C293.19 58.0405 292.857 58.0743 292.536 58.0085C292.215 57.9427 291.92 57.7804 291.689 57.5421C291.457 57.3038 291.3 57.0001 291.236 56.6695C291.172 56.3389 291.204 55.9963 291.33 55.6848C291.455 55.3734 291.668 55.1073 291.939 54.92C292.212 54.7327 292.531 54.6328 292.859 54.6328C293.298 54.6328 293.719 54.8123 294.029 55.132C294.34 55.4516 294.514 55.885 294.514 56.337Z" fill="#A2BADD"/>
<path d="M305.748 56.337C305.748 56.6741 305.651 57.0036 305.469 57.2838C305.288 57.5641 305.029 57.7825 304.726 57.9115C304.424 58.0405 304.091 58.0743 303.77 58.0085C303.449 57.9427 303.155 57.7804 302.923 57.5421C302.692 57.3038 302.534 57.0001 302.47 56.6695C302.406 56.3389 302.439 55.9963 302.564 55.6848C302.69 55.3734 302.902 55.1073 303.174 54.92C303.446 54.7327 303.766 54.6328 304.093 54.6328C304.532 54.6328 304.953 54.8123 305.264 55.132C305.574 55.4516 305.748 55.885 305.748 56.337Z" fill="#A2BADD"/>
<path d="M238.34 67.9064C238.339 68.2432 238.242 68.5724 238.06 68.8521C237.879 69.1326 237.62 69.3508 237.318 69.4797C237.016 69.6079 236.683 69.6416 236.362 69.5764C236.042 69.5105 235.747 69.3479 235.516 69.1099C235.284 68.8719 235.127 68.5684 235.063 68.238C234.999 67.9077 235.032 67.5653 235.157 67.254C235.282 66.9428 235.494 66.6768 235.766 66.4895C236.038 66.3023 236.357 66.2023 236.685 66.2021C236.902 66.202 237.117 66.246 237.318 66.3316C237.519 66.4173 237.701 66.5428 237.855 66.7011C238.009 66.8593 238.131 67.0473 238.214 67.254C238.297 67.4609 238.34 67.6826 238.34 67.9064Z" fill="#A2BADD"/>
<path d="M249.575 67.9064C249.575 68.2434 249.478 68.573 249.296 68.8535C249.114 69.1333 248.856 69.3516 248.553 69.4812C248.251 69.6101 247.918 69.6438 247.597 69.5779C247.276 69.512 246.981 69.3501 246.75 69.1114C246.518 68.8733 246.361 68.5694 246.297 68.2388C246.233 67.9083 246.265 67.5656 246.39 67.2542C246.516 66.9428 246.728 66.6766 247 66.4893C247.273 66.3021 247.592 66.2021 247.919 66.2021C248.358 66.2021 248.78 66.3817 249.09 66.7013C249.401 67.0209 249.575 67.4544 249.575 67.9064Z" fill="#A2BADD"/>
<path d="M260.808 67.9064C260.808 68.2434 260.711 68.573 260.529 68.8535C260.347 69.1333 260.089 69.3516 259.787 69.4812C259.484 69.6101 259.151 69.6438 258.83 69.5779C258.509 69.512 258.214 69.3501 257.983 69.1114C257.751 68.8733 257.594 68.5694 257.53 68.2388C257.466 67.9083 257.499 67.5656 257.624 67.2542C257.75 66.9428 257.962 66.6766 258.233 66.4893C258.506 66.3021 258.826 66.2021 259.153 66.2021C259.592 66.2021 260.013 66.3817 260.323 66.7013C260.634 67.0209 260.808 67.4544 260.808 67.9064Z" fill="#A2BADD"/>
<path d="M272.045 67.9064C272.045 68.2434 271.947 68.573 271.766 68.8535C271.584 69.1333 271.326 69.3516 271.023 69.4812C270.721 69.6101 270.388 69.6438 270.067 69.5779C269.746 69.512 269.451 69.3501 269.22 69.1114C268.988 68.8733 268.831 68.5694 268.767 68.2388C268.702 67.9083 268.735 67.5656 268.861 67.2542C268.986 66.9428 269.198 66.6766 269.47 66.4893C269.743 66.3021 270.063 66.2021 270.39 66.2021C270.607 66.2021 270.823 66.2462 271.023 66.3319C271.224 66.4176 271.406 66.5431 271.56 66.7013C271.713 66.8596 271.836 67.0474 271.919 67.2542C272.002 67.4609 272.045 67.6826 272.045 67.9064Z" fill="#A2BADD"/>
<path d="M283.279 67.9064C283.279 68.2434 283.182 68.573 283 68.8535C282.818 69.1333 282.56 69.3523 282.257 69.4812C281.955 69.6101 281.622 69.6438 281.301 69.5779C280.979 69.512 280.685 69.3494 280.454 69.1114C280.222 68.8726 280.064 68.569 280 68.2383C279.937 67.9077 279.97 67.565 280.095 67.2536C280.22 66.9422 280.433 66.6761 280.705 66.489C280.977 66.3018 281.297 66.202 281.625 66.2021C281.842 66.2021 282.057 66.2462 282.258 66.3319C282.459 66.4176 282.641 66.5431 282.794 66.7014C282.948 66.8596 283.07 67.0475 283.153 67.2543C283.236 67.461 283.279 67.6826 283.279 67.9064Z" fill="#A2BADD"/>
<path d="M294.514 67.9064C294.514 68.2434 294.417 68.573 294.235 68.8535C294.053 69.1333 293.795 69.3516 293.493 69.4812C293.19 69.6101 292.857 69.6438 292.536 69.5779C292.215 69.512 291.92 69.3501 291.689 69.1114C291.457 68.8733 291.3 68.5694 291.236 68.2388C291.172 67.9083 291.204 67.5656 291.33 67.2542C291.455 66.9428 291.668 66.6766 291.939 66.4893C292.212 66.3021 292.531 66.2021 292.859 66.2021C293.076 66.202 293.292 66.246 293.493 66.3316C293.693 66.4173 293.876 66.5428 294.03 66.7011C294.183 66.8593 294.305 67.0473 294.388 67.254C294.471 67.4609 294.514 67.6826 294.514 67.9064Z" fill="#A2BADD"/>
<path d="M305.748 67.9064C305.748 68.2434 305.651 68.573 305.469 68.8535C305.288 69.1333 305.029 69.3516 304.726 69.4812C304.424 69.6101 304.091 69.6438 303.77 69.5779C303.449 69.512 303.155 69.3501 302.923 69.1114C302.692 68.8733 302.534 68.5694 302.47 68.2388C302.406 67.9083 302.439 67.5656 302.564 67.2542C302.69 66.9428 302.902 66.6766 303.174 66.4893C303.446 66.3021 303.766 66.2021 304.093 66.2021C304.311 66.202 304.526 66.246 304.726 66.3316C304.928 66.4173 305.11 66.5428 305.264 66.7011C305.417 66.8593 305.54 67.0473 305.622 67.254C305.705 67.4609 305.748 67.6826 305.748 67.9064Z" fill="#A2BADD"/>
<path d="M238.34 79.4753C238.34 79.8122 238.242 80.1418 238.061 80.4216C237.879 80.7021 237.621 80.9204 237.319 81.0493C237.016 81.1782 236.684 81.2119 236.363 81.1459C236.042 81.0808 235.747 80.9182 235.516 80.6801C235.285 80.4421 235.127 80.1389 235.063 79.8086C234.999 79.4783 235.032 79.1355 235.157 78.8242C235.282 78.5129 235.494 78.2471 235.766 78.0596C236.038 77.8721 236.357 77.7725 236.685 77.7725C236.902 77.7717 237.117 77.8157 237.318 77.9014C237.519 77.9871 237.701 78.1123 237.855 78.2705C238.008 78.4287 238.13 78.6169 238.214 78.8235C238.297 79.03 238.34 79.2519 238.34 79.4753Z" fill="#A2BADD"/>
<path d="M247.919 81.1804C248.834 81.1804 249.575 80.4179 249.575 79.476C249.575 78.5349 248.834 77.7725 247.919 77.7725C247.006 77.7725 246.265 78.5349 246.265 79.476C246.265 80.4179 247.006 81.1804 247.919 81.1804Z" fill="#A2BADD"/>
<path d="M260.808 79.4753C260.808 79.813 260.711 80.1425 260.529 80.4223C260.348 80.7028 260.09 80.9218 259.787 81.0507C259.485 81.1796 259.152 81.2133 258.831 81.1481C258.509 81.0822 258.215 80.9204 257.983 80.6816C257.752 80.4436 257.594 80.1396 257.53 79.8093C257.466 79.4782 257.498 79.1355 257.624 78.8242C257.749 78.5129 257.962 78.2463 258.233 78.0596C258.506 77.8721 258.826 77.7725 259.153 77.7725C259.592 77.7725 260.013 77.9519 260.323 78.2712C260.633 78.5906 260.807 79.0234 260.808 79.4753Z" fill="#A2BADD"/>
<path d="M272.045 79.4753C272.045 79.813 271.948 80.1425 271.766 80.4223C271.585 80.7028 271.326 80.9218 271.024 81.0507C270.722 81.1796 270.389 81.2133 270.067 81.1481C269.746 81.0822 269.452 80.9204 269.22 80.6816C268.989 80.4436 268.831 80.1396 268.767 79.8093C268.703 79.4782 268.735 79.1355 268.86 78.8242C268.986 78.5129 269.198 78.2463 269.47 78.0596C269.743 77.8721 270.062 77.7725 270.39 77.7725C270.828 77.7725 271.25 77.9519 271.56 78.2712C271.87 78.5906 272.044 79.0234 272.045 79.4753Z" fill="#A2BADD"/>
<path d="M281.625 81.1804C282.539 81.1804 283.279 80.4179 283.279 79.476C283.279 78.5349 282.539 77.7725 281.625 77.7725C280.711 77.7725 279.97 78.5349 279.97 79.476C279.97 80.4179 280.711 81.1804 281.625 81.1804Z" fill="#A2BADD"/>
<path d="M294.514 79.4753C294.514 79.813 294.417 80.1426 294.235 80.4223C294.054 80.7028 293.796 80.9218 293.493 81.0507C293.191 81.1796 292.858 81.2133 292.537 81.1481C292.215 81.0822 291.921 80.9204 291.689 80.6816C291.458 80.4436 291.3 80.1396 291.236 79.8093C291.172 79.4783 291.204 79.1355 291.33 78.8242C291.455 78.5129 291.668 78.2463 291.939 78.0596C292.212 77.8721 292.531 77.7725 292.859 77.7725C293.076 77.7717 293.291 77.8157 293.493 77.9014C293.693 77.9871 293.875 78.1123 294.029 78.2705C294.183 78.4287 294.305 78.6169 294.388 78.8235C294.471 79.03 294.514 79.2519 294.514 79.4753Z" fill="#A2BADD"/>
<path d="M305.748 79.4753C305.748 79.813 305.651 80.1426 305.47 80.4223C305.288 80.7028 305.03 80.9218 304.727 81.0507C304.425 81.1796 304.092 81.2133 303.771 81.1481C303.45 81.0822 303.155 80.9204 302.924 80.6816C302.692 80.4436 302.534 80.1396 302.47 79.8093C302.406 79.4783 302.439 79.1355 302.564 78.8242C302.69 78.5129 302.902 78.2463 303.174 78.0596C303.446 77.8721 303.766 77.7725 304.093 77.7725C304.31 77.7717 304.526 77.8157 304.726 77.9014C304.927 77.9871 305.11 78.1123 305.264 78.2705C305.417 78.4287 305.539 78.6169 305.622 78.8235C305.705 79.03 305.748 79.2519 305.748 79.4753Z" fill="#A2BADD"/>
<path d="M1130.87 227.107C1130.87 227.409 1130.79 227.704 1130.62 227.954C1130.46 228.205 1130.23 228.4 1129.96 228.516C1129.69 228.631 1129.39 228.662 1129.11 228.602C1128.82 228.544 1128.55 228.399 1128.35 228.185C1128.14 227.972 1128 227.7 1127.94 227.404C1127.88 227.108 1127.91 226.802 1128.03 226.523C1128.14 226.245 1128.32 226.007 1128.57 225.839C1128.82 225.671 1129.1 225.582 1129.39 225.582C1129.78 225.582 1130.16 225.742 1130.44 226.029C1130.71 226.314 1130.87 226.703 1130.87 227.107Z" fill="#A2BADD"/>
<path d="M1139.44 228.632C1140.26 228.632 1140.92 227.949 1140.92 227.107C1140.92 226.265 1140.26 225.582 1139.44 225.582C1138.63 225.582 1137.96 226.265 1137.96 227.107C1137.96 227.949 1138.63 228.632 1139.44 228.632Z" fill="#A2BADD"/>
<path d="M1150.98 227.107C1150.98 227.409 1150.89 227.704 1150.73 227.954C1150.56 228.206 1150.34 228.4 1150.07 228.516C1149.8 228.632 1149.5 228.662 1149.21 228.602C1148.92 228.544 1148.66 228.398 1148.45 228.185C1148.24 227.972 1148.1 227.7 1148.05 227.404C1147.99 227.108 1148.02 226.801 1148.13 226.523C1148.24 226.244 1148.43 226.006 1148.68 225.838C1148.92 225.671 1149.21 225.582 1149.5 225.582C1149.7 225.582 1149.89 225.622 1150.07 225.698C1150.24 225.775 1150.41 225.887 1150.54 226.029C1150.69 226.17 1150.79 226.339 1150.87 226.523C1150.94 226.708 1150.98 226.907 1150.98 227.107Z" fill="#A2BADD"/>
<path d="M1161.03 227.107C1161.03 227.409 1160.94 227.704 1160.78 227.954C1160.62 228.205 1160.39 228.4 1160.12 228.516C1159.85 228.631 1159.55 228.662 1159.27 228.602C1158.97 228.544 1158.71 228.399 1158.5 228.185C1158.3 227.972 1158.16 227.7 1158.1 227.404C1158.04 227.108 1158.07 226.802 1158.18 226.523C1158.3 226.245 1158.48 226.007 1158.73 225.839C1158.97 225.671 1159.26 225.582 1159.55 225.582C1159.75 225.582 1159.94 225.622 1160.12 225.698C1160.3 225.775 1160.46 225.887 1160.6 226.029C1160.74 226.17 1160.84 226.339 1160.92 226.523C1160.99 226.708 1161.03 226.907 1161.03 227.107Z" fill="#A2BADD"/>
<path d="M1169.6 228.632C1170.42 228.632 1171.09 227.949 1171.09 227.107C1171.09 226.265 1170.42 225.582 1169.6 225.582C1168.78 225.582 1168.12 226.265 1168.12 227.107C1168.12 227.949 1168.78 228.632 1169.6 228.632Z" fill="#A2BADD"/>
<path d="M1181.14 227.107C1181.14 227.409 1181.05 227.704 1180.89 227.954C1180.73 228.205 1180.5 228.4 1180.23 228.516C1179.95 228.631 1179.66 228.662 1179.37 228.602C1179.08 228.544 1178.82 228.399 1178.61 228.185C1178.4 227.972 1178.26 227.7 1178.2 227.404C1178.15 227.108 1178.18 226.802 1178.29 226.523C1178.4 226.245 1178.6 226.007 1178.84 225.839C1179.08 225.671 1179.36 225.582 1179.66 225.582C1180.05 225.582 1180.43 225.742 1180.71 226.029C1180.99 226.314 1181.14 226.703 1181.14 227.107Z" fill="#A2BADD"/>
<path d="M1191.2 227.107C1191.2 227.409 1191.1 227.704 1190.95 227.954C1190.78 228.205 1190.55 228.4 1190.28 228.516C1190.01 228.631 1189.71 228.662 1189.42 228.602C1189.14 228.544 1188.87 228.399 1188.66 228.185C1188.46 227.972 1188.31 227.7 1188.26 227.404C1188.2 227.108 1188.23 226.802 1188.34 226.523C1188.46 226.245 1188.65 226.007 1188.89 225.839C1189.13 225.671 1189.42 225.582 1189.72 225.582C1190.11 225.582 1190.48 225.742 1190.76 226.029C1191.04 226.314 1191.2 226.703 1191.2 227.107Z" fill="#A2BADD"/>
<path d="M1140.92 237.46C1140.92 237.761 1140.84 238.056 1140.67 238.307C1140.51 238.558 1140.28 238.754 1140.01 238.869C1139.74 238.984 1139.44 239.014 1139.16 238.956C1138.87 238.897 1138.6 238.751 1138.4 238.538C1138.19 238.325 1138.05 238.053 1137.99 237.758C1137.94 237.462 1137.96 237.155 1138.08 236.876C1138.19 236.597 1138.38 236.359 1138.63 236.192C1138.87 236.025 1139.15 235.935 1139.44 235.935C1139.84 235.935 1140.21 236.096 1140.49 236.382C1140.77 236.668 1140.92 237.056 1140.92 237.46Z" fill="#A2BADD"/>
<path d="M1150.98 237.46C1150.98 237.762 1150.89 238.056 1150.73 238.308C1150.56 238.558 1150.34 238.754 1150.07 238.869C1149.8 238.984 1149.5 239.014 1149.21 238.956C1148.92 238.896 1148.66 238.751 1148.45 238.538C1148.24 238.324 1148.1 238.053 1148.05 237.757C1147.99 237.461 1148.02 237.155 1148.13 236.876C1148.24 236.597 1148.43 236.359 1148.68 236.192C1148.92 236.024 1149.21 235.935 1149.5 235.935C1149.9 235.935 1150.27 236.096 1150.54 236.382C1150.82 236.668 1150.98 237.056 1150.98 237.46Z" fill="#A2BADD"/>
<path d="M1161.03 237.46C1161.03 237.761 1160.94 238.056 1160.78 238.307C1160.62 238.558 1160.39 238.754 1160.12 238.869C1159.85 238.984 1159.55 239.014 1159.27 238.956C1158.97 238.897 1158.71 238.751 1158.5 238.538C1158.3 238.325 1158.16 238.053 1158.1 237.758C1158.04 237.462 1158.07 237.155 1158.18 236.876C1158.3 236.597 1158.48 236.359 1158.73 236.192C1158.97 236.025 1159.26 235.935 1159.55 235.935C1159.94 235.935 1160.32 236.096 1160.6 236.381C1160.88 236.668 1161.03 237.055 1161.03 237.46Z" fill="#A2BADD"/>
<path d="M1171.09 237.46C1171.09 237.761 1171 238.056 1170.83 238.307C1170.68 238.558 1170.44 238.754 1170.17 238.869C1169.9 238.984 1169.6 239.014 1169.32 238.956C1169.03 238.897 1168.76 238.751 1168.56 238.538C1168.35 238.325 1168.21 238.053 1168.15 237.758C1168.09 237.462 1168.12 237.155 1168.24 236.876C1168.35 236.597 1168.54 236.359 1168.78 236.192C1169.03 236.025 1169.31 235.935 1169.6 235.935C1170 235.935 1170.38 236.096 1170.66 236.381C1170.93 236.668 1171.09 237.055 1171.09 237.46Z" fill="#A2BADD"/>
<path d="M1181.14 237.46C1181.14 237.761 1181.05 238.056 1180.89 238.307C1180.73 238.558 1180.5 238.754 1180.23 238.869C1179.95 238.984 1179.66 239.014 1179.37 238.956C1179.08 238.897 1178.82 238.751 1178.61 238.538C1178.4 238.325 1178.26 238.053 1178.2 237.758C1178.15 237.462 1178.18 237.155 1178.29 236.876C1178.4 236.597 1178.6 236.359 1178.84 236.192C1179.08 236.025 1179.36 235.935 1179.66 235.935C1180.05 235.935 1180.43 236.096 1180.71 236.382C1180.99 236.668 1181.14 237.056 1181.14 237.46Z" fill="#A2BADD"/>
<path d="M1191.2 237.46C1191.2 237.761 1191.1 238.056 1190.95 238.307C1190.78 238.558 1190.55 238.754 1190.28 238.869C1190.01 238.984 1189.71 239.014 1189.42 238.956C1189.14 238.897 1188.87 238.751 1188.66 238.538C1188.46 238.325 1188.31 238.053 1188.26 237.758C1188.2 237.462 1188.23 237.155 1188.34 236.876C1188.46 236.597 1188.65 236.359 1188.89 236.192C1189.13 236.025 1189.42 235.935 1189.72 235.935C1190.11 235.935 1190.48 236.096 1190.76 236.382C1191.04 236.668 1191.2 237.056 1191.2 237.46Z" fill="#A2BADD"/>
<path d="M1201.25 237.46C1201.25 237.762 1201.16 238.056 1201 238.308C1200.84 238.558 1200.6 238.754 1200.33 238.869C1200.06 238.984 1199.76 239.014 1199.48 238.956C1199.19 238.896 1198.92 238.751 1198.72 238.538C1198.51 238.324 1198.37 238.053 1198.31 237.757C1198.25 237.461 1198.29 237.155 1198.4 236.876C1198.51 236.597 1198.7 236.359 1198.94 236.192C1199.19 236.024 1199.47 235.935 1199.77 235.935C1200.16 235.935 1200.54 236.096 1200.81 236.382C1201.09 236.668 1201.25 237.056 1201.25 237.46Z" fill="#A2BADD"/>
<path d="M1203.78 639.265C1203.78 640.108 1203.54 640.932 1203.08 641.632C1202.63 642.333 1201.98 642.88 1201.22 643.202C1200.47 643.524 1199.63 643.608 1198.83 643.444C1198.03 643.279 1197.29 642.873 1196.71 642.277C1196.13 641.68 1195.74 640.921 1195.58 640.094C1195.42 639.267 1195.5 638.41 1195.81 637.631C1196.13 636.851 1196.66 636.186 1197.34 635.718C1198.02 635.249 1198.82 634.999 1199.64 634.999C1200.18 634.999 1200.72 635.11 1201.23 635.323C1201.73 635.538 1202.18 635.852 1202.56 636.249C1202.96 636.645 1203.25 637.115 1203.47 637.632C1203.67 638.15 1203.78 638.704 1203.78 639.265Z" stroke="#DFEAFC" stroke-miterlimit="10"/>
<path d="M1231.9 639.265C1231.9 640.108 1231.66 640.932 1231.2 641.634C1230.75 642.336 1230.1 642.882 1229.34 643.205C1228.58 643.528 1227.75 643.612 1226.95 643.447C1226.14 643.283 1225.4 642.877 1224.83 642.28C1224.24 641.684 1223.85 640.923 1223.7 640.097C1223.53 639.269 1223.62 638.411 1223.93 637.632C1224.24 636.853 1224.77 636.186 1225.45 635.718C1226.14 635.25 1226.93 634.999 1227.76 634.999C1228.85 634.999 1229.91 635.449 1230.68 636.249C1231.46 637.048 1231.9 638.133 1231.9 639.265Z" stroke="#DFEAFC" stroke-miterlimit="10"/>
<path d="M1260.01 639.265C1260.01 640.108 1259.77 640.932 1259.31 641.634C1258.86 642.336 1258.21 642.882 1257.45 643.205C1256.7 643.528 1255.86 643.612 1255.06 643.447C1254.26 643.283 1253.52 642.877 1252.94 642.28C1252.36 641.684 1251.97 640.923 1251.8 640.097C1251.65 639.269 1251.73 638.411 1252.04 637.632C1252.35 636.853 1252.89 636.186 1253.57 635.718C1254.25 635.25 1255.05 634.999 1255.87 634.999C1256.42 634.999 1256.95 635.109 1257.45 635.323C1257.96 635.537 1258.41 635.852 1258.8 636.248C1259.18 636.644 1259.49 637.114 1259.69 637.632C1259.9 638.149 1260.01 638.704 1260.01 639.265Z" stroke="#DFEAFC" stroke-miterlimit="10"/>
<path d="M1203.78 668.215C1203.78 669.059 1203.54 669.883 1203.08 670.584C1202.63 671.285 1201.98 671.831 1201.22 672.153C1200.47 672.475 1199.63 672.56 1198.83 672.395C1198.03 672.23 1197.29 671.824 1196.71 671.227C1196.13 670.631 1195.74 669.872 1195.58 669.045C1195.42 668.218 1195.5 667.36 1195.81 666.582C1196.13 665.802 1196.66 665.137 1197.34 664.669C1198.02 664.2 1198.82 663.95 1199.64 663.95C1200.18 663.95 1200.72 664.06 1201.23 664.275C1201.73 664.489 1202.18 664.803 1202.56 665.2C1202.96 665.595 1203.25 666.065 1203.47 666.583C1203.67 667.1 1203.78 667.655 1203.78 668.215Z" stroke="#DFEAFC" stroke-miterlimit="10"/>
<path d="M1231.9 668.215C1231.9 669.059 1231.66 669.883 1231.2 670.585C1230.75 671.286 1230.1 671.833 1229.34 672.156C1228.58 672.478 1227.75 672.563 1226.95 672.399C1226.14 672.234 1225.4 671.828 1224.83 671.231C1224.24 670.635 1223.85 669.875 1223.7 669.047C1223.53 668.22 1223.62 667.363 1223.93 666.583C1224.24 665.804 1224.77 665.137 1225.45 664.669C1226.14 664.2 1226.93 663.95 1227.76 663.95C1228.85 663.95 1229.91 664.399 1230.68 665.199C1231.46 665.999 1231.9 667.084 1231.9 668.215Z" stroke="#DFEAFC" stroke-miterlimit="10"/>
<path d="M1260.01 668.215C1260.01 669.059 1259.77 669.883 1259.31 670.585C1258.86 671.286 1258.21 671.833 1257.45 672.156C1256.7 672.478 1255.86 672.563 1255.06 672.399C1254.26 672.234 1253.52 671.828 1252.94 671.231C1252.36 670.635 1251.97 669.875 1251.8 669.047C1251.65 668.22 1251.73 667.363 1252.04 666.583C1252.35 665.804 1252.89 665.137 1253.57 664.669C1254.25 664.2 1255.05 663.95 1255.87 663.95C1256.42 663.95 1256.95 664.06 1257.45 664.274C1257.96 664.489 1258.41 664.803 1258.8 665.199C1259.18 665.595 1259.49 666.065 1259.69 666.582C1259.9 667.1 1260.01 667.655 1260.01 668.215Z" stroke="#DFEAFC" stroke-miterlimit="10"/>
<path d="M177.326 561.672C177.892 561.672 178.351 561.199 178.351 560.616C178.351 560.033 177.892 559.561 177.326 559.561C176.76 559.561 176.302 560.033 176.302 560.616C176.302 561.199 176.76 561.672 177.326 561.672Z" fill="#4181E0"/>
<path d="M190.689 561.672C191.255 561.672 191.714 561.199 191.714 560.616C191.714 560.033 191.255 559.561 190.689 559.561C190.124 559.561 189.665 560.033 189.665 560.616C189.665 561.199 190.124 561.672 190.689 561.672Z" fill="#4181E0"/>
<path d="M177.326 575.316C177.892 575.316 178.351 574.843 178.351 574.26C178.351 573.677 177.892 573.205 177.326 573.205C176.76 573.205 176.302 573.677 176.302 574.26C176.302 574.843 176.76 575.316 177.326 575.316Z" fill="#4181E0"/>
<path d="M190.689 575.316C191.255 575.316 191.714 574.843 191.714 574.26C191.714 573.677 191.255 573.205 190.689 573.205C190.124 573.205 189.665 573.677 189.665 574.26C189.665 574.843 190.124 575.316 190.689 575.316Z" fill="#4181E0"/>
<path d="M178.351 587.904C178.351 588.113 178.29 588.317 178.178 588.49C178.065 588.664 177.905 588.8 177.718 588.879C177.531 588.959 177.325 588.98 177.126 588.939C176.927 588.898 176.745 588.798 176.602 588.651C176.458 588.503 176.361 588.315 176.321 588.11C176.282 587.905 176.302 587.694 176.379 587.5C176.457 587.308 176.588 587.143 176.757 587.027C176.925 586.911 177.123 586.849 177.326 586.849C177.598 586.849 177.858 586.96 178.05 587.158C178.243 587.356 178.351 587.625 178.351 587.904Z" fill="#4181E0"/>
<path d="M191.714 587.904C191.714 588.113 191.653 588.317 191.541 588.49C191.428 588.664 191.268 588.8 191.081 588.879C190.894 588.959 190.688 588.98 190.489 588.939C190.29 588.898 190.108 588.798 189.965 588.651C189.821 588.503 189.724 588.315 189.684 588.11C189.645 587.905 189.665 587.694 189.743 587.5C189.82 587.308 189.951 587.143 190.12 587.027C190.288 586.911 190.486 586.849 190.689 586.849C190.824 586.849 190.957 586.876 191.081 586.93C191.205 586.982 191.318 587.06 191.413 587.158C191.509 587.256 191.584 587.373 191.636 587.5C191.687 587.628 191.714 587.766 191.714 587.904Z" fill="#4181E0"/>
<path d="M178.351 601.549C178.35 601.758 178.29 601.961 178.178 602.135C178.065 602.309 177.905 602.444 177.718 602.524C177.531 602.604 177.325 602.624 177.126 602.583C176.927 602.543 176.745 602.442 176.601 602.295C176.458 602.147 176.361 601.959 176.321 601.754C176.282 601.55 176.302 601.337 176.38 601.145C176.457 600.952 176.588 600.787 176.757 600.671C176.925 600.555 177.123 600.494 177.326 600.494C177.598 600.494 177.858 600.605 178.05 600.803C178.243 601 178.351 601.269 178.351 601.549Z" fill="#4181E0"/>
<path d="M191.714 601.549C191.714 601.758 191.653 601.961 191.541 602.135C191.428 602.309 191.268 602.444 191.081 602.524C190.894 602.604 190.688 602.624 190.489 602.583C190.29 602.543 190.108 602.442 189.964 602.295C189.821 602.147 189.724 601.959 189.684 601.754C189.645 601.55 189.665 601.337 189.743 601.145C189.82 600.952 189.951 600.787 190.12 600.671C190.288 600.555 190.486 600.494 190.689 600.494C190.824 600.494 190.957 600.521 191.081 600.573C191.206 600.627 191.318 600.705 191.414 600.803C191.509 600.901 191.584 601.017 191.636 601.145C191.687 601.273 191.714 601.411 191.714 601.549Z" fill="#4181E0"/>
<path d="M202.454 561.672C203.02 561.672 203.479 561.199 203.479 560.616C203.479 560.033 203.02 559.561 202.454 559.561C201.888 559.561 201.43 560.033 201.43 560.616C201.43 561.199 201.888 561.672 202.454 561.672Z" fill="#4181E0"/>
<path d="M215.818 561.672C216.383 561.672 216.842 561.199 216.842 560.616C216.842 560.033 216.383 559.561 215.818 559.561C215.252 559.561 214.793 560.033 214.793 560.616C214.793 561.199 215.252 561.672 215.818 561.672Z" fill="#4181E0"/>
<path d="M229.181 561.672C229.747 561.672 230.205 561.199 230.205 560.616C230.205 560.033 229.747 559.561 229.181 559.561C228.615 559.561 228.156 560.033 228.156 560.616C228.156 561.199 228.615 561.672 229.181 561.672Z" fill="#4181E0"/>
<path d="M242.544 561.672C243.11 561.672 243.569 561.199 243.569 560.616C243.569 560.033 243.11 559.561 242.544 559.561C241.979 559.561 241.52 560.033 241.52 560.616C241.52 561.199 241.979 561.672 242.544 561.672Z" fill="#4181E0"/>
<path d="M202.454 575.316C203.02 575.316 203.479 574.843 203.479 574.26C203.479 573.677 203.02 573.205 202.454 573.205C201.888 573.205 201.43 573.677 201.43 574.26C201.43 574.843 201.888 575.316 202.454 575.316Z" fill="#4181E0"/>
<path d="M215.818 575.316C216.383 575.316 216.842 574.843 216.842 574.26C216.842 573.677 216.383 573.205 215.818 573.205C215.252 573.205 214.793 573.677 214.793 574.26C214.793 574.843 215.252 575.316 215.818 575.316Z" fill="#4181E0"/>
<path d="M229.181 575.316C229.747 575.316 230.205 574.843 230.205 574.26C230.205 573.677 229.747 573.205 229.181 573.205C228.615 573.205 228.156 573.677 228.156 574.26C228.156 574.843 228.615 575.316 229.181 575.316Z" fill="#4181E0"/>
<path d="M242.544 575.316C243.11 575.316 243.569 574.843 243.569 574.26C243.569 573.677 243.11 573.205 242.544 573.205C241.979 573.205 241.52 573.677 241.52 574.26C241.52 574.843 241.979 575.316 242.544 575.316Z" fill="#4181E0"/>
<path d="M203.479 587.904C203.479 588.113 203.419 588.317 203.306 588.49C203.193 588.664 203.033 588.8 202.846 588.879C202.659 588.959 202.453 588.98 202.254 588.939C202.056 588.898 201.873 588.798 201.73 588.651C201.586 588.503 201.489 588.315 201.449 588.11C201.41 587.905 201.43 587.694 201.508 587.5C201.585 587.308 201.716 587.143 201.885 587.027C202.053 586.911 202.252 586.849 202.454 586.849C202.726 586.849 202.987 586.96 203.179 587.158C203.371 587.356 203.479 587.625 203.479 587.904Z" fill="#4181E0"/>
<path d="M216.842 587.904C216.842 588.113 216.782 588.317 216.669 588.49C216.557 588.664 216.397 588.8 216.21 588.879C216.022 588.959 215.816 588.98 215.618 588.939C215.419 588.898 215.236 588.798 215.093 588.651C214.95 588.503 214.852 588.315 214.813 588.11C214.773 587.905 214.793 587.694 214.871 587.5C214.949 587.308 215.08 587.143 215.248 587.027C215.417 586.911 215.615 586.849 215.817 586.849C216.089 586.849 216.35 586.96 216.542 587.158C216.734 587.356 216.842 587.625 216.842 587.904Z" fill="#4181E0"/>
<path d="M230.205 587.904C230.205 588.113 230.145 588.317 230.033 588.49C229.92 588.664 229.76 588.8 229.573 588.879C229.386 588.959 229.18 588.98 228.981 588.939C228.782 588.898 228.6 588.798 228.456 588.651C228.313 588.503 228.215 588.315 228.176 588.11C228.136 587.905 228.157 587.694 228.234 587.5C228.312 587.308 228.443 587.143 228.612 587.027C228.78 586.911 228.978 586.849 229.181 586.849C229.452 586.849 229.713 586.96 229.905 587.158C230.097 587.356 230.205 587.625 230.205 587.904Z" fill="#4181E0"/>
<path d="M243.568 587.904C243.568 588.113 243.508 588.317 243.396 588.49C243.283 588.664 243.123 588.8 242.936 588.879C242.748 588.959 242.543 588.98 242.344 588.939C242.145 588.898 241.963 588.798 241.819 588.651C241.676 588.503 241.578 588.315 241.539 588.11C241.499 587.905 241.52 587.694 241.597 587.5C241.675 587.308 241.806 587.143 241.975 587.027C242.143 586.911 242.341 586.849 242.544 586.849C242.678 586.849 242.812 586.876 242.936 586.93C243.06 586.982 243.173 587.06 243.269 587.158C243.363 587.256 243.439 587.373 243.491 587.5C243.542 587.628 243.568 587.766 243.568 587.904Z" fill="#4181E0"/>
<path d="M203.479 601.549C203.479 601.758 203.418 601.961 203.306 602.135C203.193 602.309 203.033 602.444 202.846 602.524C202.659 602.604 202.453 602.624 202.254 602.583C202.055 602.543 201.873 602.442 201.73 602.295C201.586 602.147 201.489 601.959 201.449 601.754C201.41 601.55 201.43 601.337 201.508 601.145C201.585 600.952 201.717 600.787 201.885 600.671C202.054 600.555 202.252 600.494 202.454 600.494C202.589 600.494 202.722 600.521 202.846 600.573C202.971 600.627 203.084 600.705 203.179 600.803C203.274 600.901 203.349 601.017 203.401 601.145C203.452 601.273 203.479 601.411 203.479 601.549Z" fill="#4181E0"/>
<path d="M216.842 601.549C216.842 601.758 216.782 601.961 216.669 602.135C216.556 602.309 216.396 602.444 216.209 602.524C216.022 602.604 215.816 602.624 215.617 602.583C215.419 602.543 215.236 602.442 215.093 602.295C214.95 602.147 214.852 601.959 214.813 601.754C214.773 601.55 214.793 601.337 214.871 601.145C214.949 600.952 215.08 600.787 215.248 600.671C215.417 600.555 215.615 600.494 215.817 600.494C215.952 600.494 216.085 600.521 216.21 600.573C216.334 600.627 216.447 600.705 216.542 600.803C216.637 600.901 216.713 601.017 216.764 601.145C216.816 601.273 216.842 601.411 216.842 601.549Z" fill="#4181E0"/>
<path d="M230.205 601.549C230.205 601.758 230.145 601.961 230.032 602.135C229.92 602.309 229.76 602.444 229.572 602.524C229.385 602.604 229.179 602.624 228.981 602.583C228.782 602.543 228.599 602.442 228.456 602.295C228.313 602.147 228.215 601.959 228.176 601.754C228.136 601.55 228.157 601.337 228.234 601.145C228.312 600.952 228.443 600.787 228.612 600.671C228.78 600.555 228.978 600.494 229.181 600.494C229.453 600.494 229.713 600.605 229.905 600.803C230.097 601 230.205 601.269 230.205 601.549Z" fill="#4181E0"/>
<path d="M243.568 601.549C243.568 601.758 243.508 601.961 243.395 602.135C243.283 602.309 243.123 602.444 242.936 602.524C242.748 602.604 242.542 602.624 242.344 602.583C242.145 602.543 241.962 602.442 241.819 602.295C241.676 602.147 241.578 601.959 241.539 601.754C241.499 601.55 241.52 601.337 241.597 601.145C241.675 600.952 241.806 600.787 241.975 600.671C242.143 600.555 242.342 600.494 242.544 600.494C242.678 600.494 242.812 600.521 242.936 600.573C243.06 600.627 243.173 600.705 243.269 600.803C243.364 600.901 243.439 601.017 243.491 601.145C243.542 601.273 243.568 601.411 243.568 601.549Z" fill="#4181E0"/>
<path d="M202.454 615.222C203.02 615.222 203.479 614.749 203.479 614.166C203.479 613.583 203.02 613.111 202.454 613.111C201.888 613.111 201.43 613.583 201.43 614.166C201.43 614.749 201.888 615.222 202.454 615.222Z" fill="#4181E0"/>
<path d="M215.818 615.222C216.383 615.222 216.842 614.749 216.842 614.166C216.842 613.583 216.383 613.111 215.818 613.111C215.252 613.111 214.793 613.583 214.793 614.166C214.793 614.749 215.252 615.222 215.818 615.222Z" fill="#4181E0"/>
<path d="M229.181 615.222C229.747 615.222 230.205 614.749 230.205 614.166C230.205 613.583 229.747 613.111 229.181 613.111C228.615 613.111 228.156 613.583 228.156 614.166C228.156 614.749 228.615 615.222 229.181 615.222Z" fill="#4181E0"/>
<path d="M242.544 615.222C243.11 615.222 243.569 614.749 243.569 614.166C243.569 613.583 243.11 613.111 242.544 613.111C241.979 613.111 241.52 613.583 241.52 614.166C241.52 614.749 241.979 615.222 242.544 615.222Z" fill="#4181E0"/>
<path d="M202.454 628.866C203.02 628.866 203.479 628.393 203.479 627.81C203.479 627.227 203.02 626.755 202.454 626.755C201.888 626.755 201.43 627.227 201.43 627.81C201.43 628.393 201.888 628.866 202.454 628.866Z" fill="#4181E0"/>
<path d="M215.818 628.866C216.383 628.866 216.842 628.393 216.842 627.81C216.842 627.227 216.383 626.755 215.818 626.755C215.252 626.755 214.793 627.227 214.793 627.81C214.793 628.393 215.252 628.866 215.818 628.866Z" fill="#4181E0"/>
<path d="M229.181 628.866C229.747 628.866 230.205 628.393 230.205 627.81C230.205 627.227 229.747 626.755 229.181 626.755C228.615 626.755 228.156 627.227 228.156 627.81C228.156 628.393 228.615 628.866 229.181 628.866Z" fill="#4181E0"/>
<path d="M242.544 628.866C243.11 628.866 243.569 628.393 243.569 627.81C243.569 627.227 243.11 626.755 242.544 626.755C241.979 626.755 241.52 627.227 241.52 627.81C241.52 628.393 241.979 628.866 242.544 628.866Z" fill="#4181E0"/>
<path d="M203.479 641.454C203.479 641.663 203.419 641.867 203.306 642.041C203.194 642.215 203.034 642.349 202.846 642.429C202.659 642.509 202.453 642.53 202.254 642.489C202.056 642.449 201.873 642.348 201.73 642.201C201.586 642.053 201.489 641.865 201.449 641.66C201.41 641.456 201.43 641.243 201.508 641.051C201.585 640.858 201.717 640.693 201.885 640.577C202.053 640.461 202.252 640.399 202.454 640.399C202.726 640.399 202.987 640.51 203.179 640.708C203.371 640.906 203.479 641.175 203.479 641.454Z" fill="#4181E0"/>
<path d="M216.842 641.454C216.842 641.663 216.782 641.867 216.669 642.041C216.557 642.215 216.397 642.349 216.21 642.429C216.022 642.509 215.816 642.53 215.618 642.489C215.419 642.449 215.236 642.348 215.093 642.201C214.95 642.053 214.852 641.865 214.813 641.66C214.773 641.456 214.793 641.243 214.871 641.051C214.948 640.858 215.08 640.693 215.248 640.577C215.417 640.461 215.615 640.399 215.818 640.399C216.089 640.399 216.35 640.51 216.542 640.708C216.734 640.906 216.842 641.175 216.842 641.454Z" fill="#4181E0"/>
<path d="M230.205 641.454C230.205 641.663 230.145 641.867 230.033 642.041C229.92 642.215 229.76 642.349 229.573 642.429C229.386 642.509 229.18 642.53 228.981 642.489C228.782 642.449 228.6 642.348 228.456 642.201C228.313 642.053 228.215 641.865 228.176 641.66C228.136 641.456 228.157 641.243 228.234 641.051C228.312 640.858 228.443 640.693 228.612 640.577C228.78 640.461 228.978 640.399 229.181 640.399C229.452 640.399 229.713 640.51 229.905 640.708C230.097 640.906 230.205 641.175 230.205 641.454Z" fill="#4181E0"/>
<path d="M243.568 641.454C243.568 641.663 243.508 641.867 243.396 642.041C243.283 642.215 243.123 642.349 242.936 642.429C242.748 642.509 242.543 642.53 242.344 642.489C242.145 642.449 241.963 642.348 241.819 642.201C241.676 642.053 241.579 641.865 241.539 641.66C241.499 641.456 241.52 641.243 241.597 641.051C241.675 640.858 241.806 640.693 241.975 640.577C242.143 640.461 242.341 640.399 242.544 640.399C242.678 640.399 242.812 640.427 242.936 640.479C243.06 640.532 243.173 640.611 243.269 640.708C243.363 640.806 243.439 640.923 243.491 641.051C243.542 641.179 243.568 641.316 243.568 641.454Z" fill="#4181E0"/>
<path d="M203.479 655.099C203.479 655.308 203.418 655.512 203.306 655.686C203.193 655.86 203.033 655.994 202.846 656.074C202.659 656.154 202.453 656.175 202.254 656.134C202.055 656.093 201.873 655.993 201.73 655.845C201.586 655.698 201.489 655.51 201.449 655.305C201.41 655.1 201.43 654.888 201.508 654.695C201.585 654.502 201.717 654.338 201.885 654.222C202.054 654.106 202.252 654.044 202.454 654.044C202.589 654.044 202.722 654.071 202.846 654.125C202.971 654.177 203.084 654.255 203.179 654.353C203.274 654.451 203.349 654.568 203.401 654.696C203.452 654.824 203.479 654.961 203.479 655.099Z" fill="#4181E0"/>
<path d="M216.842 655.099C216.842 655.308 216.782 655.512 216.669 655.686C216.556 655.86 216.396 655.994 216.209 656.074C216.022 656.154 215.816 656.175 215.617 656.134C215.419 656.093 215.236 655.993 215.093 655.845C214.95 655.698 214.852 655.51 214.813 655.305C214.773 655.1 214.793 654.888 214.871 654.695C214.949 654.502 215.08 654.338 215.248 654.222C215.417 654.106 215.615 654.044 215.818 654.044C215.952 654.044 216.085 654.071 216.21 654.125C216.334 654.177 216.447 654.255 216.542 654.353C216.637 654.451 216.713 654.568 216.764 654.696C216.816 654.824 216.842 654.961 216.842 655.099Z" fill="#4181E0"/>
<path d="M230.205 655.099C230.205 655.308 230.145 655.512 230.032 655.686C229.92 655.86 229.76 655.994 229.573 656.074C229.385 656.154 229.179 656.175 228.981 656.134C228.782 656.093 228.599 655.993 228.456 655.845C228.313 655.698 228.215 655.51 228.176 655.305C228.136 655.1 228.157 654.888 228.234 654.695C228.312 654.502 228.443 654.338 228.612 654.222C228.78 654.106 228.978 654.044 229.181 654.044C229.453 654.044 229.713 654.155 229.905 654.353C230.097 654.552 230.205 654.82 230.205 655.099Z" fill="#4181E0"/>
<path d="M243.568 655.099C243.568 655.308 243.508 655.512 243.395 655.686C243.283 655.86 243.123 655.994 242.936 656.074C242.748 656.154 242.542 656.175 242.344 656.134C242.145 656.093 241.962 655.993 241.819 655.845C241.676 655.698 241.578 655.51 241.539 655.305C241.499 655.1 241.52 654.888 241.597 654.695C241.675 654.502 241.806 654.338 241.975 654.222C242.143 654.106 242.342 654.044 242.544 654.044C242.678 654.044 242.812 654.071 242.936 654.125C243.06 654.177 243.173 654.255 243.269 654.353C243.364 654.451 243.439 654.568 243.491 654.696C243.542 654.824 243.568 654.961 243.568 655.099Z" fill="#4181E0"/>
<path d="M177.326 615.222C177.892 615.222 178.351 614.749 178.351 614.166C178.351 613.583 177.892 613.111 177.326 613.111C176.76 613.111 176.302 613.583 176.302 614.166C176.302 614.749 176.76 615.222 177.326 615.222Z" fill="#4181E0"/>
<path d="M190.689 615.222C191.255 615.222 191.714 614.749 191.714 614.166C191.714 613.583 191.255 613.111 190.689 613.111C190.124 613.111 189.665 613.583 189.665 614.166C189.665 614.749 190.124 615.222 190.689 615.222Z" fill="#4181E0"/>
<path d="M177.326 628.866C177.892 628.866 178.351 628.393 178.351 627.81C178.351 627.227 177.892 626.755 177.326 626.755C176.76 626.755 176.302 627.227 176.302 627.81C176.302 628.393 176.76 628.866 177.326 628.866Z" fill="#4181E0"/>
<path d="M190.689 628.866C191.255 628.866 191.714 628.393 191.714 627.81C191.714 627.227 191.255 626.755 190.689 626.755C190.124 626.755 189.665 627.227 189.665 627.81C189.665 628.393 190.124 628.866 190.689 628.866Z" fill="#4181E0"/>
<path d="M178.351 641.454C178.351 641.663 178.29 641.867 178.178 642.041C178.065 642.215 177.905 642.349 177.718 642.429C177.531 642.509 177.325 642.53 177.126 642.489C176.927 642.449 176.745 642.348 176.602 642.201C176.458 642.053 176.361 641.865 176.321 641.66C176.282 641.456 176.302 641.243 176.379 641.051C176.457 640.858 176.588 640.693 176.757 640.577C176.925 640.461 177.123 640.399 177.326 640.399C177.598 640.399 177.858 640.51 178.05 640.708C178.243 640.906 178.351 641.175 178.351 641.454Z" fill="#4181E0"/>
<path d="M191.714 641.454C191.714 641.663 191.653 641.867 191.541 642.041C191.428 642.215 191.268 642.349 191.081 642.429C190.894 642.509 190.688 642.53 190.489 642.489C190.29 642.449 190.108 642.348 189.965 642.201C189.821 642.053 189.724 641.865 189.684 641.66C189.645 641.456 189.665 641.243 189.743 641.051C189.82 640.858 189.951 640.693 190.12 640.577C190.288 640.461 190.486 640.399 190.689 640.399C190.824 640.399 190.957 640.427 191.081 640.479C191.205 640.532 191.318 640.611 191.413 640.708C191.509 640.806 191.584 640.923 191.636 641.051C191.687 641.179 191.714 641.316 191.714 641.454Z" fill="#4181E0"/>
<path d="M178.351 655.099C178.35 655.308 178.29 655.512 178.178 655.686C178.065 655.86 177.905 655.994 177.718 656.074C177.531 656.154 177.325 656.175 177.126 656.134C176.927 656.093 176.745 655.993 176.601 655.845C176.458 655.698 176.361 655.51 176.321 655.305C176.282 655.1 176.302 654.888 176.38 654.695C176.457 654.502 176.588 654.338 176.757 654.222C176.925 654.106 177.123 654.044 177.326 654.044C177.598 654.044 177.858 654.155 178.05 654.353C178.243 654.552 178.351 654.82 178.351 655.099Z" fill="#4181E0"/>
<path d="M191.714 655.099C191.714 655.308 191.653 655.512 191.541 655.686C191.428 655.86 191.268 655.994 191.081 656.074C190.894 656.154 190.688 656.175 190.489 656.134C190.29 656.093 190.108 655.993 189.964 655.845C189.821 655.698 189.724 655.51 189.684 655.305C189.645 655.1 189.665 654.888 189.743 654.695C189.82 654.502 189.951 654.338 190.12 654.222C190.288 654.106 190.486 654.044 190.689 654.044C190.824 654.044 190.957 654.071 191.081 654.125C191.206 654.177 191.318 654.255 191.414 654.353C191.509 654.451 191.584 654.568 191.636 654.696C191.687 654.824 191.714 654.961 191.714 655.099Z" fill="#4181E0"/>
<path d="M177.326 668.772C177.892 668.772 178.351 668.299 178.351 667.717C178.351 667.134 177.892 666.662 177.326 666.662C176.76 666.662 176.302 667.134 176.302 667.717C176.302 668.299 176.76 668.772 177.326 668.772Z" fill="#4181E0"/>
<path d="M190.689 668.772C191.255 668.772 191.714 668.299 191.714 667.717C191.714 667.134 191.255 666.662 190.689 666.662C190.124 666.662 189.665 667.134 189.665 667.717C189.665 668.299 190.124 668.772 190.689 668.772Z" fill="#4181E0"/>
<path d="M177.326 682.416C177.892 682.416 178.351 681.943 178.351 681.361C178.351 680.778 177.892 680.306 177.326 680.306C176.76 680.306 176.302 680.778 176.302 681.361C176.302 681.943 176.76 682.416 177.326 682.416Z" fill="#4181E0"/>
<path d="M190.689 682.416C191.255 682.416 191.714 681.943 191.714 681.361C191.714 680.778 191.255 680.306 190.689 680.306C190.124 680.306 189.665 680.778 189.665 681.361C189.665 681.943 190.124 682.416 190.689 682.416Z" fill="#4181E0"/>
<path d="M202.454 668.772C203.02 668.772 203.479 668.299 203.479 667.717C203.479 667.134 203.02 666.662 202.454 666.662C201.888 666.662 201.43 667.134 201.43 667.717C201.43 668.299 201.888 668.772 202.454 668.772Z" fill="#4181E0"/>
<path d="M215.818 668.772C216.383 668.772 216.842 668.299 216.842 667.717C216.842 667.134 216.383 666.662 215.818 666.662C215.252 666.662 214.793 667.134 214.793 667.717C214.793 668.299 215.252 668.772 215.818 668.772Z" fill="#4181E0"/>
<path d="M229.181 668.772C229.747 668.772 230.205 668.299 230.205 667.717C230.205 667.134 229.747 666.662 229.181 666.662C228.615 666.662 228.156 667.134 228.156 667.717C228.156 668.299 228.615 668.772 229.181 668.772Z" fill="#4181E0"/>
<path d="M242.544 668.772C243.11 668.772 243.569 668.299 243.569 667.717C243.569 667.134 243.11 666.662 242.544 666.662C241.979 666.662 241.52 667.134 241.52 667.717C241.52 668.299 241.979 668.772 242.544 668.772Z" fill="#4181E0"/>
<path d="M202.454 682.416C203.02 682.416 203.479 681.943 203.479 681.361C203.479 680.778 203.02 680.306 202.454 680.306C201.888 680.306 201.43 680.778 201.43 681.361C201.43 681.943 201.888 682.416 202.454 682.416Z" fill="#4181E0"/>
<path d="M215.818 682.416C216.383 682.416 216.842 681.943 216.842 681.361C216.842 680.778 216.383 680.306 215.818 680.306C215.252 680.306 214.793 680.778 214.793 681.361C214.793 681.943 215.252 682.416 215.818 682.416Z" fill="#4181E0"/>
<path d="M229.181 682.416C229.747 682.416 230.205 681.943 230.205 681.361C230.205 680.778 229.747 680.306 229.181 680.306C228.615 680.306 228.156 680.778 228.156 681.361C228.156 681.943 228.615 682.416 229.181 682.416Z" fill="#4181E0"/>
<path d="M242.544 682.416C243.11 682.416 243.569 681.943 243.569 681.361C243.569 680.778 243.11 680.306 242.544 680.306C241.979 680.306 241.52 680.778 241.52 681.361C241.52 681.943 241.979 682.416 242.544 682.416Z" fill="#4181E0"/>
<path d="M1484.96 228.671C1485.79 228.671 1486.46 227.98 1486.46 227.127C1486.46 226.273 1485.79 225.582 1484.96 225.582C1484.13 225.582 1483.46 226.273 1483.46 227.127C1483.46 227.98 1484.13 228.671 1484.96 228.671Z" fill="#4181E0" fill-opacity="0.34"/>
<path d="M1504.53 228.671C1505.36 228.671 1506.03 227.98 1506.03 227.127C1506.03 226.273 1505.36 225.582 1504.53 225.582C1503.7 225.582 1503.03 226.273 1503.03 227.127C1503.03 227.98 1503.7 228.671 1504.53 228.671Z" fill="#4181E0" fill-opacity="0.34"/>
<path d="M1524.1 228.671C1524.93 228.671 1525.6 227.98 1525.6 227.127C1525.6 226.273 1524.93 225.582 1524.1 225.582C1523.28 225.582 1522.6 226.273 1522.6 227.127C1522.6 227.98 1523.28 228.671 1524.1 228.671Z" fill="#4181E0" fill-opacity="0.34"/>
<path d="M1484.96 248.643C1485.79 248.643 1486.46 247.952 1486.46 247.099C1486.46 246.246 1485.79 245.554 1484.96 245.554C1484.13 245.554 1483.46 246.246 1483.46 247.099C1483.46 247.952 1484.13 248.643 1484.96 248.643Z" fill="#4181E0" fill-opacity="0.34"/>
<path d="M1504.53 248.643C1505.36 248.643 1506.03 247.952 1506.03 247.099C1506.03 246.246 1505.36 245.554 1504.53 245.554C1503.7 245.554 1503.03 246.246 1503.03 247.099C1503.03 247.952 1503.7 248.643 1504.53 248.643Z" fill="#4181E0" fill-opacity="0.34"/>
<path d="M1524.1 248.643C1524.93 248.643 1525.6 247.952 1525.6 247.099C1525.6 246.246 1524.93 245.554 1524.1 245.554C1523.28 245.554 1522.6 246.246 1522.6 247.099C1522.6 247.952 1523.28 248.643 1524.1 248.643Z" fill="#4181E0" fill-opacity="0.34"/>
<path d="M1486.46 267.071C1486.46 267.376 1486.37 267.675 1486.21 267.929C1486.05 268.184 1485.81 268.381 1485.53 268.498C1485.26 268.615 1484.96 268.646 1484.66 268.586C1484.37 268.526 1484.11 268.379 1483.9 268.163C1483.69 267.947 1483.55 267.672 1483.49 267.372C1483.43 267.073 1483.46 266.762 1483.58 266.48C1483.69 266.198 1483.88 265.956 1484.12 265.786C1484.37 265.617 1484.66 265.526 1484.96 265.526C1485.36 265.526 1485.74 265.689 1486.02 265.979C1486.3 266.268 1486.46 266.662 1486.46 267.071Z" fill="#4181E0" fill-opacity="0.34"/>
<path d="M1506.03 267.071C1506.03 267.376 1505.94 267.675 1505.78 267.929C1505.61 268.184 1505.38 268.381 1505.11 268.498C1504.83 268.615 1504.53 268.646 1504.24 268.586C1503.95 268.526 1503.68 268.379 1503.47 268.163C1503.26 267.947 1503.12 267.672 1503.06 267.372C1503 267.073 1503.03 266.762 1503.14 266.48C1503.26 266.198 1503.45 265.956 1503.7 265.786C1503.95 265.617 1504.24 265.526 1504.53 265.526C1504.93 265.526 1505.31 265.689 1505.59 265.979C1505.87 266.268 1506.03 266.662 1506.03 267.071Z" fill="#4181E0" fill-opacity="0.34"/>
<path d="M1525.6 267.071C1525.6 267.376 1525.52 267.675 1525.35 267.929C1525.18 268.184 1524.95 268.381 1524.68 268.498C1524.4 268.615 1524.1 268.646 1523.81 268.586C1523.52 268.526 1523.25 268.379 1523.04 268.163C1522.83 267.947 1522.69 267.672 1522.63 267.372C1522.57 267.073 1522.6 266.762 1522.71 266.48C1522.83 266.198 1523.02 265.956 1523.27 265.786C1523.52 265.617 1523.8 265.526 1524.1 265.526C1524.5 265.526 1524.88 265.689 1525.16 265.979C1525.45 266.268 1525.6 266.662 1525.6 267.071Z" fill="#4181E0" fill-opacity="0.34"/>
<path d="M1486.46 287.044C1486.46 287.35 1486.37 287.649 1486.21 287.902C1486.05 288.156 1485.81 288.354 1485.53 288.471C1485.26 288.588 1484.96 288.618 1484.66 288.558C1484.37 288.499 1484.11 288.352 1483.9 288.136C1483.69 287.92 1483.55 287.644 1483.49 287.345C1483.43 287.045 1483.46 286.735 1483.58 286.453C1483.69 286.17 1483.88 285.929 1484.12 285.759C1484.37 285.59 1484.66 285.499 1484.96 285.499C1485.16 285.499 1485.36 285.539 1485.53 285.617C1485.72 285.695 1485.88 285.808 1486.02 285.952C1486.16 286.095 1486.27 286.266 1486.34 286.453C1486.42 286.641 1486.46 286.842 1486.46 287.044Z" fill="#4181E0" fill-opacity="0.34"/>
<path d="M1506.03 287.044C1506.03 287.35 1505.94 287.649 1505.78 287.902C1505.61 288.156 1505.38 288.354 1505.11 288.471C1504.83 288.588 1504.53 288.618 1504.24 288.558C1503.95 288.499 1503.68 288.352 1503.47 288.136C1503.26 287.92 1503.12 287.644 1503.06 287.345C1503 287.045 1503.03 286.735 1503.14 286.453C1503.26 286.17 1503.45 285.929 1503.7 285.759C1503.95 285.59 1504.24 285.499 1504.53 285.499C1504.73 285.499 1504.92 285.539 1505.11 285.617C1505.29 285.695 1505.45 285.808 1505.59 285.952C1505.73 286.095 1505.85 286.266 1505.92 286.453C1505.99 286.641 1506.03 286.842 1506.03 287.044Z" fill="#4181E0" fill-opacity="0.34"/>
<path d="M1525.6 287.044C1525.6 287.35 1525.52 287.649 1525.35 287.902C1525.18 288.156 1524.95 288.354 1524.68 288.471C1524.4 288.588 1524.1 288.618 1523.81 288.558C1523.52 288.499 1523.25 288.352 1523.04 288.136C1522.83 287.92 1522.69 287.644 1522.63 287.345C1522.57 287.045 1522.6 286.735 1522.71 286.453C1522.83 286.17 1523.02 285.929 1523.27 285.759C1523.52 285.59 1523.8 285.499 1524.1 285.499C1524.5 285.499 1524.88 285.662 1525.16 285.952C1525.45 286.242 1525.6 286.635 1525.6 287.044Z" fill="#4181E0" fill-opacity="0.34"/>
<path d="M1409.02 228.671C1409.84 228.671 1410.52 227.98 1410.52 227.127C1410.52 226.273 1409.84 225.582 1409.02 225.582C1408.18 225.582 1407.51 226.273 1407.51 227.127C1407.51 227.98 1408.18 228.671 1409.02 228.671Z" fill="#4181E0" fill-opacity="0.34"/>
<path d="M1428.59 228.671C1429.41 228.671 1430.09 227.98 1430.09 227.127C1430.09 226.273 1429.41 225.582 1428.59 225.582C1427.76 225.582 1427.09 226.273 1427.09 227.127C1427.09 227.98 1427.76 228.671 1428.59 228.671Z" fill="#4181E0" fill-opacity="0.34"/>
<path d="M1448.16 228.671C1448.99 228.671 1449.66 227.98 1449.66 227.127C1449.66 226.273 1448.99 225.582 1448.16 225.582C1447.33 225.582 1446.66 226.273 1446.66 227.127C1446.66 227.98 1447.33 228.671 1448.16 228.671Z" fill="#4181E0" fill-opacity="0.34"/>
<path d="M1467.73 228.671C1468.56 228.671 1469.23 227.98 1469.23 227.127C1469.23 226.273 1468.56 225.582 1467.73 225.582C1466.9 225.582 1466.23 226.273 1466.23 227.127C1466.23 227.98 1466.9 228.671 1467.73 228.671Z" fill="#4181E0" fill-opacity="0.34"/>
<path d="M1409.02 248.643C1409.84 248.643 1410.52 247.952 1410.52 247.099C1410.52 246.246 1409.84 245.554 1409.02 245.554C1408.18 245.554 1407.51 246.246 1407.51 247.099C1407.51 247.952 1408.18 248.643 1409.02 248.643Z" fill="#4181E0" fill-opacity="0.34"/>
<path d="M1428.59 248.643C1429.41 248.643 1430.09 247.952 1430.09 247.099C1430.09 246.246 1429.41 245.554 1428.59 245.554C1427.76 245.554 1427.09 246.246 1427.09 247.099C1427.09 247.952 1427.76 248.643 1428.59 248.643Z" fill="#4181E0" fill-opacity="0.34"/>
<path d="M1448.16 248.643C1448.99 248.643 1449.66 247.952 1449.66 247.099C1449.66 246.246 1448.99 245.554 1448.16 245.554C1447.33 245.554 1446.66 246.246 1446.66 247.099C1446.66 247.952 1447.33 248.643 1448.16 248.643Z" fill="#4181E0" fill-opacity="0.34"/>
<path d="M1467.73 248.643C1468.56 248.643 1469.23 247.952 1469.23 247.099C1469.23 246.246 1468.56 245.554 1467.73 245.554C1466.9 245.554 1466.23 246.246 1466.23 247.099C1466.23 247.952 1466.9 248.643 1467.73 248.643Z" fill="#4181E0" fill-opacity="0.34"/>
<path d="M1410.52 267.071C1410.52 267.376 1410.42 267.675 1410.26 267.929C1410.1 268.184 1409.86 268.381 1409.59 268.498C1409.31 268.615 1409.02 268.646 1408.72 268.586C1408.43 268.526 1408.16 268.379 1407.96 268.163C1407.74 267.947 1407.6 267.672 1407.54 267.372C1407.49 267.073 1407.51 266.762 1407.63 266.48C1407.74 266.198 1407.93 265.956 1408.18 265.786C1408.43 265.617 1408.72 265.526 1409.02 265.526C1409.41 265.526 1409.79 265.689 1410.08 265.979C1410.36 266.268 1410.52 266.662 1410.52 267.071Z" fill="#4181E0" fill-opacity="0.34"/>
<path d="M1430.09 267.071C1430.09 267.376 1430 267.675 1429.83 267.929C1429.67 268.184 1429.43 268.381 1429.16 268.498C1428.89 268.615 1428.59 268.646 1428.3 268.586C1428 268.526 1427.73 268.379 1427.53 268.163C1427.31 267.947 1427.17 267.672 1427.12 267.372C1427.06 267.073 1427.09 266.762 1427.2 266.48C1427.31 266.198 1427.51 265.956 1427.76 265.786C1428 265.617 1428.29 265.526 1428.59 265.526C1428.99 265.526 1429.36 265.689 1429.65 265.979C1429.93 266.268 1430.09 266.662 1430.09 267.071Z" fill="#4181E0" fill-opacity="0.34"/>
<path d="M1449.66 267.071C1449.66 267.376 1449.57 267.675 1449.41 267.929C1449.24 268.184 1449.01 268.381 1448.73 268.498C1448.46 268.615 1448.15 268.646 1447.87 268.586C1447.58 268.526 1447.31 268.379 1447.1 268.163C1446.89 267.947 1446.74 267.672 1446.69 267.372C1446.63 267.073 1446.66 266.762 1446.77 266.48C1446.89 266.198 1447.08 265.956 1447.33 265.786C1447.57 265.617 1447.86 265.526 1448.16 265.526C1448.56 265.526 1448.94 265.689 1449.22 265.979C1449.5 266.268 1449.66 266.662 1449.66 267.071Z" fill="#4181E0" fill-opacity="0.34"/>
<path d="M1469.23 267.071C1469.23 267.376 1469.14 267.675 1468.98 267.929C1468.81 268.184 1468.58 268.381 1468.3 268.498C1468.03 268.615 1467.73 268.646 1467.43 268.586C1467.14 268.526 1466.88 268.379 1466.67 268.163C1466.46 267.947 1466.32 267.672 1466.26 267.372C1466.2 267.073 1466.23 266.762 1466.35 266.48C1466.46 266.198 1466.65 265.956 1466.89 265.786C1467.14 265.617 1467.43 265.526 1467.73 265.526C1467.92 265.526 1468.12 265.567 1468.3 265.644C1468.49 265.722 1468.65 265.835 1468.79 265.979C1468.93 266.123 1469.04 266.292 1469.11 266.48C1469.19 266.667 1469.23 266.868 1469.23 267.071Z" fill="#4181E0" fill-opacity="0.34"/>
<path d="M1410.52 287.044C1410.52 287.35 1410.42 287.649 1410.26 287.902C1410.1 288.156 1409.86 288.354 1409.59 288.471C1409.31 288.588 1409.02 288.618 1408.72 288.558C1408.43 288.499 1408.16 288.352 1407.96 288.136C1407.74 287.92 1407.6 287.644 1407.54 287.345C1407.49 287.045 1407.51 286.735 1407.63 286.453C1407.74 286.17 1407.93 285.929 1408.18 285.759C1408.43 285.59 1408.72 285.499 1409.02 285.499C1409.21 285.499 1409.41 285.539 1409.59 285.617C1409.77 285.695 1409.93 285.808 1410.08 285.952C1410.22 286.095 1410.32 286.266 1410.4 286.453C1410.47 286.641 1410.52 286.842 1410.52 287.044Z" fill="#4181E0" fill-opacity="0.34"/>
<path d="M1430.09 287.044C1430.09 287.35 1430 287.649 1429.83 287.902C1429.67 288.156 1429.43 288.354 1429.16 288.471C1428.89 288.588 1428.58 288.618 1428.3 288.558C1428 288.499 1427.73 288.352 1427.53 288.136C1427.31 287.92 1427.17 287.644 1427.12 287.345C1427.06 287.045 1427.09 286.735 1427.2 286.453C1427.31 286.17 1427.51 285.929 1427.76 285.759C1428 285.59 1428.29 285.499 1428.59 285.499C1428.79 285.499 1428.98 285.539 1429.16 285.617C1429.34 285.695 1429.51 285.808 1429.65 285.952C1429.79 286.095 1429.9 286.266 1429.98 286.453C1430.05 286.641 1430.09 286.842 1430.09 287.044Z" fill="#4181E0" fill-opacity="0.34"/>
<path d="M1449.66 287.044C1449.66 287.35 1449.57 287.649 1449.41 287.902C1449.24 288.156 1449.01 288.354 1448.73 288.471C1448.46 288.588 1448.15 288.618 1447.86 288.558C1447.58 288.499 1447.31 288.352 1447.1 288.136C1446.89 287.92 1446.74 287.644 1446.69 287.345C1446.63 287.045 1446.66 286.735 1446.77 286.453C1446.89 286.17 1447.08 285.929 1447.33 285.759C1447.57 285.59 1447.86 285.499 1448.16 285.499C1448.56 285.499 1448.94 285.662 1449.22 285.952C1449.5 286.242 1449.66 286.635 1449.66 287.044Z" fill="#4181E0" fill-opacity="0.34"/>
<path d="M1469.23 287.044C1469.23 287.35 1469.14 287.649 1468.98 287.902C1468.81 288.156 1468.58 288.354 1468.3 288.471C1468.03 288.588 1467.73 288.618 1467.43 288.558C1467.14 288.499 1466.88 288.352 1466.67 288.136C1466.46 287.92 1466.32 287.644 1466.26 287.345C1466.2 287.045 1466.23 286.735 1466.35 286.453C1466.46 286.17 1466.65 285.929 1466.89 285.759C1467.14 285.59 1467.43 285.499 1467.73 285.499C1467.92 285.499 1468.12 285.539 1468.3 285.617C1468.49 285.695 1468.65 285.808 1468.79 285.952C1468.93 286.095 1469.04 286.266 1469.11 286.453C1469.19 286.641 1469.23 286.842 1469.23 287.044Z" fill="#4181E0" fill-opacity="0.34"/>
<path d="M1409.02 307.059C1409.84 307.059 1410.52 306.367 1410.52 305.514C1410.52 304.661 1409.84 303.969 1409.02 303.969C1408.18 303.969 1407.51 304.661 1407.51 305.514C1407.51 306.367 1408.18 307.059 1409.02 307.059Z" fill="#4181E0" fill-opacity="0.34"/>
<path d="M1428.59 307.059C1429.41 307.059 1430.09 306.367 1430.09 305.514C1430.09 304.661 1429.41 303.969 1428.59 303.969C1427.76 303.969 1427.09 304.661 1427.09 305.514C1427.09 306.367 1427.76 307.059 1428.59 307.059Z" fill="#4181E0" fill-opacity="0.34"/>
<path d="M1448.16 307.059C1448.99 307.059 1449.66 306.367 1449.66 305.514C1449.66 304.661 1448.99 303.969 1448.16 303.969C1447.33 303.969 1446.66 304.661 1446.66 305.514C1446.66 306.367 1447.33 307.059 1448.16 307.059Z" fill="#4181E0" fill-opacity="0.34"/>
<path d="M1467.73 307.059C1468.56 307.059 1469.23 306.367 1469.23 305.514C1469.23 304.661 1468.56 303.969 1467.73 303.969C1466.9 303.969 1466.23 304.661 1466.23 305.514C1466.23 306.367 1466.9 307.059 1467.73 307.059Z" fill="#4181E0" fill-opacity="0.34"/>
<path d="M1409.02 327.03C1409.84 327.03 1410.52 326.339 1410.52 325.486C1410.52 324.632 1409.84 323.941 1409.02 323.941C1408.18 323.941 1407.51 324.632 1407.51 325.486C1407.51 326.339 1408.18 327.03 1409.02 327.03Z" fill="#4181E0" fill-opacity="0.34"/>
<path d="M1428.59 327.03C1429.41 327.03 1430.09 326.339 1430.09 325.486C1430.09 324.632 1429.41 323.941 1428.59 323.941C1427.76 323.941 1427.09 324.632 1427.09 325.486C1427.09 326.339 1427.76 327.03 1428.59 327.03Z" fill="#4181E0" fill-opacity="0.34"/>
<path d="M1448.16 327.03C1448.99 327.03 1449.66 326.339 1449.66 325.486C1449.66 324.632 1448.99 323.941 1448.16 323.941C1447.33 323.941 1446.66 324.632 1446.66 325.486C1446.66 326.339 1447.33 327.03 1448.16 327.03Z" fill="#4181E0" fill-opacity="0.34"/>
<path d="M1467.73 327.03C1468.56 327.03 1469.23 326.339 1469.23 325.486C1469.23 324.632 1468.56 323.941 1467.73 323.941C1466.9 323.941 1466.23 324.632 1466.23 325.486C1466.23 326.339 1466.9 327.03 1467.73 327.03Z" fill="#4181E0" fill-opacity="0.34"/>
<path d="M1410.52 345.458C1410.52 345.763 1410.42 346.062 1410.26 346.316C1410.1 346.57 1409.86 346.768 1409.59 346.884C1409.31 347.002 1409.02 347.032 1408.72 346.972C1408.43 346.913 1408.16 346.766 1407.96 346.55C1407.74 346.334 1407.6 346.059 1407.54 345.759C1407.49 345.459 1407.51 345.149 1407.63 344.867C1407.74 344.585 1407.93 344.343 1408.18 344.173C1408.43 344.004 1408.72 343.913 1409.02 343.913C1409.41 343.913 1409.79 344.076 1410.08 344.366C1410.36 344.655 1410.52 345.048 1410.52 345.458Z" fill="#4181E0" fill-opacity="0.34"/>
<path d="M1430.09 345.458C1430.09 345.763 1430 346.062 1429.83 346.316C1429.67 346.57 1429.43 346.768 1429.16 346.884C1428.89 347.002 1428.59 347.032 1428.3 346.972C1428 346.913 1427.73 346.766 1427.53 346.55C1427.31 346.334 1427.17 346.059 1427.12 345.759C1427.06 345.459 1427.09 345.149 1427.2 344.867C1427.31 344.585 1427.51 344.343 1427.76 344.173C1428 344.004 1428.29 343.913 1428.59 343.913C1428.99 343.913 1429.36 344.076 1429.65 344.366C1429.93 344.655 1430.09 345.048 1430.09 345.458Z" fill="#4181E0" fill-opacity="0.34"/>
<path d="M1449.66 345.458C1449.66 345.763 1449.57 346.062 1449.41 346.316C1449.24 346.57 1449.01 346.768 1448.73 346.884C1448.46 347.002 1448.15 347.032 1447.87 346.972C1447.58 346.913 1447.31 346.766 1447.1 346.55C1446.89 346.334 1446.74 346.059 1446.69 345.759C1446.63 345.459 1446.66 345.149 1446.77 344.867C1446.89 344.585 1447.08 344.343 1447.33 344.173C1447.57 344.004 1447.86 343.913 1448.16 343.913C1448.56 343.913 1448.94 344.076 1449.22 344.366C1449.5 344.655 1449.66 345.048 1449.66 345.458Z" fill="#4181E0" fill-opacity="0.34"/>
<path d="M1469.23 345.458C1469.23 345.763 1469.14 346.062 1468.98 346.316C1468.81 346.57 1468.58 346.768 1468.3 346.884C1468.03 347.002 1467.73 347.032 1467.43 346.972C1467.14 346.913 1466.88 346.766 1466.67 346.55C1466.46 346.334 1466.32 346.059 1466.26 345.759C1466.2 345.459 1466.23 345.149 1466.35 344.867C1466.46 344.585 1466.65 344.343 1466.89 344.173C1467.14 344.004 1467.43 343.913 1467.73 343.913C1467.92 343.913 1468.12 343.953 1468.3 344.031C1468.49 344.109 1468.65 344.222 1468.79 344.366C1468.93 344.509 1469.04 344.679 1469.11 344.867C1469.19 345.054 1469.23 345.255 1469.23 345.458Z" fill="#4181E0" fill-opacity="0.34"/>
<path d="M1410.52 365.431C1410.52 365.737 1410.42 366.035 1410.26 366.289C1410.1 366.543 1409.86 366.741 1409.59 366.858C1409.31 366.974 1409.02 367.005 1408.72 366.945C1408.43 366.886 1408.16 366.738 1407.96 366.522C1407.74 366.306 1407.6 366.031 1407.54 365.731C1407.49 365.432 1407.51 365.121 1407.63 364.839C1407.74 364.557 1407.93 364.316 1408.18 364.146C1408.43 363.977 1408.72 363.886 1409.02 363.886C1409.21 363.886 1409.41 363.926 1409.59 364.004C1409.77 364.081 1409.93 364.195 1410.08 364.338C1410.22 364.482 1410.32 364.653 1410.4 364.84C1410.47 365.028 1410.52 365.228 1410.52 365.431Z" fill="#4181E0" fill-opacity="0.34"/>
<path d="M1430.09 365.431C1430.09 365.737 1430 366.035 1429.83 366.289C1429.67 366.543 1429.43 366.741 1429.16 366.858C1428.89 366.974 1428.58 367.005 1428.3 366.945C1428 366.886 1427.73 366.738 1427.53 366.522C1427.31 366.306 1427.17 366.031 1427.12 365.731C1427.06 365.432 1427.09 365.121 1427.2 364.839C1427.31 364.557 1427.51 364.316 1427.76 364.146C1428 363.977 1428.29 363.886 1428.59 363.886C1428.79 363.886 1428.98 363.926 1429.16 364.004C1429.34 364.081 1429.51 364.195 1429.65 364.338C1429.79 364.482 1429.9 364.653 1429.98 364.84C1430.05 365.028 1430.09 365.228 1430.09 365.431Z" fill="#4181E0" fill-opacity="0.34"/>
<path d="M1449.66 365.431C1449.66 365.737 1449.57 366.035 1449.41 366.289C1449.24 366.543 1449.01 366.741 1448.73 366.858C1448.46 366.974 1448.15 367.005 1447.86 366.945C1447.58 366.886 1447.31 366.738 1447.1 366.522C1446.89 366.306 1446.74 366.031 1446.69 365.731C1446.63 365.432 1446.66 365.121 1446.77 364.839C1446.89 364.557 1447.08 364.316 1447.33 364.146C1447.57 363.977 1447.86 363.886 1448.16 363.886C1448.56 363.886 1448.94 364.049 1449.22 364.338C1449.5 364.628 1449.66 365.022 1449.66 365.431Z" fill="#4181E0" fill-opacity="0.34"/>
<path d="M1469.23 365.431C1469.23 365.737 1469.14 366.035 1468.98 366.289C1468.81 366.543 1468.58 366.741 1468.3 366.858C1468.03 366.974 1467.73 367.005 1467.43 366.945C1467.14 366.886 1466.88 366.738 1466.67 366.522C1466.46 366.306 1466.32 366.031 1466.26 365.731C1466.2 365.432 1466.23 365.121 1466.35 364.839C1466.46 364.557 1466.65 364.316 1466.89 364.146C1467.14 363.977 1467.43 363.886 1467.73 363.886C1467.92 363.886 1468.12 363.926 1468.3 364.004C1468.49 364.081 1468.65 364.195 1468.79 364.338C1468.93 364.482 1469.04 364.653 1469.11 364.84C1469.19 365.028 1469.23 365.228 1469.23 365.431Z" fill="#4181E0" fill-opacity="0.34"/>
<path d="M1484.96 307.059C1485.79 307.059 1486.46 306.367 1486.46 305.514C1486.46 304.661 1485.79 303.969 1484.96 303.969C1484.13 303.969 1483.46 304.661 1483.46 305.514C1483.46 306.367 1484.13 307.059 1484.96 307.059Z" fill="#4181E0" fill-opacity="0.34"/>
<path d="M1504.53 307.059C1505.36 307.059 1506.03 306.367 1506.03 305.514C1506.03 304.661 1505.36 303.969 1504.53 303.969C1503.7 303.969 1503.03 304.661 1503.03 305.514C1503.03 306.367 1503.7 307.059 1504.53 307.059Z" fill="#4181E0" fill-opacity="0.34"/>
<path d="M1524.1 307.059C1524.93 307.059 1525.6 306.367 1525.6 305.514C1525.6 304.661 1524.93 303.969 1524.1 303.969C1523.28 303.969 1522.6 304.661 1522.6 305.514C1522.6 306.367 1523.28 307.059 1524.1 307.059Z" fill="#4181E0" fill-opacity="0.34"/>
<path d="M1484.96 327.03C1485.79 327.03 1486.46 326.339 1486.46 325.486C1486.46 324.632 1485.79 323.941 1484.96 323.941C1484.13 323.941 1483.46 324.632 1483.46 325.486C1483.46 326.339 1484.13 327.03 1484.96 327.03Z" fill="#4181E0" fill-opacity="0.34"/>
<path d="M1504.53 327.03C1505.36 327.03 1506.03 326.339 1506.03 325.486C1506.03 324.632 1505.36 323.941 1504.53 323.941C1503.7 323.941 1503.03 324.632 1503.03 325.486C1503.03 326.339 1503.7 327.03 1504.53 327.03Z" fill="#4181E0" fill-opacity="0.34"/>
<path d="M1524.1 327.03C1524.93 327.03 1525.6 326.339 1525.6 325.486C1525.6 324.632 1524.93 323.941 1524.1 323.941C1523.28 323.941 1522.6 324.632 1522.6 325.486C1522.6 326.339 1523.28 327.03 1524.1 327.03Z" fill="#4181E0" fill-opacity="0.34"/>
<path d="M1486.46 345.458C1486.46 345.763 1486.37 346.062 1486.21 346.316C1486.05 346.57 1485.81 346.768 1485.53 346.884C1485.26 347.002 1484.96 347.032 1484.66 346.972C1484.37 346.913 1484.11 346.766 1483.9 346.55C1483.69 346.334 1483.55 346.059 1483.49 345.759C1483.43 345.459 1483.46 345.149 1483.58 344.867C1483.69 344.585 1483.88 344.343 1484.12 344.173C1484.37 344.004 1484.66 343.913 1484.96 343.913C1485.36 343.913 1485.74 344.076 1486.02 344.366C1486.3 344.655 1486.46 345.048 1486.46 345.458Z" fill="#4181E0" fill-opacity="0.34"/>
<path d="M1506.03 345.458C1506.03 345.763 1505.94 346.062 1505.78 346.316C1505.61 346.57 1505.38 346.768 1505.11 346.884C1504.83 347.002 1504.53 347.032 1504.24 346.972C1503.95 346.913 1503.68 346.766 1503.47 346.55C1503.26 346.334 1503.12 346.059 1503.06 345.759C1503 345.459 1503.03 345.149 1503.14 344.867C1503.26 344.585 1503.45 344.343 1503.7 344.173C1503.95 344.004 1504.24 343.913 1504.53 343.913C1504.93 343.913 1505.31 344.076 1505.59 344.366C1505.87 344.655 1506.03 345.048 1506.03 345.458Z" fill="#4181E0" fill-opacity="0.34"/>
<path d="M1525.6 345.458C1525.6 345.763 1525.52 346.062 1525.35 346.316C1525.18 346.57 1524.95 346.768 1524.68 346.884C1524.4 347.002 1524.1 347.032 1523.81 346.972C1523.52 346.913 1523.25 346.766 1523.04 346.55C1522.83 346.334 1522.69 346.059 1522.63 345.759C1522.57 345.459 1522.6 345.149 1522.71 344.867C1522.83 344.585 1523.02 344.343 1523.27 344.173C1523.52 344.004 1523.8 343.913 1524.1 343.913C1524.5 343.913 1524.88 344.076 1525.16 344.366C1525.45 344.655 1525.6 345.048 1525.6 345.458Z" fill="#4181E0" fill-opacity="0.34"/>
<path d="M1486.46 365.431C1486.46 365.737 1486.37 366.035 1486.21 366.289C1486.05 366.543 1485.81 366.741 1485.53 366.858C1485.26 366.974 1484.96 367.005 1484.66 366.945C1484.37 366.886 1484.11 366.738 1483.9 366.522C1483.69 366.306 1483.55 366.031 1483.49 365.731C1483.43 365.432 1483.46 365.121 1483.58 364.839C1483.69 364.557 1483.88 364.316 1484.12 364.146C1484.37 363.977 1484.66 363.886 1484.96 363.886C1485.16 363.886 1485.36 363.926 1485.53 364.004C1485.72 364.081 1485.88 364.195 1486.02 364.338C1486.16 364.482 1486.27 364.653 1486.34 364.84C1486.42 365.028 1486.46 365.228 1486.46 365.431Z" fill="#4181E0" fill-opacity="0.34"/>
<path d="M1506.03 365.431C1506.03 365.737 1505.94 366.035 1505.78 366.289C1505.61 366.543 1505.38 366.741 1505.11 366.858C1504.83 366.974 1504.53 367.005 1504.24 366.945C1503.95 366.886 1503.68 366.738 1503.47 366.522C1503.26 366.306 1503.12 366.031 1503.06 365.731C1503 365.432 1503.03 365.121 1503.14 364.839C1503.26 364.557 1503.45 364.316 1503.7 364.146C1503.95 363.977 1504.24 363.886 1504.53 363.886C1504.73 363.886 1504.92 363.926 1505.11 364.004C1505.29 364.081 1505.45 364.195 1505.59 364.338C1505.73 364.482 1505.85 364.653 1505.92 364.84C1505.99 365.028 1506.03 365.228 1506.03 365.431Z" fill="#4181E0" fill-opacity="0.34"/>
<path d="M1525.6 365.431C1525.6 365.737 1525.52 366.035 1525.35 366.289C1525.18 366.543 1524.95 366.741 1524.68 366.858C1524.4 366.974 1524.1 367.005 1523.81 366.945C1523.52 366.886 1523.25 366.738 1523.04 366.522C1522.83 366.306 1522.69 366.031 1522.63 365.731C1522.57 365.432 1522.6 365.121 1522.71 364.839C1522.83 364.557 1523.02 364.316 1523.27 364.146C1523.52 363.977 1523.8 363.886 1524.1 363.886C1524.5 363.886 1524.88 364.049 1525.16 364.338C1525.45 364.628 1525.6 365.022 1525.6 365.431Z" fill="#4181E0" fill-opacity="0.34"/>
<path d="M1409.02 385.445C1409.84 385.445 1410.52 384.754 1410.52 383.901C1410.52 383.047 1409.84 382.356 1409.02 382.356C1408.18 382.356 1407.51 383.047 1407.51 383.901C1407.51 384.754 1408.18 385.445 1409.02 385.445Z" fill="#4181E0" fill-opacity="0.34"/>
<path d="M1428.59 385.445C1429.41 385.445 1430.09 384.754 1430.09 383.901C1430.09 383.047 1429.41 382.356 1428.59 382.356C1427.76 382.356 1427.09 383.047 1427.09 383.901C1427.09 384.754 1427.76 385.445 1428.59 385.445Z" fill="#4181E0" fill-opacity="0.34"/>
<path d="M1448.16 385.445C1448.99 385.445 1449.66 384.754 1449.66 383.901C1449.66 383.047 1448.99 382.356 1448.16 382.356C1447.33 382.356 1446.66 383.047 1446.66 383.901C1446.66 384.754 1447.33 385.445 1448.16 385.445Z" fill="#4181E0" fill-opacity="0.34"/>
<path d="M1467.73 385.445C1468.56 385.445 1469.23 384.754 1469.23 383.901C1469.23 383.047 1468.56 382.356 1467.73 382.356C1466.9 382.356 1466.23 383.047 1466.23 383.901C1466.23 384.754 1466.9 385.445 1467.73 385.445Z" fill="#4181E0" fill-opacity="0.34"/>
<path d="M1409.02 405.417C1409.84 405.417 1410.52 404.726 1410.52 403.873C1410.52 403.02 1409.84 402.328 1409.02 402.328C1408.18 402.328 1407.51 403.02 1407.51 403.873C1407.51 404.726 1408.18 405.417 1409.02 405.417Z" fill="#4181E0" fill-opacity="0.34"/>
<path d="M1428.59 405.417C1429.41 405.417 1430.09 404.726 1430.09 403.873C1430.09 403.02 1429.41 402.328 1428.59 402.328C1427.76 402.328 1427.09 403.02 1427.09 403.873C1427.09 404.726 1427.76 405.417 1428.59 405.417Z" fill="#4181E0" fill-opacity="0.34"/>
<path d="M1448.16 405.417C1448.99 405.417 1449.66 404.726 1449.66 403.873C1449.66 403.02 1448.99 402.328 1448.16 402.328C1447.33 402.328 1446.66 403.02 1446.66 403.873C1446.66 404.726 1447.33 405.417 1448.16 405.417Z" fill="#4181E0" fill-opacity="0.34"/>
<path d="M1467.73 405.417C1468.56 405.417 1469.23 404.726 1469.23 403.873C1469.23 403.02 1468.56 402.328 1467.73 402.328C1466.9 402.328 1466.23 403.02 1466.23 403.873C1466.23 404.726 1466.9 405.417 1467.73 405.417Z" fill="#4181E0" fill-opacity="0.34"/>
<path d="M1410.52 423.844C1410.52 424.15 1410.42 424.449 1410.26 424.703C1410.1 424.957 1409.86 425.155 1409.59 425.271C1409.31 425.388 1409.02 425.419 1408.72 425.359C1408.43 425.3 1408.16 425.153 1407.96 424.936C1407.74 424.72 1407.6 424.446 1407.54 424.145C1407.49 423.846 1407.51 423.535 1407.63 423.253C1407.74 422.971 1407.93 422.73 1408.18 422.56C1408.43 422.391 1408.72 422.3 1409.02 422.3C1409.41 422.3 1409.79 422.462 1410.08 422.752C1410.36 423.042 1410.52 423.435 1410.52 423.844Z" fill="#4181E0" fill-opacity="0.34"/>
<path d="M1430.09 423.844C1430.09 424.15 1430 424.449 1429.83 424.703C1429.67 424.957 1429.43 425.155 1429.16 425.271C1428.89 425.388 1428.59 425.419 1428.3 425.359C1428 425.3 1427.73 425.153 1427.53 424.936C1427.31 424.72 1427.17 424.446 1427.12 424.145C1427.06 423.846 1427.09 423.535 1427.2 423.253C1427.31 422.971 1427.51 422.73 1427.76 422.56C1428 422.391 1428.29 422.3 1428.59 422.3C1428.99 422.3 1429.36 422.462 1429.65 422.752C1429.93 423.042 1430.09 423.435 1430.09 423.844Z" fill="#4181E0" fill-opacity="0.34"/>
<path d="M1449.66 423.844C1449.66 424.15 1449.57 424.449 1449.41 424.703C1449.24 424.957 1449.01 425.155 1448.73 425.271C1448.46 425.388 1448.15 425.419 1447.87 425.359C1447.58 425.3 1447.31 425.153 1447.1 424.936C1446.89 424.72 1446.74 424.446 1446.69 424.145C1446.63 423.846 1446.66 423.535 1446.77 423.253C1446.89 422.971 1447.08 422.73 1447.33 422.56C1447.57 422.391 1447.86 422.3 1448.16 422.3C1448.56 422.3 1448.94 422.462 1449.22 422.752C1449.5 423.042 1449.66 423.435 1449.66 423.844Z" fill="#4181E0" fill-opacity="0.34"/>
<path d="M1469.23 423.844C1469.23 424.15 1469.14 424.449 1468.98 424.703C1468.81 424.957 1468.58 425.155 1468.3 425.271C1468.03 425.388 1467.73 425.419 1467.43 425.359C1467.14 425.3 1466.88 425.153 1466.67 424.936C1466.46 424.72 1466.32 424.446 1466.26 424.145C1466.2 423.846 1466.23 423.535 1466.35 423.253C1466.46 422.971 1466.65 422.73 1466.89 422.56C1467.14 422.391 1467.43 422.3 1467.73 422.3C1467.92 422.3 1468.12 422.34 1468.3 422.418C1468.49 422.495 1468.65 422.609 1468.79 422.752C1468.93 422.896 1469.04 423.066 1469.11 423.253C1469.19 423.441 1469.23 423.642 1469.23 423.844Z" fill="#4181E0" fill-opacity="0.34"/>
<path d="M1410.52 443.818C1410.52 444.124 1410.42 444.423 1410.26 444.676C1410.1 444.93 1409.86 445.128 1409.59 445.245C1409.31 445.362 1409.02 445.392 1408.72 445.332C1408.43 445.273 1408.16 445.126 1407.96 444.91C1407.74 444.694 1407.6 444.418 1407.54 444.119C1407.49 443.819 1407.51 443.509 1407.63 443.227C1407.74 442.944 1407.93 442.703 1408.18 442.533C1408.43 442.364 1408.72 442.273 1409.02 442.273C1409.21 442.273 1409.41 442.313 1409.59 442.391C1409.77 442.469 1409.93 442.582 1410.08 442.726C1410.22 442.869 1410.32 443.04 1410.4 443.227C1410.47 443.415 1410.52 443.615 1410.52 443.818Z" fill="#4181E0" fill-opacity="0.34"/>
<path d="M1430.09 443.818C1430.09 444.124 1430 444.423 1429.83 444.676C1429.67 444.93 1429.43 445.128 1429.16 445.245C1428.89 445.362 1428.58 445.392 1428.3 445.332C1428 445.273 1427.73 445.126 1427.53 444.91C1427.31 444.694 1427.17 444.418 1427.12 444.119C1427.06 443.819 1427.09 443.509 1427.2 443.227C1427.31 442.944 1427.51 442.703 1427.76 442.533C1428 442.364 1428.29 442.273 1428.59 442.273C1428.79 442.273 1428.98 442.313 1429.16 442.391C1429.34 442.469 1429.51 442.582 1429.65 442.726C1429.79 442.869 1429.9 443.04 1429.98 443.227C1430.05 443.415 1430.09 443.615 1430.09 443.818Z" fill="#4181E0" fill-opacity="0.34"/>
<path d="M1449.66 443.818C1449.66 444.124 1449.57 444.423 1449.41 444.676C1449.24 444.93 1449.01 445.128 1448.73 445.245C1448.46 445.362 1448.15 445.392 1447.86 445.332C1447.58 445.273 1447.31 445.126 1447.1 444.91C1446.89 444.694 1446.74 444.418 1446.69 444.119C1446.63 443.819 1446.66 443.509 1446.77 443.227C1446.89 442.944 1447.08 442.703 1447.33 442.533C1447.57 442.364 1447.86 442.273 1448.16 442.273C1448.56 442.273 1448.94 442.436 1449.22 442.726C1449.5 443.016 1449.66 443.409 1449.66 443.818Z" fill="#4181E0" fill-opacity="0.34"/>
<path d="M1469.23 443.818C1469.23 444.124 1469.14 444.423 1468.98 444.676C1468.81 444.93 1468.58 445.128 1468.3 445.245C1468.03 445.362 1467.73 445.392 1467.43 445.332C1467.14 445.273 1466.88 445.126 1466.67 444.91C1466.46 444.694 1466.32 444.418 1466.26 444.119C1466.2 443.819 1466.23 443.509 1466.35 443.227C1466.46 442.944 1466.65 442.703 1466.89 442.533C1467.14 442.364 1467.43 442.273 1467.73 442.273C1467.92 442.273 1468.12 442.313 1468.3 442.391C1468.49 442.469 1468.65 442.582 1468.79 442.726C1468.93 442.869 1469.04 443.04 1469.11 443.227C1469.19 443.415 1469.23 443.615 1469.23 443.818Z" fill="#4181E0" fill-opacity="0.34"/>
<path d="M1484.96 385.445C1485.79 385.445 1486.46 384.754 1486.46 383.901C1486.46 383.047 1485.79 382.356 1484.96 382.356C1484.13 382.356 1483.46 383.047 1483.46 383.901C1483.46 384.754 1484.13 385.445 1484.96 385.445Z" fill="#4181E0" fill-opacity="0.34"/>
<path d="M1504.53 385.445C1505.36 385.445 1506.03 384.754 1506.03 383.901C1506.03 383.047 1505.36 382.356 1504.53 382.356C1503.7 382.356 1503.03 383.047 1503.03 383.901C1503.03 384.754 1503.7 385.445 1504.53 385.445Z" fill="#4181E0" fill-opacity="0.34"/>
<path d="M1524.1 385.445C1524.93 385.445 1525.6 384.754 1525.6 383.901C1525.6 383.047 1524.93 382.356 1524.1 382.356C1523.28 382.356 1522.6 383.047 1522.6 383.901C1522.6 384.754 1523.28 385.445 1524.1 385.445Z" fill="#4181E0" fill-opacity="0.34"/>
<path d="M1484.96 405.417C1485.79 405.417 1486.46 404.726 1486.46 403.873C1486.46 403.02 1485.79 402.328 1484.96 402.328C1484.13 402.328 1483.46 403.02 1483.46 403.873C1483.46 404.726 1484.13 405.417 1484.96 405.417Z" fill="#4181E0" fill-opacity="0.34"/>
<path d="M1504.53 405.417C1505.36 405.417 1506.03 404.726 1506.03 403.873C1506.03 403.02 1505.36 402.328 1504.53 402.328C1503.7 402.328 1503.03 403.02 1503.03 403.873C1503.03 404.726 1503.7 405.417 1504.53 405.417Z" fill="#4181E0" fill-opacity="0.34"/>
<path d="M1524.1 405.417C1524.93 405.417 1525.6 404.726 1525.6 403.873C1525.6 403.02 1524.93 402.328 1524.1 402.328C1523.28 402.328 1522.6 403.02 1522.6 403.873C1522.6 404.726 1523.28 405.417 1524.1 405.417Z" fill="#4181E0" fill-opacity="0.34"/>
<path d="M1486.46 423.844C1486.46 424.15 1486.37 424.449 1486.21 424.703C1486.05 424.957 1485.81 425.155 1485.53 425.271C1485.26 425.388 1484.96 425.419 1484.66 425.359C1484.37 425.3 1484.11 425.153 1483.9 424.936C1483.69 424.72 1483.55 424.446 1483.49 424.145C1483.43 423.846 1483.46 423.535 1483.58 423.253C1483.69 422.971 1483.88 422.73 1484.12 422.56C1484.37 422.391 1484.66 422.3 1484.96 422.3C1485.36 422.3 1485.74 422.462 1486.02 422.752C1486.3 423.042 1486.46 423.435 1486.46 423.844Z" fill="#4181E0" fill-opacity="0.34"/>
<path d="M1506.03 423.844C1506.03 424.15 1505.94 424.449 1505.78 424.703C1505.61 424.957 1505.38 425.155 1505.11 425.271C1504.83 425.388 1504.53 425.419 1504.24 425.359C1503.95 425.3 1503.68 425.153 1503.47 424.936C1503.26 424.72 1503.12 424.446 1503.06 424.145C1503 423.846 1503.03 423.535 1503.14 423.253C1503.26 422.971 1503.45 422.73 1503.7 422.56C1503.95 422.391 1504.24 422.3 1504.53 422.3C1504.93 422.3 1505.31 422.462 1505.59 422.752C1505.87 423.042 1506.03 423.435 1506.03 423.844Z" fill="#4181E0" fill-opacity="0.34"/>
<path d="M1525.6 423.844C1525.6 424.15 1525.52 424.449 1525.35 424.703C1525.18 424.957 1524.95 425.155 1524.68 425.271C1524.4 425.388 1524.1 425.419 1523.81 425.359C1523.52 425.3 1523.25 425.153 1523.04 424.936C1522.83 424.72 1522.69 424.446 1522.63 424.145C1522.57 423.846 1522.6 423.535 1522.71 423.253C1522.83 422.971 1523.02 422.73 1523.27 422.56C1523.52 422.391 1523.8 422.3 1524.1 422.3C1524.5 422.3 1524.88 422.462 1525.16 422.752C1525.45 423.042 1525.6 423.435 1525.6 423.844Z" fill="#4181E0" fill-opacity="0.34"/>
<path d="M1486.46 443.818C1486.46 444.124 1486.37 444.423 1486.21 444.676C1486.05 444.93 1485.81 445.128 1485.53 445.245C1485.26 445.362 1484.96 445.392 1484.66 445.332C1484.37 445.273 1484.11 445.126 1483.9 444.91C1483.69 444.694 1483.55 444.418 1483.49 444.119C1483.43 443.819 1483.46 443.509 1483.58 443.227C1483.69 442.944 1483.88 442.703 1484.12 442.533C1484.37 442.364 1484.66 442.273 1484.96 442.273C1485.16 442.273 1485.36 442.313 1485.53 442.391C1485.72 442.469 1485.88 442.582 1486.02 442.726C1486.16 442.869 1486.27 443.04 1486.34 443.227C1486.42 443.415 1486.46 443.615 1486.46 443.818Z" fill="#4181E0" fill-opacity="0.34"/>
<path d="M1506.03 443.818C1506.03 444.124 1505.94 444.423 1505.78 444.676C1505.61 444.93 1505.38 445.128 1505.11 445.245C1504.83 445.362 1504.53 445.392 1504.24 445.332C1503.95 445.273 1503.68 445.126 1503.47 444.91C1503.26 444.694 1503.12 444.418 1503.06 444.119C1503 443.819 1503.03 443.509 1503.14 443.227C1503.26 442.944 1503.45 442.703 1503.7 442.533C1503.95 442.364 1504.24 442.273 1504.53 442.273C1504.73 442.273 1504.92 442.313 1505.11 442.391C1505.29 442.469 1505.45 442.582 1505.59 442.726C1505.73 442.869 1505.85 443.04 1505.92 443.227C1505.99 443.415 1506.03 443.615 1506.03 443.818Z" fill="#4181E0" fill-opacity="0.34"/>
<path d="M1525.6 443.818C1525.6 444.124 1525.52 444.423 1525.35 444.676C1525.18 444.93 1524.95 445.128 1524.68 445.245C1524.4 445.362 1524.1 445.392 1523.81 445.332C1523.52 445.273 1523.25 445.126 1523.04 444.91C1522.83 444.694 1522.69 444.418 1522.63 444.119C1522.57 443.819 1522.6 443.509 1522.71 443.227C1522.83 442.944 1523.02 442.703 1523.27 442.533C1523.52 442.364 1523.8 442.273 1524.1 442.273C1524.5 442.273 1524.88 442.436 1525.16 442.726C1525.45 443.016 1525.6 443.409 1525.6 443.818Z" fill="#4181E0" fill-opacity="0.34"/>
</svg>
